<?xml version="1.0" encoding="UTF-8" standalone="no"?>
<!-- Created with Inkscape (http://www.inkscape.org/) -->

<svg
   xmlns:dc="http://purl.org/dc/elements/1.1/"
   xmlns:cc="http://creativecommons.org/ns#"
   xmlns:rdf="http://www.w3.org/1999/02/22-rdf-syntax-ns#"
   xmlns:svg="http://www.w3.org/2000/svg"
   xmlns="http://www.w3.org/2000/svg"
   xmlns:xlink="http://www.w3.org/1999/xlink"
   xmlns:sodipodi="http://sodipodi.sourceforge.net/DTD/sodipodi-0.dtd"
   xmlns:inkscape="http://www.inkscape.org/namespaces/inkscape"
   width="128"
   height="128"
   id="svg2"
   version="1.1"
   inkscape:version="0.48.2 r9819"
   sodipodi:docname="New document 1">
  <title
     id="title5366">gearcrate</title>
  <defs
     id="defs4">
    <linearGradient
       inkscape:collect="always"
       id="linearGradient5275">
      <stop
         style="stop-color:#a0a0a0;stop-opacity:1;"
         offset="0"
         id="stop5277" />
      <stop
         style="stop-color:#404040;stop-opacity:1;"
         offset="1"
         id="stop5279" />
    </linearGradient>
    <linearGradient
       inkscape:collect="always"
       id="linearGradient5265">
      <stop
         style="stop-color:#e6e6e6;stop-opacity:1;"
         offset="0"
         id="stop5267" />
      <stop
         style="stop-color:#a0a0a0;stop-opacity:0;"
         offset="1"
         id="stop5269" />
    </linearGradient>
    <linearGradient
       inkscape:collect="always"
       xlink:href="#linearGradient5265"
       id="linearGradient5273"
       x1="154.80904"
       y1="990.38342"
       x2="275.1741"
       y2="990.38342"
       gradientUnits="userSpaceOnUse" />
    <linearGradient
       inkscape:collect="always"
       xlink:href="#linearGradient5275"
       id="linearGradient5281"
       x1="5.0721383e-010"
       y1="988.36479"
       x2="127.9942"
       y2="988.36479"
       gradientUnits="userSpaceOnUse" />
    <linearGradient
       inkscape:collect="always"
       xlink:href="#linearGradient5275-4"
       id="linearGradient5281-2"
       x1="5.0721383e-010"
       y1="988.36481"
       x2="127.9942"
       y2="988.36481"
       gradientUnits="userSpaceOnUse" />
    <linearGradient
       id="linearGradient5275-4">
      <stop
         style="stop-color:#a0a0a0;stop-opacity:1;"
         offset="0"
         id="stop5277-5" />
      <stop
         style="stop-color:#404040;stop-opacity:1;"
         offset="1"
         id="stop5279-5" />
    </linearGradient>
    <linearGradient
       inkscape:collect="always"
       xlink:href="#linearGradient5275"
       id="linearGradient5327"
       gradientUnits="userSpaceOnUse"
       x1="5.0721383e-010"
       y1="988.36479"
       x2="127.9942"
       y2="988.36479"
       gradientTransform="matrix(1.0233921,0,0,1.0233921,0,-21.430793)" />
    <linearGradient
       inkscape:collect="always"
       xlink:href="#linearGradient5265"
       id="linearGradient5329"
       gradientUnits="userSpaceOnUse"
       x1="154.80904"
       y1="990.38342"
       x2="275.1741"
       y2="990.38342"
       gradientTransform="matrix(1.0233921,0,0,1.0233921,-3.5976153,-21.554849)" />
    <linearGradient
       inkscape:collect="always"
       xlink:href="#linearGradient5275-1"
       id="linearGradient5281-7"
       x1="5.0721383e-010"
       y1="988.36481"
       x2="127.9942"
       y2="988.36481"
       gradientUnits="userSpaceOnUse" />
    <linearGradient
       id="linearGradient5275-1">
      <stop
         style="stop-color:#a0a0a0;stop-opacity:1;"
         offset="0"
         id="stop5277-1" />
      <stop
         style="stop-color:#404040;stop-opacity:1;"
         offset="1"
         id="stop5279-52" />
    </linearGradient>
    <linearGradient
       y2="988.36481"
       x2="127.9942"
       y1="988.36481"
       x1="5.0721383e-010"
       gradientUnits="userSpaceOnUse"
       id="linearGradient5303"
       xlink:href="#linearGradient5275-1"
       inkscape:collect="always" />
  </defs>
  <sodipodi:namedview
     id="base"
     pagecolor="#ffffff"
     bordercolor="#666666"
     borderopacity="1.0"
     inkscape:pageopacity="0.0"
     inkscape:pageshadow="2"
     inkscape:zoom="1"
     inkscape:cx="144.35655"
     inkscape:cy="31.622645"
     inkscape:document-units="px"
     inkscape:current-layer="layer1"
     showgrid="false"
     inkscape:window-width="1471"
     inkscape:window-height="1073"
     inkscape:window-x="507"
     inkscape:window-y="211"
     inkscape:window-maximized="0" />
  <metadata
     id="metadata7">
    <rdf:RDF>
      <cc:Work
         rdf:about="">
        <dc:format>image/svg+xml</dc:format>
        <dc:type
           rdf:resource="http://purl.org/dc/dcmitype/StillImage" />
        <dc:title>gearcrate</dc:title>
      </cc:Work>
    </rdf:RDF>
  </metadata>
  <g
     inkscape:label="Layer 1"
     inkscape:groupmode="layer"
     id="layer1"
     transform="translate(0,-924.36218)">
    <path
       inkscape:connector-curvature="0"
       style="fill:#808080;fill-opacity:1;stroke:none"
       d="m 62.5,1067.1097 c -30.35528,0 -60.7154702,0.653 -62.03125015,1.9688 -2.63155005,2.6315 -2.63155005,121.4309 0,124.0624 2.63154995,2.6316 121.43095015,2.6316 124.06250015,0 2.63155,-2.6315 2.63155,-121.4309 0,-124.0624 -1.31578,-1.3158 -31.67597,-1.9688 -62.03125,-1.9688 z m 0,16 c 22.76646,0 45.54442,0.4819 46.53125,1.4688 1.97367,1.9736 1.97367,91.0888 0,93.0624 -1.97367,1.9737 -91.08883,1.9737 -93.0625,0 -1.97367,-1.9736 -1.97367,-91.0888 0,-93.0624 0.98683,-0.9869 23.76479,-1.4688 46.53125,-1.4688 z"
       id="path3759-4" />
    <path
       inkscape:connector-curvature="0"
       style="fill:#808080;fill-opacity:1;stroke:none"
       d="m 203.75,1069.1097 c -30.35528,0 -60.71547,0.653 -62.03125,1.9688 -2.63155,2.6315 -2.63155,121.4309 0,124.0624 2.63155,2.6316 121.43095,2.6316 124.0625,0 2.63155,-2.6315 2.63155,-121.4309 0,-124.0624 -1.31578,-1.3158 -31.67597,-1.9688 -62.03125,-1.9688 z"
       id="path3759-4-4" />
    <g
       id="g5322"
       transform="matrix(0.97714252,0,0,0.97714252,0,20.94094)">
      <path
         inkscape:connector-curvature="0"
         id="path3759-1"
         d="m 61.430558,927.36948 c -28.387102,0.075 -55.2338467,0.7338 -56.4687517,1.9687 -0.92503,0.9251 -1.506543,16.302 -1.78125,35.8438 -0.0672,4.7802 -0.127965,9.7012 -0.15625,14.8438 -0.0026,0.4622 0.0022,0.8785 0,1.3437 -0.160966,33.31152 0.476734,70.57062 1.9375,72.03132 1.459408,1.4595 38.6497497,2.0968 71.9375017,1.9375 0.49751,0 0.94329,0 1.4375,0 5.11995,-0.028 10.0199,-0.089 14.78125,-0.1562 19.571992,-0.2743 34.980222,-0.8552 35.906252,-1.7813 1.2349,-1.2348 1.89285,-28.0798 1.96875,-56.46882 0.003,-1.0967 -0.001,-2.1812 0,-3.2812 0.002,-4.3033 -0.009,-8.6202 -0.0312,-12.875 -0.13599,-26.4528 -0.77575,-50.2758 -1.9375,-51.4376 -1.16176,-1.1617 -24.98599,-1.8024 -51.437502,-1.9375 -3.49746,-0.018 -7.05021,-0.031 -10.59375,-0.031 -1.86575,0 -3.70346,0 -5.5625,0 z m 3.65625,16 c 1.26183,3.6746 2.8208,7.2872 4.65625,10.8437 0.86217,1.6706 1.75813,3.323 2.71875,4.9063 -0.0264,0.014 -0.0646,0.014 -0.0937,0.031 -3.61603,1.7472 -7.19792,3.4791 -9.6875,5.125 -1.24483,0.8229 -2.23492,1.6431 -2.78125,2.4062 -0.27322,0.3815 -0.42225,0.7316 -0.46875,1.0938 -0.0384,0.2993 0.0495,0.5907 0.1875,0.875 0.0549,0.088 0.13204,0.1935 0.1875,0.2812 1.44121,2.278 2.99133,4.4444 4.59375,6.5626 0.0763,0.1008 0.14217,0.2121 0.21875,0.3125 0.21985,0.2328 0.45297,0.4309 0.75,0.5 0.35571,0.083 0.76591,0.061 1.21875,-0.062 0.9057,-0.2459 1.98244,-0.8698 3.1875,-1.75 2.41063,-1.7595 5.28914,-4.5326 8.1875,-7.3126 0.0253,-0.026 0.0377,-0.042 0.0625,-0.062 3.80196,4.8272 8.0758,9.1031 12.75,12.8438 -0.0186,0.011 -0.0147,0.044 -0.0312,0.062 -2.80043,2.8786 -5.56723,5.7581 -7.34375,8.1563 -0.88828,1.199 -1.56006,2.2835 -1.8125,3.1875 -0.1262,0.452 -0.14265,0.8625 -0.0625,1.2187 0.0637,0.2828 0.25717,0.5044 0.46875,0.7188 0.11062,0.086 0.23274,0.1646 0.34375,0.25 2.11336,1.6238 4.27064,3.159 6.5,4.5937 0.12154,0.078 0.25313,0.1411 0.375,0.2188 0.26678,0.1205 0.53146,0.2527 0.8125,0.2187 0.36252,-0.044 0.71027,-0.2296 1.09375,-0.5 0.76687,-0.541 1.57451,-1.4798 2.40625,-2.7187 1.66347,-2.4779 3.44602,-6.0839 5.21875,-9.6875 0.018,-0.037 0.0109,-0.064 0.0312,-0.094 5.115552,3.1532 10.563242,5.727 16.218752,7.6562 -1.9e-4,0.1592 2.4e-4,0.3096 0,0.4688 -1.59949,3.5596 -3.17466,7.09372 -4,9.87502 -0.42457,1.4306 -0.63439,2.6582 -0.5625,3.5938 0.0359,0.4678 0.14646,0.8488 0.34375,1.1562 0.19721,0.3074 0.49182,0.5341 0.875,0.6563 1.06545,0.3401 2.14276,0.6441 3.21875,0.9375 -0.19867,15.1855 -0.63259,27.2576 -1.34375,27.9687 -0.22804,0.2281 -1.65172,0.4497 -3.9375,0.625 -0.13831,-2.1952 -0.34405,-4.3705 -0.625,-6.5312 -0.0163,-0.1254 -0.0457,-0.2499 -0.0625,-0.375 -0.0756,-0.3112 -0.18242,-0.6367 -0.40625,-0.8438 -0.26799,-0.2481 -0.60819,-0.4137 -1.0625,-0.5312 -0.90859,-0.235 -2.1734,-0.23 -3.65625,-0.062 -2.96572,0.334 -6.823802,1.3025 -10.718752,2.2812 -0.0348,0.01 -0.0618,0.024 -0.0937,0.031 -0.91087,-6.0768 -2.51198,-11.9036 -4.71875,-17.4688 0.0216,-2e-4 0.0389,-0.023 0.0625,-0.031 3.85875,-1.1128 7.70619,-2.2346 10.4375,-3.4375 1.365662,-0.6014 2.457862,-1.2149 3.125002,-1.875 0.33357,-0.33 0.58064,-0.6821 0.6875,-1.0313 0.0848,-0.2772 0.015,-0.5841 -0.0625,-0.875 -0.0536,-0.1293 -0.13334,-0.246 -0.1875,-0.375 -1.03118,-2.4577 -2.14936,-4.8679 -3.375002,-7.2188 -0.0668,-0.1282 -0.1201,-0.24722 -0.1875,-0.37502 -0.17199,-0.2369 -0.36403,-0.4841 -0.625,-0.5937 -0.33669,-0.1415 -0.75167,-0.1387 -1.21875,-0.094 -0.93418,0.09 -2.06994,0.4922 -3.40625,1.15622 -2.67264,1.3282 -5.98721,3.592 -9.3125,5.8439 -0.0338,0.023 -0.0612,0.046 -0.0937,0.062 -2.91317,-5.3322 -6.42577,-10.32662 -10.4375,-14.84392 0.0305,-0.021 0.0608,-0.038 0.0937,-0.062 3.2454,-2.3655 6.50107,-4.7167 8.65625,-6.7812 1.07759,-1.0323 1.8801,-1.9953 2.28125,-2.8438 0.20057,-0.4242 0.26902,-0.8228 0.25,-1.1875 -0.019,-0.3647 -0.16522,-0.6726 -0.4375,-0.9687 -1.86449,-2.0279 -3.8426,-3.9815 -5.875,-5.8438 -0.0377,-0.035 -0.0559,-0.091 -0.0937,-0.125 -0.28264,-0.2384 -0.59563,-0.3896 -0.9375,-0.4062 -0.36476,-0.018 -0.76396,0.1104 -1.1875,0.3125 -0.84709,0.404 -1.81514,1.2001 -2.84375,2.2812 -2.0572,2.1622 -4.39543,5.4029 -6.75,8.6563 -0.0239,0.033 -0.0387,0.066 -0.0625,0.094 -4.52432,-3.9947 -9.48366,-7.5042 -14.84375,-10.4063 0.006,-0.012 0.0228,-0.019 0.0312,-0.031 2.2406,-3.3329 4.4934,-6.6979 5.8125,-9.375 0.65955,-1.3386 1.06948,-2.503 1.15625,-3.4375 0.0434,-0.4672 0.0176,-0.8826 -0.125,-1.2188 -0.11352,-0.2676 -0.34615,-0.4205 -0.59375,-0.5937 -0.12409,-0.065 -0.25059,-0.1545 -0.375,-0.2188 -2.34115,-1.2091 -4.73648,-2.3259 -7.1875,-3.3437 -0.1432,-0.059 -0.29394,-0.097 -0.4375,-0.1563 -0.28263,-0.07 -0.57464,-0.1146 -0.84375,-0.031 -0.34886,0.1081 -0.67109,0.3216 -1,0.6563 -0.65782,0.6694 -1.27818,1.7573 -1.875,3.125 -1.19364,2.7354 -2.30641,6.6063 -3.406252,10.4688 -0.007,0.024 -0.025,0.042 -0.0312,0.062 -5.54788,-2.1737 -11.37679,-3.7634 -17.46875,-4.6563 0.008,-0.033 -0.008,-0.061 0,-0.094 0.96556,-3.8982 1.92608,-7.7832 2.25,-10.75 0.16196,-1.4834 0.14432,-2.7172 -0.0937,-3.625 -0.11904,-0.4539 -0.28225,-0.8266 -0.53125,-1.0938 -0.21629,-0.232 -0.51533,-0.3352 -0.84375,-0.4062 -0.10296,-0.013 -0.20943,-0.049 -0.3125,-0.062 -2.04046,-0.2593 -4.08395,-0.4782 -6.15625,-0.625 0.17292,-2.2065 0.37018,-3.5889 0.59375,-3.8125 0.71216,-0.7122 12.81598,-1.1489 28.031252,-1.3438 0.2245,0.8038 0.43823,1.6039 0.6875,2.4063 0.0375,0.1206 0.0871,0.2545 0.125,0.375 0.12713,0.2733 0.25699,0.5291 0.5,0.6875 0.30596,0.1994 0.6887,0.3046 1.15625,0.3437 0.93521,0.079 2.19151,-0.148 3.625,-0.5625 2.43502,-0.7039 5.45677,-1.984 8.5625,-3.3437 0.65636,0 1.27959,-0.031 1.9375,-0.031 z m 17.25,0.094 c 16.67513,0.1711 30.426672,0.6142 31.187502,1.375 0.7613,0.7613 1.20101,14.5289 1.375,31.2188 -12.88823,-5.6935 -23.969922,-15.6551 -30.937502,-29.1563 -0.58452,-1.1326 -1.11448,-2.2867 -1.625,-3.4375 z m -63.281252,37.1875 c 31.474292,2.5551 56.115862,27.68092 58.562502,58.65642 -25.74873,0.1813 -56.012922,-0.2629 -57.156252,-1.4063 -1.14471,-1.1446 -1.58938,-31.4814 -1.40625,-57.25012 z"
         style="fill:#000000;fill-opacity:0.22872338;stroke:none" />
      <path
         inkscape:connector-curvature="0"
         id="path3759"
         d="m 58.430556,924.36959 c -28.387104,0.0754 -55.2338447,0.73384 -56.4687496,1.96875 -0.9250304,0.92503 -1.50654337,16.30199 -1.78125,35.84375 -0.0671969,4.78017 -0.12796566,9.70115 -0.15625,14.84375 -0.0026418,0.46225 0.0022478,0.87857 0,1.34375 -0.16096619,33.31141 0.47673335,70.57051 1.9375,72.03121 1.4594074,1.4595 38.6497506,2.0968 71.9374996,1.9375 0.497514,0 0.943289,0 1.4375,0 5.119946,-0.028 10.019897,-0.089 14.78125,-0.1562 19.571994,-0.2743 34.980224,-0.8552 35.906254,-1.7813 1.2349,-1.2348 1.89285,-28.0798 1.96875,-56.46871 0.003,-1.09669 -0.001,-2.18125 0,-3.28125 0.002,-4.30325 -0.009,-8.62016 -0.0312,-12.875 -0.13599,-26.45276 -0.77575,-50.27575 -1.9375,-51.4375 -1.16176,-1.16176 -24.98599,-1.8024 -51.437504,-1.9375 -3.497464,-0.0178 -7.050208,-0.0312 -10.59375,-0.0312 -1.865745,0 -3.703463,-0.005 -5.5625,0 z m 3.65625,16 c 1.261828,3.6746 2.820805,7.28718 4.65625,10.84375 0.862175,1.6706 1.758127,3.323 2.71875,4.90625 -0.02637,0.014 -0.06456,0.014 -0.09375,0.0312 -3.616034,1.74723 -7.197916,3.47909 -9.6875,5.125 -1.244833,0.82288 -2.234919,1.64312 -2.78125,2.40625 -0.273222,0.38148 -0.422245,0.73153 -0.46875,1.09375 -0.03836,0.29934 0.04946,0.59073 0.1875,0.875 0.05495,0.0881 0.132042,0.19352 0.1875,0.28125 1.441215,2.27789 2.991331,4.44438 4.59375,6.5625 0.07629,0.10085 0.142166,0.21216 0.21875,0.3125 0.219855,0.23286 0.452972,0.43098 0.75,0.5 0.35571,0.0828 0.765912,0.0606 1.21875,-0.0625 0.905704,-0.24587 1.982439,-0.86979 3.1875,-1.75 2.410629,-1.7595 5.28914,-4.53258 8.1875,-7.3125 0.02526,-0.026 0.03768,-0.0415 0.0625,-0.0625 3.801963,4.82711 8.075801,9.103 12.75,12.84375 -0.01858,0.0115 -0.01472,0.0439 -0.03125,0.0625 -2.800428,2.87855 -5.567232,5.75813 -7.34375,8.15625 -0.888275,1.19903 -1.560058,2.28356 -1.8125,3.1875 -0.126199,0.452 -0.142651,0.86255 -0.0625,1.21875 0.06369,0.2828 0.257166,0.50442 0.46875,0.71875 0.110616,0.0856 0.232737,0.16468 0.34375,0.25 2.113361,1.62384 4.270639,3.15904 6.5,4.59375 0.121542,0.0782 0.253134,0.14112 0.375,0.21875 0.266778,0.12055 0.531461,0.25277 0.8125,0.21875 0.362522,-0.0439 0.710271,-0.22957 1.09375,-0.5 0.766867,-0.54104 1.57451,-1.47979 2.40625,-2.71875 1.66347,-2.47789 3.446017,-6.08388 5.21875,-9.6875 0.01799,-0.0368 0.01089,-0.0636 0.03125,-0.0937 5.115554,3.15322 10.563244,5.72699 16.218754,7.65625 -1.9e-4,0.1592 2.4e-4,0.30962 0,0.46875 -1.59949,3.55968 -3.17466,7.09372 -4,9.87496 -0.42457,1.4306 -0.63439,2.6582 -0.5625,3.5938 0.0359,0.4678 0.14646,0.8488 0.34375,1.1562 0.19721,0.3074 0.49182,0.5341 0.875,0.6563 1.06545,0.3401 2.14276,0.6441 3.21875,0.9375 -0.19867,15.1855 -0.63259,27.2576 -1.34375,27.9687 -0.22804,0.2281 -1.65172,0.4497 -3.9375,0.625 -0.13831,-2.1952 -0.34405,-4.3705 -0.625,-6.5312 -0.0163,-0.1254 -0.0457,-0.2499 -0.0625,-0.375 -0.0756,-0.3112 -0.18242,-0.6367 -0.40625,-0.8438 -0.26799,-0.2481 -0.60819,-0.4137 -1.0625,-0.5312 -0.90859,-0.235 -2.1734,-0.23 -3.65625,-0.062 -2.965724,0.334 -6.823807,1.3025 -10.718754,2.2812 -0.03481,0.01 -0.06181,0.024 -0.09375,0.031 -0.910874,-6.0768 -2.511981,-11.9036 -4.71875,-17.4688 0.0216,-2e-4 0.03887,-0.023 0.0625,-0.031 3.858746,-1.1128 7.706193,-2.2346 10.4375,-3.4375 1.365663,-0.6014 2.457864,-1.2149 3.125,-1.875 0.333572,-0.33 0.580644,-0.6821 0.6875,-1.0313 0.08478,-0.2772 0.01504,-0.5841 -0.0625,-0.875 -0.05363,-0.1293 -0.133342,-0.246 -0.1875,-0.375 -1.031176,-2.4577 -2.149358,-4.86781 -3.375,-7.21871 -0.06682,-0.12821 -0.120102,-0.24718 -0.1875,-0.375 -0.171994,-0.23691 -0.364033,-0.48409 -0.625,-0.59375 -0.336688,-0.14148 -0.751665,-0.13871 -1.21875,-0.0937 -0.934181,0.09 -2.069935,0.4922 -3.40625,1.15625 -2.672642,1.3282 -5.987205,3.59191 -9.3125,5.84381 -0.0338,0.023 -0.06119,0.046 -0.09375,0.062 -2.91317,-5.33209 -6.425767,-10.32654 -10.4375,-14.84381 0.03052,-0.0207 0.06076,-0.0385 0.09375,-0.0625 3.2454,-2.36556 6.501074,-4.71673 8.65625,-6.78125 1.077593,-1.03225 1.880099,-1.9953 2.28125,-2.84375 0.200566,-0.42422 0.269023,-0.8228 0.25,-1.1875 -0.01898,-0.3647 -0.165216,-0.67262 -0.4375,-0.96875 -1.864487,-2.02783 -3.842602,-3.98146 -5.875,-5.84375 -0.0377,-0.0346 -0.05595,-0.0906 -0.09375,-0.125 -0.282641,-0.23839 -0.595632,-0.38959 -0.9375,-0.40625 -0.364759,-0.0178 -0.763957,0.11044 -1.1875,0.3125 -0.847086,0.40401 -1.815144,1.20017 -2.84375,2.28125 -2.0572,2.16216 -4.395431,5.40286 -6.75,8.65625 -0.02391,0.0331 -0.03874,0.0656 -0.0625,0.0937 -4.524322,-3.99471 -9.483661,-7.50415 -14.84375,-10.40625 0.0059,-0.0121 0.02276,-0.0186 0.03125,-0.0312 2.240601,-3.3329 4.493402,-6.69788 5.8125,-9.375 0.659554,-1.33856 1.069481,-2.50303 1.15625,-3.4375 0.04342,-0.46723 0.01764,-0.88256 -0.125,-1.21875 -0.11352,-0.26762 -0.346149,-0.42056 -0.59375,-0.59375 -0.12409,-0.0648 -0.250594,-0.15449 -0.375,-0.21875 -2.341151,-1.20919 -4.736484,-2.32591 -7.1875,-3.34375 -0.143204,-0.0595 -0.293942,-0.0975 -0.4375,-0.15625 -0.282631,-0.0698 -0.574637,-0.11468 -0.84375,-0.0312 -0.348856,0.10804 -0.671092,0.32156 -1,0.65625 -0.657817,0.66937 -1.278182,1.75732 -1.875,3.125 -1.193638,2.73537 -2.306408,6.60626 -3.40625,10.46875 -0.0068,0.0239 -0.02499,0.0417 -0.03125,0.0625 -5.547882,-2.17362 -11.376788,-3.76339 -17.46875,-4.65625 0.0081,-0.0326 -0.008,-0.0612 0,-0.0937 0.965563,-3.89824 1.926079,-7.78317 2.25,-10.75 0.16196,-1.48342 0.144325,-2.7172 -0.09375,-3.625 -0.119038,-0.4539 -0.282249,-0.8266 -0.53125,-1.09375 -0.216289,-0.23205 -0.515327,-0.33524 -0.84375,-0.40625 -0.102961,-0.0134 -0.209431,-0.0494 -0.3125,-0.0625 -2.040459,-0.25931 -4.083948,-0.47817 -6.15625,-0.625 0.172918,-2.20652 0.370183,-3.58893 0.59375,-3.8125 0.712157,-0.71215 12.815982,-1.14886 28.03125,-1.34375 0.224498,0.80378 0.438228,1.60389 0.6875,2.40625 0.03755,0.12065 0.08713,0.25454 0.125,0.375 0.127131,0.27334 0.256993,0.52911 0.5,0.6875 0.305962,0.1994 0.6887,0.30456 1.15625,0.34375 0.93521,0.0785 2.191507,-0.148 3.625,-0.5625 2.435022,-0.70395 5.456769,-1.98404 8.5625,-3.34375 0.65636,-0.002 1.279594,-0.0305 1.9375,-0.0312 z m 17.25,0.0937 c 16.67513,0.17111 30.426674,0.61417 31.187504,1.375 0.7613,0.7613 1.20101,14.52887 1.375,31.21875 -12.88823,-5.69345 -23.969925,-15.65507 -30.937504,-29.15625 -0.584523,-1.13264 -1.114477,-2.28674 -1.625,-3.4375 z m -63.28125,37.1875 c 31.474293,2.55505 56.115859,27.68081 58.5625,58.65631 -25.748731,0.1813 -56.012923,-0.2629 -57.15625,-1.4063 -1.144708,-1.1446 -1.589382,-31.4814 -1.40625,-57.25001 z"
         style="fill:url(#linearGradient5327);fill-opacity:1;stroke:none" />
      <path
         transform="translate(-153.79573,-5.3033008)"
         d="m 272.28125,930.21875 c 0.011,0.0391 -0.031,0.17512 0.0937,0.46875 -0.003,-0.019 0.003,-0.0757 0,-0.0937 -0.0458,-0.2895 -0.11434,-0.44855 -0.0937,-0.375 z m -62.84375,1.3125 c -14.1581,0.0376 -27.91838,0.20546 -38.25,0.53125 -5.16581,0.16289 -9.47409,0.36771 -12.46875,0.59375 -0.56818,0.0429 -0.81428,0.0807 -1.28125,0.125 -0.15488,1.68946 -0.33682,3.88988 -0.46875,6.75 -0.2907,6.30191 -0.4881,14.97991 -0.625,24.71875 -0.0671,4.77414 -0.12809,9.69237 -0.15625,14.8125 -0.003,0.40514 0.002,0.82854 0,1.34375 -0.0803,16.61363 0.0236,34.22555 0.34375,47.81255 0.16007,6.7934 0.36994,12.5911 0.625,16.6874 0.0833,1.3376 0.16146,2.1334 0.25,3.0626 0.92742,0.088 1.72724,0.1667 3.0625,0.25 4.0893,0.2548 9.87295,0.4649 16.65625,0.625 13.5666,0.3201 31.14811,0.4231 47.75,0.3437 a 5.142501,5.142501 0 0 1 0.0312,0 l 1.40625,0 c 0.0108,-10e-5 0.0205,10e-5 0.0312,0 5.08541,-0.028 9.97333,-0.089 14.71875,-0.1563 9.75405,-0.1367 18.46751,-0.3343 24.78125,-0.625 2.86548,-0.1319 5.05701,-0.3137 6.75,-0.4687 0.0443,-0.4669 0.0821,-0.7131 0.125,-1.2813 0.226,-2.9945 0.43089,-7.303 0.59375,-12.4687 0.32573,-10.3314 0.49339,-24.0909 0.53125,-38.25 0.003,-1.07491 -0.001,-2.16571 0,-3.28125 0.002,-4.29285 -0.009,-8.59815 -0.0312,-12.84375 -0.0678,-13.19286 -0.24329,-25.74096 -0.5625,-35.0625 -0.15961,-4.66077 -0.34874,-8.52343 -0.5625,-11.1875 -0.0282,-0.35107 -0.0648,-0.47338 -0.0937,-0.78125 -0.30788,-0.029 -0.43017,-0.0656 -0.78125,-0.0937 -2.66416,-0.21382 -6.52668,-0.40284 -11.1875,-0.5625 -9.32165,-0.31932 -21.87037,-0.49512 -35.0625,-0.5625 -3.49293,-0.0178 -7.03197,-0.0312 -10.5625,-0.0312 -1.87494,0 -3.7218,-0.005 -5.5625,0 z M 155.25,933 c -0.24588,0.0414 -0.47177,0.10293 -0.4375,0.0937 0.0222,-0.006 0.14132,0.0274 0.4375,-0.0937 z m 119.4375,0 c 0.29361,0.12478 0.42964,0.0828 0.46875,0.0937 0.0735,0.0206 -0.0855,-0.0479 -0.375,-0.0937 -0.0181,-0.003 -0.0748,0.003 -0.0937,0 z m -61.59375,4.21875 a 5.142501,5.142501 0 0 1 4.875,3.5 c 1.17553,3.42327 2.6149,6.80623 4.34375,10.15625 0.83009,1.60843 1.68941,3.15478 2.5625,4.59375 a 5.142501,5.142501 0 0 1 -0.28125,5.71875 5.142501,5.142501 0 0 1 5.46875,1.75 c 3.55626,4.51516 7.56192,8.52949 11.9375,12.03125 a 5.142501,5.142501 0 0 1 1.71875,5.46875 5.142501,5.142501 0 0 1 -0.0312,0.0625 c 8.8e-4,-0.004 0.0305,-0.0283 0.0312,-0.0312 a 5.142501,5.142501 0 0 1 5.75,-0.25 c 4.79138,2.9534 9.89962,5.3524 15.1875,7.15625 a 5.142501,5.142501 0 0 1 3.5,4.875 c -1.7e-4,0.14608 2.6e-4,0.29547 0,0.46875 a 5.142501,5.142501 0 0 1 -0.46875,2.09375 c -1.56839,3.49046 -3.01477,6.8799 -3.6875,9.0937 0.0758,0.021 0.14255,0.042 0.21875,0.063 a 5.142501,5.142501 0 0 1 3.8125,5.0312 c -0.0997,7.6239 -0.27341,14.4588 -0.5,19.5625 -0.11329,2.5519 -0.2459,4.6743 -0.40625,6.3125 -0.0802,0.8191 -0.15159,1.4968 -0.28125,2.1875 -0.0648,0.3453 -0.13196,0.6932 -0.28125,1.1563 -0.14929,0.463 -0.12173,1.0282 -1.40625,2.3124 -1.65398,1.6552 -2.14626,1.3592 -2.65625,1.5 -0.50999,0.1409 -0.92352,0.21 -1.375,0.2813 -0.90296,0.1426 -1.89863,0.2497 -3.125,0.3437 a 5.142501,5.142501 0 0 1 -5.53125,-4.8124 c -0.0745,-1.1817 -0.22737,-2.3344 -0.34375,-3.5 -2.36863,0.287 -6.0019,1.1674 -9.8125,2.125 0.0176,0 0.2764,-0.053 -0.25,0.062 a 5.142501,5.142501 0 0 1 -6.1875,-4.2812 c -0.85136,-5.6797 -2.33865,-11.0982 -4.40625,-16.3125 a 5.142501,5.142501 0 0 1 1.25,-5.6563 5.142501,5.142501 0 0 1 -5.125,-2.625 c -2.72707,-4.9914 -6.0295,-9.68167 -9.78125,-13.9062 a 5.142501,5.142501 0 0 1 -0.75,-5.6875 5.142501,5.142501 0 0 1 -5.71875,-0.75 c -4.24685,-3.74972 -8.87341,-7.01075 -13.875,-9.71875 a 5.142501,5.142501 0 0 1 -2.65625,-5.125 5.142501,5.142501 0 0 1 -5.65625,1.28125 c -5.20177,-2.03802 -10.65266,-3.50964 -16.34375,-4.34375 a 5.142501,5.142501 0 0 1 -4.34375,-4.46875 5.142501,5.142501 0 0 1 0.0937,-1.8125 c 0.0143,-0.0698 -0.0179,-0.0523 0,-0.125 a 5.142501,5.142501 0 0 1 0,-0.0312 c 0.94739,-3.82488 1.81771,-7.5081 2.09375,-9.875 -1.05037,-0.11027 -2.10849,-0.23826 -3.15625,-0.3125 A 5.142501,5.142501 0 0 1 162.75,947.25 c 0.0918,-1.1717 0.17939,-2.15709 0.3125,-3.03125 0.0666,-0.43708 0.14488,-0.83719 0.28125,-1.34375 0.13637,-0.50656 -0.16207,-0.99418 1.5,-2.65625 1.2855,-1.2855 1.84932,-1.25701 2.3125,-1.40625 0.46318,-0.14924 0.81051,-0.21637 1.15625,-0.28125 0.69147,-0.12976 1.36661,-0.20091 2.1875,-0.28125 1.64177,-0.16069 3.75464,-0.29278 6.3125,-0.40625 5.11573,-0.22694 11.98564,-0.40215 19.625,-0.5 a 5.142501,5.142501 0 0 1 4.90625,3.40625 c 1.92796,-0.57376 4.75164,-1.7498 7.75,-3.0625 A 5.142501,5.142501 0 0 1 211.125,937.25 c 0.51717,-0.002 1.16554,-0.0304 1.96875,-0.0312 z m 17.3125,0.0937 c 8.3686,0.0859 16.0075,0.26895 21.71875,0.5 2.85562,0.11553 5.21329,0.24034 7.03125,0.40625 0.90898,0.083 1.67097,0.15102 2.40625,0.28125 0.36764,0.0651 0.71254,0.13518 1.1875,0.28125 0.47496,0.14607 1.0337,0.0649 2.40625,1.4375 1.37369,1.37369 1.2915,1.93107 1.4375,2.40625 0.146,0.47518 0.2162,0.81963 0.28125,1.1875 0.13011,0.73574 0.19842,1.49645 0.28125,2.40625 0.16566,1.81959 0.29095,4.20411 0.40625,7.0625 0.23061,5.71678 0.41269,13.3434 0.5,21.71875 a 5.142501,5.142501 0 0 1 -7.21875,4.78125 c -13.91956,-6.14905 -25.92366,-16.97157 -33.4375,-31.53125 -0.65649,-1.27208 -1.22136,-2.4959 -1.75,-3.6875 a 5.142501,5.142501 0 0 1 4.75,-7.25 z M 199.125,960.75 c -0.79223,1.86465 -1.747,4.95653 -2.65625,8.09375 1.81182,-2.72187 3.58744,-5.44466 4.5,-7.25 -0.61075,-0.29268 -1.22572,-0.56454 -1.84375,-0.84375 z m 22.125,2.75 c -2.92904,1.43047 -5.80679,2.87127 -7.5,3.96875 0.39235,0.57147 0.77933,1.15253 1.1875,1.71875 1.61112,-1.19971 3.94501,-3.43325 6.3125,-5.6875 z m -54.5,11.03125 a 5.142501,5.142501 0 0 1 0.71875,0 c 33.96827,2.75751 60.6384,29.91535 63.28125,63.37495 a 5.142501,5.142501 0 0 1 -5.09375,5.5626 c -12.91811,0.091 -26.93762,0.014 -37.9375,-0.2188 -5.49994,-0.1164 -10.23074,-0.2622 -13.75,-0.4688 -1.75963,-0.1032 -3.22008,-0.2293 -4.40625,-0.375 -0.59308,-0.073 -1.10504,-0.1489 -1.6875,-0.2812 -0.58246,-0.1323 -0.98427,0.4536 -3.03125,-1.5938 -2.04987,-2.0496 -1.46153,-2.4483 -1.59375,-3.0312 -0.13222,-0.5829 -0.20839,-1.0934 -0.28125,-1.6875 -0.14573,-1.1881 -0.27162,-2.643 -0.375,-4.4063 -0.20676,-3.5264 -0.3523,-8.2709 -0.46875,-13.7812 -0.23289,-11.0206 -0.31063,-25.07176 -0.21875,-38 a 5.142501,5.142501 0 0 1 4.84375,-5.09375 z m 58.40625,3.875 c -1.39481,1.48919 -3.34622,4.14619 -5.3125,6.84375 2.68858,-1.97118 5.33356,-3.92327 6.8125,-5.3125 -0.50119,-0.50904 -0.98503,-1.03196 -1.5,-1.53125 z m 18.25,2.78125 a 5.142501,5.142501 0 0 1 -0.21875,0.40625 c 0.11344,-0.19432 0.15502,-0.24768 0.21875,-0.40625 z m -2.03125,2.59375 c -2.24663,2.3355 -4.46249,4.65786 -5.6875,6.28125 0.55782,0.4046 1.12364,0.79787 1.6875,1.1875 1.10734,-1.68768 2.55303,-4.56155 4,-7.46875 z m 2.15625,20.24995 c -1.79851,0.9202 -4.4879,2.7253 -7.21875,4.5626 3.12722,-0.9176 6.22137,-1.8562 8.09375,-2.6563 -0.28882,-0.6378 -0.57304,-1.2785 -0.875,-1.9063 z m -9.15625,5.2188 c -0.35663,0.1435 -0.53362,0.2359 -0.6875,0.3438 a 5.142501,5.142501 0 0 1 0.6875,-0.3438 z M 155,1047.5312 c -0.22648,-0.053 -0.18866,0.1174 -0.15625,0.125 0.028,0.01 0.27834,0.04 0.40625,0.063 -0.0468,-0.02 -0.21507,-0.1794 -0.25,-0.1876 z m 2.65625,2.5938 c 0.0222,0.1283 0.0558,0.3779 0.0625,0.4062 0.009,0.038 0.0899,-0.056 -0.0625,-0.4062 z m 114.71875,0 c -0.12114,0.2962 -0.0878,0.4153 -0.0937,0.4375 -0.009,0.034 0.0524,-0.1917 0.0937,-0.4375 z"
         id="path5253"
         style="fill:url(#linearGradient5329);fill-opacity:1;stroke:none"
         inkscape:original="M 209.4375 926.375 C 181.05039 926.4504 154.20365 927.10884 152.96875 928.34375 C 152.04372 929.26878 151.4622 944.64574 151.1875 964.1875 C 151.1203 968.96767 151.05953 973.88865 151.03125 979.03125 C 151.02825 979.4935 151.03325 979.90982 151.03125 980.375 C 150.87028 1013.6864 151.50798 1050.9456 152.96875 1052.4062 C 154.42816 1053.8657 191.6185 1054.5031 224.90625 1054.3438 L 226.34375 1054.3438 C 231.46369 1054.3157 236.36364 1054.2547 241.125 1054.1875 C 260.69699 1053.9132 276.10522 1053.3324 277.03125 1052.4062 C 278.26615 1051.1715 278.9241 1024.3264 279 995.9375 C 279.003 994.84081 278.999 993.75625 279 992.65625 C 279.002 988.353 278.99095 984.03609 278.96875 979.78125 C 278.83276 953.32849 278.193 929.5055 277.03125 928.34375 C 275.86949 927.18199 252.04526 926.54135 225.59375 926.40625 C 222.09628 926.38845 218.54354 926.375 215 926.375 C 213.13425 926.375 211.29653 926.37 209.4375 926.375 z M 213.09375 942.375 C 214.35558 946.0496 215.91455 949.66218 217.75 953.21875 C 218.61217 954.88935 219.50812 956.54175 220.46875 958.125 C 220.44235 958.139 220.4041 958.13905 220.375 958.15625 C 216.75896 959.90348 213.17708 961.63534 210.6875 963.28125 C 209.44266 964.10413 208.45258 964.92437 207.90625 965.6875 C 207.63303 966.06898 207.484 966.41903 207.4375 966.78125 C 207.3991 967.08059 207.487 967.37198 207.625 967.65625 C 207.6799 967.74435 207.75704 967.84977 207.8125 967.9375 C 209.25371 970.21539 210.80383 972.38188 212.40625 974.5 C 212.48255 974.60085 212.54841 974.71216 212.625 974.8125 C 212.84485 975.04536 213.07797 975.24348 213.375 975.3125 C 213.73071 975.3953 214.14091 975.3731 214.59375 975.25 C 215.49945 975.00413 216.57619 974.38021 217.78125 973.5 C 220.19188 971.7405 223.07039 968.96742 225.96875 966.1875 C 225.99405 966.1615 226.00645 966.146 226.03125 966.125 C 229.83321 970.95211 234.10705 975.228 238.78125 978.96875 C 238.76265 978.98025 238.7665 979.01265 238.75 979.03125 C 235.94957 981.9098 233.18277 984.78938 231.40625 987.1875 C 230.51797 988.38653 229.84619 989.47106 229.59375 990.375 C 229.46755 990.827 229.4511 991.23755 229.53125 991.59375 C 229.59495 991.87655 229.78841 992.09817 230 992.3125 C 230.11061 992.3981 230.23273 992.47718 230.34375 992.5625 C 232.45711 994.18634 234.61439 995.72154 236.84375 997.15625 C 236.96529 997.23445 237.09688 997.29737 237.21875 997.375 C 237.48553 997.49555 237.75021 997.62777 238.03125 997.59375 C 238.39377 997.54985 238.74152 997.36418 239.125 997.09375 C 239.89186 996.55271 240.69951 995.61396 241.53125 994.375 C 243.19472 991.89711 244.97726 988.29112 246.75 984.6875 C 246.768 984.6507 246.76095 984.62385 246.78125 984.59375 C 251.8968 987.74697 257.34449 990.32074 263 992.25 C 262.99981 992.4092 263.00024 992.55962 263 992.71875 C 261.40051 996.27843 259.82534 999.81248 259 1002.5938 C 258.57543 1004.0244 258.36561 1005.2519 258.4375 1006.1875 C 258.4734 1006.6553 258.58396 1007.0363 258.78125 1007.3438 C 258.97846 1007.6512 259.27307 1007.8778 259.65625 1008 C 260.7217 1008.3401 261.79901 1008.6441 262.875 1008.9375 C 262.67633 1024.123 262.24241 1036.1952 261.53125 1036.9062 C 261.30321 1037.1344 259.87953 1037.3559 257.59375 1037.5312 C 257.45544 1035.3361 257.2497 1033.1607 256.96875 1031 C 256.95245 1030.8746 256.92305 1030.7501 256.90625 1030.625 C 256.83065 1030.3138 256.72383 1029.9884 256.5 1029.7812 C 256.23201 1029.5331 255.89181 1029.3675 255.4375 1029.25 C 254.52891 1029.015 253.2641 1029.0195 251.78125 1029.1875 C 248.81553 1029.5215 244.95744 1030.4901 241.0625 1031.4688 C 241.0277 1031.4787 241.00065 1031.493 240.96875 1031.5 C 240.05787 1025.4232 238.45677 1019.5965 236.25 1014.0312 C 236.2716 1014.0311 236.2889 1014.008 236.3125 1014 C 240.17124 1012.8872 244.01869 1011.7654 246.75 1010.5625 C 248.11566 1009.9611 249.20786 1009.3476 249.875 1008.6875 C 250.20857 1008.3575 250.45564 1008.0054 250.5625 1007.6562 C 250.6473 1007.3791 250.5775 1007.0721 250.5 1006.7812 C 250.4464 1006.652 250.36666 1006.5353 250.3125 1006.4062 C 249.28132 1003.9485 248.16314 1001.5384 246.9375 999.1875 C 246.8707 999.05929 246.8174 998.94032 246.75 998.8125 C 246.578 998.57559 246.38596 998.32841 246.125 998.21875 C 245.78831 998.07727 245.37333 998.07999 244.90625 998.125 C 243.97207 998.215 242.83631 998.6172 241.5 999.28125 C 238.82736 1000.6095 235.51279 1002.8731 232.1875 1005.125 C 232.1537 1005.148 232.12625 1005.1715 232.09375 1005.1875 C 229.18058 999.85538 225.66798 994.86102 221.65625 990.34375 C 221.68675 990.32305 221.7171 990.30525 221.75 990.28125 C 224.9954 987.91569 228.25107 985.56452 230.40625 983.5 C 231.48384 982.46775 232.28635 981.5047 232.6875 980.65625 C 232.88806 980.23203 232.95652 979.83345 232.9375 979.46875 C 232.9185 979.10405 232.77228 978.79613 232.5 978.5 C 230.63551 976.47217 228.6574 974.51854 226.625 972.65625 C 226.5873 972.62165 226.56905 972.56565 226.53125 972.53125 C 226.24861 972.29286 225.93562 972.14166 225.59375 972.125 C 225.22899 972.1072 224.82979 972.23544 224.40625 972.4375 C 223.55916 972.84151 222.5911 973.63767 221.5625 974.71875 C 219.5053 976.88091 217.16707 980.12161 214.8125 983.375 C 214.7886 983.4081 214.7738 983.44065 214.75 983.46875 C 210.22568 979.47404 205.26634 975.9646 199.90625 973.0625 C 199.91225 973.0504 199.9291 973.04385 199.9375 973.03125 C 202.1781 969.69835 204.4309 966.33337 205.75 963.65625 C 206.40955 962.31769 206.81948 961.15322 206.90625 960.21875 C 206.94965 959.75152 206.92385 959.33619 206.78125 959 C 206.66773 958.73238 206.4351 958.57944 206.1875 958.40625 C 206.06341 958.34145 205.9369 958.25176 205.8125 958.1875 C 203.47135 956.97831 201.07601 955.86159 198.625 954.84375 C 198.48179 954.78425 198.33106 954.74625 198.1875 954.6875 C 197.90487 954.6177 197.61286 954.57277 197.34375 954.65625 C 196.99489 954.76429 196.67266 954.97781 196.34375 955.3125 C 195.68593 955.98187 195.06557 957.06982 194.46875 958.4375 C 193.27511 961.17287 192.16234 965.04376 191.0625 968.90625 C 191.0555 968.93015 191.03745 968.94795 191.03125 968.96875 C 185.48337 966.79513 179.65446 965.20536 173.5625 964.3125 C 173.5705 964.2799 173.5545 964.25125 173.5625 964.21875 C 174.52806 960.32051 175.48858 956.43558 175.8125 953.46875 C 175.97446 951.98533 175.95677 950.75155 175.71875 949.84375 C 175.59971 949.38985 175.4365 949.01715 175.1875 948.75 C 174.97121 948.51795 174.67217 948.41476 174.34375 948.34375 C 174.24079 948.33035 174.13432 948.29435 174.03125 948.28125 C 171.99079 948.02194 169.9473 947.80308 167.875 947.65625 C 168.04792 945.44973 168.24518 944.06732 168.46875 943.84375 C 169.1809 943.1316 181.28473 942.69489 196.5 942.5 C 196.7245 943.30378 196.93823 944.10389 197.1875 944.90625 C 197.2251 945.0269 197.2746 945.16079 197.3125 945.28125 C 197.43963 945.55459 197.56949 945.81036 197.8125 945.96875 C 198.11846 946.16815 198.5012 946.27331 198.96875 946.3125 C 199.90396 946.391 201.16025 946.1645 202.59375 945.75 C 205.02877 945.04605 208.05052 943.76596 211.15625 942.40625 C 211.81261 942.40425 212.43584 942.3757 213.09375 942.375 z M 230.34375 942.46875 C 247.01888 942.63986 260.77042 943.08292 261.53125 943.84375 C 262.29255 944.60505 262.73226 958.37262 262.90625 975.0625 C 250.01802 969.36905 238.93633 959.40743 231.96875 945.90625 C 231.38422 944.77361 230.85427 943.61951 230.34375 942.46875 z M 167.0625 979.65625 C 198.53679 982.2113 223.17836 1007.337 225.625 1038.3125 C 199.87627 1038.4938 169.61207 1038.0497 168.46875 1036.9062 C 167.32404 1035.7616 166.87937 1005.4249 167.0625 979.65625 z "
         inkscape:radius="-5.1419868"
         sodipodi:type="inkscape:offset" />
    </g>
    <path
       style="fill:url(#linearGradient5303);fill-opacity:1;stroke:none"
       d="m 198.43346,923.36696 c -28.38711,0.0754 -55.23385,0.73384 -56.46875,1.96875 -0.92503,0.92503 -1.50655,16.30199 -1.78125,35.84375 -0.0672,4.78017 -0.12797,9.70115 -0.15625,14.84375 -0.003,0.46225 0.002,0.87857 0,1.34375 -0.16097,33.31144 0.47673,70.57054 1.9375,72.03124 1.45941,1.4595 38.64975,2.0968 71.9375,1.9375 0.49751,0 0.94329,0 1.4375,0 5.11994,-0.028 10.01989,-0.089 14.78125,-0.1562 19.57199,-0.2743 34.98022,-0.8552 35.90625,-1.7813 1.2349,-1.2348 1.89285,-28.0798 1.96875,-56.46874 0.003,-1.09669 -0.001,-2.18125 0,-3.28125 0.002,-4.30325 -0.009,-8.62016 -0.0312,-12.875 -0.13599,-26.45276 -0.77575,-50.27575 -1.9375,-51.4375 -1.16176,-1.16176 -24.98599,-1.8024 -51.4375,-1.9375 -3.49747,-0.0178 -7.05021,-0.0312 -10.59375,-0.0312 -1.86575,0 -3.70347,-0.005 -5.5625,0 z m 3.65625,16 c 1.26183,3.6746 2.8208,7.28718 4.65625,10.84375 0.86217,1.6706 1.75812,3.323 2.71875,4.90625 -0.0264,0.014 -0.0646,0.014 -0.0937,0.0312 -3.61604,1.74723 -7.19792,3.47909 -9.6875,5.125 -1.24484,0.82288 -2.23492,1.64312 -2.78125,2.40625 -0.27322,0.38148 -0.42225,0.73153 -0.46875,1.09375 -0.0384,0.29934 0.0495,0.59073 0.1875,0.875 0.0549,0.0881 0.13204,0.19352 0.1875,0.28125 1.44121,2.27789 2.99133,4.44438 4.59375,6.5625 0.0763,0.10085 0.14216,0.21216 0.21875,0.3125 0.21985,0.23286 0.45297,0.43098 0.75,0.5 0.35571,0.0828 0.76591,0.0606 1.21875,-0.0625 0.9057,-0.24587 1.98244,-0.86979 3.1875,-1.75 2.41063,-1.7595 5.28914,-4.53258 8.1875,-7.3125 0.0253,-0.026 0.0377,-0.0415 0.0625,-0.0625 3.80196,4.82711 8.0758,9.103 12.75,12.84375 -0.0186,0.0115 -0.0147,0.0439 -0.0312,0.0625 -2.80043,2.87855 -5.56723,5.75813 -7.34375,8.15625 -0.88828,1.19903 -1.56006,2.28356 -1.8125,3.1875 -0.1262,0.452 -0.14265,0.86255 -0.0625,1.21875 0.0637,0.2828 0.25716,0.50442 0.46875,0.71875 0.11061,0.0856 0.23273,0.16468 0.34375,0.25 2.11336,1.62384 4.27064,3.15904 6.5,4.59375 0.12154,0.0782 0.25313,0.14112 0.375,0.21875 0.26678,0.12055 0.53146,0.25277 0.8125,0.21875 0.36252,-0.0439 0.71027,-0.22957 1.09375,-0.5 0.76686,-0.54104 1.57451,-1.47979 2.40625,-2.71875 1.66347,-2.47789 3.44601,-6.08388 5.21875,-9.6875 0.018,-0.0368 0.0109,-0.0636 0.0312,-0.0937 5.11555,3.15322 10.56324,5.72699 16.21875,7.65625 -1.9e-4,0.1592 2.4e-4,0.30962 0,0.46875 -1.59949,3.55968 -3.17466,7.09372 -4,9.875 -0.42457,1.43059 -0.63439,2.65819 -0.5625,3.59379 0.0359,0.4678 0.14646,0.8488 0.34375,1.1562 0.19721,0.3074 0.49182,0.5341 0.875,0.6563 1.06545,0.3401 2.14276,0.6441 3.21875,0.9375 -0.19867,15.1855 -0.63259,27.2576 -1.34375,27.9687 -0.22804,0.2281 -1.65172,0.4497 -3.9375,0.625 -0.13831,-2.1952 -0.34405,-4.3705 -0.625,-6.5312 -0.0163,-0.1254 -0.0457,-0.2499 -0.0625,-0.375 -0.0756,-0.3112 -0.18242,-0.6367 -0.40625,-0.8438 -0.26799,-0.2481 -0.60819,-0.4137 -1.0625,-0.5312 -0.90859,-0.235 -2.1734,-0.23 -3.65625,-0.062 -2.96572,0.334 -6.82381,1.3025 -10.71875,2.2812 -0.0348,0.01 -0.0618,0.024 -0.0937,0.031 -0.91088,-6.0768 -2.51198,-11.9036 -4.71875,-17.4688 0.0216,-2e-4 0.0389,-0.023 0.0625,-0.031 3.85874,-1.1128 7.70619,-2.2346 10.4375,-3.4375 1.36566,-0.6014 2.45786,-1.2149 3.125,-1.875 0.33357,-0.33 0.58064,-0.6821 0.6875,-1.0313 0.0848,-0.2772 0.015,-0.5841 -0.0625,-0.875 -0.0536,-0.1293 -0.13334,-0.246 -0.1875,-0.375 -1.03118,-2.4577 -2.14936,-4.86784 -3.375,-7.21874 -0.0668,-0.12821 -0.1201,-0.24718 -0.1875,-0.375 -0.172,-0.23691 -0.36404,-0.48409 -0.625,-0.59375 -0.33669,-0.14148 -0.75167,-0.13871 -1.21875,-0.0937 -0.93418,0.09 -2.06994,0.4922 -3.40625,1.15625 -2.67264,1.3282 -5.98721,3.59195 -9.3125,5.84384 -0.0338,0.023 -0.0612,0.046 -0.0937,0.062 -2.91317,-5.33212 -6.42577,-10.32657 -10.4375,-14.84384 0.0305,-0.0207 0.0608,-0.0385 0.0937,-0.0625 3.2454,-2.36556 6.50107,-4.71673 8.65625,-6.78125 1.07759,-1.03225 1.8801,-1.9953 2.28125,-2.84375 0.20056,-0.42422 0.26902,-0.8228 0.25,-1.1875 -0.019,-0.3647 -0.16522,-0.67262 -0.4375,-0.96875 -1.86449,-2.02783 -3.8426,-3.98146 -5.875,-5.84375 -0.0377,-0.0346 -0.056,-0.0906 -0.0937,-0.125 -0.28264,-0.23839 -0.59563,-0.38959 -0.9375,-0.40625 -0.36476,-0.0178 -0.76396,0.11044 -1.1875,0.3125 -0.84709,0.40401 -1.81515,1.20017 -2.84375,2.28125 -2.0572,2.16216 -4.39543,5.40286 -6.75,8.65625 -0.0239,0.0331 -0.0387,0.0656 -0.0625,0.0937 -4.52432,-3.99471 -9.48366,-7.50415 -14.84375,-10.40625 0.006,-0.0121 0.0228,-0.0186 0.0312,-0.0312 2.2406,-3.3329 4.4934,-6.69788 5.8125,-9.375 0.65955,-1.33856 1.06948,-2.50303 1.15625,-3.4375 0.0434,-0.46723 0.0176,-0.88256 -0.125,-1.21875 -0.11352,-0.26762 -0.34615,-0.42056 -0.59375,-0.59375 -0.12409,-0.0648 -0.2506,-0.15449 -0.375,-0.21875 -2.34115,-1.20919 -4.73649,-2.32591 -7.1875,-3.34375 -0.14321,-0.0595 -0.29394,-0.0975 -0.4375,-0.15625 -0.28263,-0.0698 -0.57464,-0.11468 -0.84375,-0.0312 -0.34886,0.10804 -0.67109,0.32156 -1,0.65625 -0.65782,0.66937 -1.27818,1.75732 -1.875,3.125 -1.19364,2.73537 -2.30641,6.60626 -3.40625,10.46875 -0.007,0.0239 -0.025,0.0417 -0.0312,0.0625 -5.54788,-2.17362 -11.37679,-3.76339 -17.46875,-4.65625 0.008,-0.0326 -0.008,-0.0612 0,-0.0937 0.96556,-3.89824 1.92608,-7.78317 2.25,-10.75 0.16196,-1.48342 0.14432,-2.7172 -0.0937,-3.625 -0.11904,-0.4539 -0.28225,-0.8266 -0.53125,-1.09375 -0.21629,-0.23205 -0.51533,-0.33524 -0.84375,-0.40625 -0.10296,-0.0134 -0.20943,-0.0494 -0.3125,-0.0625 -2.04046,-0.25931 -4.08395,-0.47817 -6.15625,-0.625 0.17292,-2.20652 0.37018,-3.58893 0.59375,-3.8125 0.71215,-0.71215 12.81598,-1.14886 28.03125,-1.34375 0.2245,0.80378 0.43823,1.60389 0.6875,2.40625 0.0375,0.12065 0.0871,0.25454 0.125,0.375 0.12713,0.27334 0.25699,0.52911 0.5,0.6875 0.30596,0.1994 0.6887,0.30456 1.15625,0.34375 0.93521,0.0785 2.1915,-0.148 3.625,-0.5625 2.43502,-0.70395 5.45677,-1.98404 8.5625,-3.34375 0.65636,-0.002 1.27959,-0.0305 1.9375,-0.0312 z m 17.25,0.0937 c 16.67513,0.17111 30.42667,0.61417 31.1875,1.375 0.7613,0.7613 1.20101,14.52887 1.375,31.21875 -12.88823,-5.69345 -23.96992,-15.65507 -30.9375,-29.15625 -0.58453,-1.13264 -1.11448,-2.28674 -1.625,-3.4375 z m -63.28125,37.1875 c 31.47429,2.55505 56.11586,27.68084 58.5625,58.65634 -25.74873,0.1813 -56.01293,-0.2629 -57.15625,-1.4063 -1.14471,-1.1446 -1.58938,-31.4814 -1.40625,-57.25004 z"
       id="path3759-7"
       inkscape:connector-curvature="0" />
    <path
       style="fill:#808080;fill-opacity:1;fill-rule:nonzero;stroke:none"
       d="m 342.97392,965.05002 c -0.35751,0.18445 -0.61551,0.44249 -0.75877,0.77839 -0.14323,0.33594 -0.18052,0.76441 -0.138,1.23172 0.085,0.93462 0.51892,2.0974 1.17602,3.43719 1.31413,2.67955 3.54567,6.02328 5.78008,9.36033 0.0182,0.0287 0.0292,0.0556 0.0426,0.0833 -5.43696,2.92587 -10.40503,6.39876 -14.86515,10.30894 -0.0205,-0.0239 -0.0499,-0.0402 -0.0708,-0.0689 -2.34853,-3.25775 -4.66838,-6.4975 -6.72159,-8.66348 -1.02659,-1.08295 -1.99231,-1.89224 -2.83863,-2.29781 -0.42317,-0.20279 -0.84094,-0.30919 -1.20573,-0.29207 -0.28997,0.0135 -0.53042,0.15974 -0.77845,0.3314 -0.10467,0.0947 -0.1995,0.20231 -0.30368,0.29737 -1.96257,1.79166 -3.8414,3.6482 -5.63118,5.57871 -0.10545,0.11381 -0.21227,0.22526 -0.31712,0.33948 -0.16324,0.24068 -0.29659,0.4777 -0.31177,0.75872 -0.0197,0.36467 0.0671,0.77398 0.26689,1.1986 0.39948,0.84921 1.1968,1.80189 2.27248,2.83615 2.15135,2.0685 5.39945,4.42247 8.64046,6.79404 0.0288,0.021 0.0478,0.047 0.0708,0.069 -4.06114,4.5597 -7.59048,9.5138 -10.47511,14.7952 -0.0209,-0.014 -0.0356,-0.027 -0.0564,-0.041 -3.32111,-2.258 -6.62873,-4.4881 -9.2989,-5.8212 -1.33509,-0.6666 -2.50576,-1.1223 -3.43977,-1.214 -0.467,-0.046 -0.89118,10e-5 -1.22814,0.1415 -0.29661,0.1242 -0.49495,0.3759 -0.67634,0.6655 -0.0418,0.08 -0.0811,0.1594 -0.12273,0.2392 -1.26457,2.4225 -2.45955,4.8528 -3.51182,7.3686 -0.0198,0.047 -0.006,0.1068 -0.026,0.154 -0.1178,0.3351 -0.16814,0.6341 -0.0717,0.9514 0.10619,0.3494 0.33704,0.695 0.67001,1.0257 0.66591,0.6613 1.73479,1.3131 3.09933,1.9171 2.72909,1.2079 6.59969,2.3104 10.45637,3.4304 0.0309,0.01 0.0575,0.018 0.0842,0.027 -2.23899,5.6312 -3.83028,11.5026 -4.75203,17.5035 -0.0277,0 -0.0534,-0.019 -0.0842,-0.027 -3.89313,-0.986 -7.79859,-1.9829 -10.76368,-2.3224 -1.48254,-0.1697 -2.72428,-0.1868 -3.63331,0.046 -0.45439,0.1172 -0.81456,0.3114 -1.08303,0.559 -0.22942,0.2117 -0.34861,0.4951 -0.42285,0.816 -0.0122,0.089 -0.0265,0.1769 -0.0385,0.2661 -0.35651,2.6437 -0.55915,5.3157 -0.69459,7.9895 -0.007,0.1443 -0.0158,0.2891 -0.0224,0.4335 0.0255,0.3014 0.0456,0.6031 0.2203,0.8358 0.21929,0.292 0.54772,0.5315 0.97368,0.7283 0.85194,0.3937 2.08445,0.6222 3.57327,0.7231 2.97764,0.2017 7.00209,-0.07 11.00925,-0.3363 0.0251,-9e-4 0.048,0 0.0699,-7e-4 -0.18435,6.0039 0.31197,12.0582 1.51662,18.0663 -0.0184,0.012 -0.0453,0 -0.0699,6e-4 -3.99555,0.4051 -7.99402,0.8138 -10.89641,1.509 -1.45115,0.3476 -2.63317,0.7713 -3.40763,1.3014 -0.38743,0.2647 -0.68793,0.5391 -0.85547,0.8636 -0.13275,0.2569 -0.11094,0.5542 -0.0869,0.8537 0.0297,0.1378 0.0447,0.2804 0.0752,0.4183 0.57181,2.589 1.25932,5.1681 2.05545,7.7307 0.0376,0.1206 0.0785,0.2414 0.11638,0.3618 0.12713,0.2734 0.25505,0.5342 0.49806,0.6926 0.30596,0.1994 0.69695,0.3093 1.1645,0.3485 0.93521,0.078 2.17926,-0.1488 3.61275,-0.5633 2.86705,-0.8288 6.53247,-2.4507 10.20674,-4.0718 0.019,-0.012 0.0377,-0.022 0.0538,-0.032 1.30156,3.9223 2.93109,7.792 4.886,11.58 0.86217,1.6706 1.77131,3.3017 2.73193,4.8849 -0.0264,0.014 -0.0517,0.03 -0.0809,0.047 -3.61603,1.7472 -7.21469,3.4677 -9.70427,5.1137 -1.24484,0.8228 -2.21816,1.6482 -2.76449,2.4113 -0.27322,0.3815 -0.44267,0.7342 -0.48917,1.0964 -0.0384,0.2994 0.0688,0.5936 0.20687,0.8778 0.055,0.088 0.11564,0.1757 0.1711,0.2635 1.44122,2.2779 2.98189,4.4481 4.58431,6.5662 0.0763,0.1009 0.15092,0.2043 0.2275,0.3046 0.21986,0.2329 0.46435,0.4524 0.76138,0.5214 0.35571,0.083 0.74846,0.066 1.2013,-0.057 0.90571,-0.2459 2.00072,-0.8804 3.20578,-1.7606 2.41063,-1.7595 5.28235,-4.5364 8.18071,-7.3164 0.0253,-0.026 0.0443,-0.049 0.0691,-0.07 3.80196,4.8272 8.08294,9.1224 12.75714,12.8631 -0.0186,0.012 -0.0244,0.038 -0.041,0.057 -2.80043,2.8786 -5.58275,5.7604 -7.35927,8.1585 -0.88827,1.199 -1.55183,2.2778 -1.80427,3.1817 -0.1262,0.452 -0.14831,0.8746 -0.0682,1.2308 0.0637,0.2828 0.25876,0.4926 0.47034,0.7069 0.11062,0.086 0.22762,0.162 0.33864,0.2473 2.11336,1.6239 4.28628,3.1501 6.51564,4.5848 0.12154,0.078 0.24453,0.1553 0.3664,0.2329 0.26678,0.1206 0.53237,0.2474 0.81341,0.2133 0.36253,-0.044 0.72818,-0.233 1.11166,-0.5034 0.76687,-0.541 1.56553,-1.4751 2.39727,-2.7141 1.66347,-2.4779 3.42865,-6.0787 5.20138,-9.6823 0.018,-0.037 0.0341,-0.069 0.0544,-0.099 5.17225,3.1882 10.67239,5.779 16.39524,7.7152 -0.0166,0.032 -0.0382,0.061 -0.0543,0.099 -1.64711,3.6627 -3.28365,7.3246 -4.13273,10.1859 -0.42457,1.4306 -0.64093,2.6636 -0.56904,3.5992 0.0359,0.4678 0.1529,0.8481 0.35019,1.1555 0.19721,0.3074 0.47763,0.5237 0.86081,0.6459 2.62429,0.8378 5.30578,1.5235 7.99394,2.1342 0.05,0.013 0.0906,0.057 0.14061,0.067 0.36362,0.067 0.72769,0.045 1.0329,-0.1106 0.32575,-0.1652 0.60201,-0.4505 0.86985,-0.8358 0.53563,-0.7707 0.98237,-1.9509 1.34021,-3.3996 0.71572,-2.8972 1.13302,-6.8732 1.56634,-10.8659 0.006,-0.041 0.006,-0.075 0.0126,-0.1119 5.90913,1.2282 11.97146,1.8189 18.06523,1.684 9.3e-4,0.013 -0.0125,0.027 -0.0132,0.042 -0.2949,4.0052 -0.58504,8.0258 -0.40444,11.0049 0.0903,1.4892 0.30104,2.7284 0.68871,3.5831 0.19378,0.4273 0.42079,0.7478 0.71114,0.9692 0.23125,0.1763 0.52683,0.2133 0.82772,0.241 0.14008,-0.012 0.27916,0 0.41926,0 2.63273,-0.1091 5.25499,-0.3295 7.88833,-0.6598 0.15419,-0.017 0.30691,-0.039 0.46089,-0.059 0.2791,-0.083 0.55732,-0.1814 0.75022,-0.3861 0.2495,-0.2667 0.43916,-0.6436 0.55901,-1.0973 0.23974,-0.9074 0.22474,-2.1372 0.0656,-3.6208 -0.31841,-2.9674 -1.26178,-6.8756 -2.22014,-10.7756 -0.006,-0.024 0.005,-0.048 -6.3e-4,-0.07 5.89593,-0.8608 11.74742,-2.3832 17.48142,-4.6261 0.008,0.033 0.0336,0.051 0.0428,0.084 1.0927,3.8645 2.17369,7.7298 3.3623,10.4674 0.59417,1.3688 1.22798,2.4362 1.88456,3.1067 0.32826,0.3352 0.66627,0.5633 1.0149,0.672 0.3028,0.094 0.60135,0.048 0.92174,-0.054 0.096,-0.039 0.19465,-0.08 0.29076,-0.1184 2.50933,-1.037 5.00522,-2.1258 7.46207,-3.3938 0.35692,-0.1857 0.61521,-0.443 0.75873,-0.7785 0.14322,-0.336 0.18056,-0.7644 0.13801,-1.2317 -0.0851,-0.9347 -0.51893,-2.0974 -1.17594,-3.4371 -1.31424,-2.6797 -3.54576,-6.0234 -5.78011,-9.3603 -0.0181,-0.029 -0.0292,-0.056 -0.0428,-0.084 5.43702,-2.9258 10.40509,-6.3987 14.86518,-10.309 0.0206,0.024 0.05,0.041 0.0708,0.069 2.34855,3.2578 4.66842,6.4976 6.72163,8.6635 1.02657,1.083 1.99227,1.8922 2.83863,2.2979 0.42311,0.2026 0.84091,0.3091 1.20568,0.2919 0.28997,-0.014 0.53045,-0.1596 0.77854,-0.3312 0.10488,-0.094 0.19995,-0.2015 0.30368,-0.2974 1.96256,-1.7916 3.84138,-3.6482 5.63116,-5.5787 0.10577,-0.1132 0.21204,-0.2257 0.31712,-0.3395 0.16328,-0.2406 0.29657,-0.4777 0.31182,-0.7586 0.0196,-0.3648 -0.0672,-0.774 -0.26688,-1.1986 -0.39949,-0.8493 -1.19682,-1.802 -2.27248,-2.8362 -2.15133,-2.0684 -5.39944,-4.4225 -8.64052,-6.7941 -0.0291,-0.021 -0.048,-0.047 -0.0708,-0.069 4.06112,-4.5597 7.59048,-9.5138 10.47512,-14.7952 0.021,0.014 0.0354,0.027 0.0565,0.041 3.32108,2.2579 6.62867,4.488 9.29889,5.8212 1.33506,0.6665 2.50572,1.1222 3.43973,1.2139 0.46703,0.046 0.89117,-10e-5 1.22814,-0.1415 0.2966,-0.1242 0.49513,-0.3756 0.67636,-0.6655 0.0417,-0.08 0.0812,-0.1592 0.12271,-0.2392 1.26462,-2.4224 2.45961,-4.8527 3.51183,-7.3686 0.0198,-0.047 0.007,-0.1071 0.0263,-0.1541 0.11778,-0.335 0.16808,-0.6341 0.0717,-0.9514 -0.10622,-0.3493 -0.33698,-0.695 -0.66998,-1.0256 -0.66593,-0.6614 -1.73477,-1.3131 -3.09931,-1.9171 -2.72913,-1.208 -6.59972,-2.3104 -10.45637,-3.4304 -0.0308,-0.01 -0.0576,-0.018 -0.0846,-0.028 2.23899,-5.6312 3.83025,-11.5027 4.75205,-17.5035 0.0278,0 0.0535,0.019 0.0842,0.027 3.89315,0.9861 7.79861,1.983 10.76364,2.3224 1.48263,0.1698 2.72429,0.1869 3.6334,-0.046 0.45437,-0.1172 0.81451,-0.3115 1.08299,-0.559 0.22952,-0.2115 0.34858,-0.4952 0.42286,-0.8161 0.012,-0.09 0.0265,-0.1768 0.0386,-0.2661 0.35651,-2.6437 0.55916,-5.3156 0.69461,-7.9894 0.007,-0.1443 0.0159,-0.2891 0.0225,-0.4336 -0.0254,-0.3013 -0.0457,-0.6031 -0.22032,-0.8358 -0.21938,-0.292 -0.54764,-0.5314 -0.97364,-0.7283 -0.85197,-0.3937 -2.08442,-0.6222 -3.57329,-0.723 -2.97762,-0.2017 -7.00208,0.07 -11.00923,0.3363 -0.0251,8e-4 -0.0479,0 -0.0699,6e-4 0.18437,-6.0039 -0.31191,-12.058 -1.51659,-18.0662 0.0184,-0.011 0.0452,0 0.0694,-10e-4 3.99555,-0.4051 7.994,-0.8138 10.89641,-1.509 1.45114,-0.3476 2.63318,-0.7713 3.40761,-1.3014 0.38743,-0.2647 0.68794,-0.539 0.85548,-0.8636 0.13274,-0.2569 0.11094,-0.5541 0.0869,-0.8537 -0.0299,-0.1377 -0.0446,-0.2804 -0.0752,-0.4183 -0.57181,-2.589 -1.25937,-5.168 -2.05551,-7.7306 -0.0378,-0.1206 -0.0784,-0.2414 -0.11637,-0.3619 -0.12707,-0.2734 -0.25502,-0.5341 -0.49804,-0.6926 -0.30598,-0.1993 -0.69697,-0.3093 -1.16452,-0.3484 -0.93521,-0.079 -2.17926,0.1487 -3.61274,0.5632 -2.86704,0.8289 -6.53247,2.4507 -10.20674,4.0719 -0.019,0.012 -0.0376,0.022 -0.0538,0.032 -1.30156,-3.9223 -2.9311,-7.792 -4.886,-11.5801 -0.86219,-1.6706 -1.77126,-3.3015 -2.73192,-4.8848 0.0264,-0.014 0.0517,-0.03 0.0809,-0.047 3.61603,-1.7473 7.2147,-3.4678 9.70428,-5.1137 1.24484,-0.8228 2.21816,-1.6482 2.7645,-2.4113 0.27321,-0.3815 0.44271,-0.7341 0.48916,-1.0964 0.0384,-0.2994 -0.0689,-0.5936 -0.20685,-0.8779 -0.0559,-0.088 -0.11553,-0.1756 -0.17115,-0.2634 -1.44122,-2.2779 -2.98188,-4.44813 -4.5843,-6.56626 -0.0763,-0.10087 -0.15098,-0.20426 -0.22757,-0.30458 -0.21982,-0.23286 -0.46433,-0.45237 -0.76136,-0.52135 -0.3557,-0.0828 -0.74845,-0.0659 -1.20129,0.0572 -0.90571,0.24588 -2.00073,0.88044 -3.20579,1.76062 -2.41063,1.75952 -5.28225,4.53657 -8.18063,7.31647 -0.0253,0.026 -0.0444,0.049 -0.0686,0.071 -3.80203,-4.82724 -8.08308,-9.12256 -12.75727,-12.8633 0.0186,-0.0115 0.0245,-0.0382 0.041,-0.0568 2.80047,-2.87846 5.58277,-5.76035 7.35925,-8.15847 0.88832,-1.19904 1.55184,-2.27782 1.80429,-3.18175 0.12623,-0.45191 0.14836,-0.87447 0.0682,-1.23073 -0.0637,-0.28283 -0.2588,-0.49259 -0.4703,-0.70686 -0.11061,-0.0857 -0.22762,-0.162 -0.33857,-0.24721 -2.11341,-1.62393 -4.28636,-3.15016 -6.51577,-4.58497 -0.12163,-0.0782 -0.24449,-0.15528 -0.36635,-0.2329 -0.26679,-0.12058 -0.53237,-0.24729 -0.81339,-0.21323 -0.36256,0.0439 -0.72824,0.23291 -1.1117,0.50332 -0.76687,0.54105 -1.56549,1.47523 -2.39725,2.71414 -1.66347,2.47789 -3.42863,6.07872 -5.20137,9.68233 -0.018,0.0367 -0.0341,0.069 -0.0544,0.0991 -5.17227,-3.18819 -10.67242,-5.77909 -16.39526,-7.71529 0.0163,-0.0331 0.0381,-0.0613 0.0546,-0.0986 1.64702,-3.66277 3.28355,-7.32469 4.13272,-10.1858 0.4246,-1.43055 0.64092,-2.66351 0.56901,-3.59925 -0.036,-0.46785 -0.15294,-0.84822 -0.3502,-1.15559 -0.19718,-0.30738 -0.47759,-0.52357 -0.86084,-0.64589 -2.62426,-0.83766 -5.30579,-1.52344 -7.99391,-2.13412 -0.0499,-0.0115 -0.0907,-0.057 -0.14061,-0.0681 -0.36361,-0.0669 -0.72761,-0.044 -1.03284,0.11102 -0.32564,0.16533 -0.60206,0.45035 -0.86985,0.8357 -0.53564,0.77064 -0.98239,1.95076 -1.34027,3.39946 -0.71568,2.89738 -1.13298,6.87323 -1.56632,10.86584 -0.005,0.0404 -0.005,0.0756 -0.0124,0.112 -5.90918,-1.22833 -11.97144,-1.81884 -18.06525,-1.68399 -9.4e-4,-0.0132 0.0124,-0.0267 0.0132,-0.0421 0.29495,-4.0052 0.58509,-8.02574 0.4045,-11.00473 -0.0903,-1.48951 -0.30105,-2.72847 -0.68871,-3.58318 -0.19369,-0.42739 -0.42082,-0.74787 -0.71119,-0.96927 -0.23122,-0.17621 -0.52682,-0.21325 -0.82771,-0.24101 -0.13986,0.005 -0.27932,-0.001 -0.41922,0.005 -2.63271,0.10957 -5.25501,0.3296 -7.88834,0.65984 -0.15388,0.0192 -0.30658,0.0418 -0.4604,0.0622 -0.28001,0.0797 -0.5573,0.18125 -0.74976,0.38697 -0.2495,0.26669 -0.43913,0.64364 -0.55902,1.09733 -0.23976,0.90736 -0.22477,2.13706 -0.0656,3.62076 0.31843,2.96742 1.26182,6.87552 2.22018,10.77552 0.005,0.0244 -0.005,0.0486 6.3e-4,0.0698 -5.896,0.86067 -11.74745,2.38319 -17.48148,4.62597 -0.008,-0.0325 -0.0337,-0.0511 -0.0426,-0.0833 -1.09272,-3.86453 -2.17374,-7.72985 -3.36231,-10.46744 -0.59434,-1.36877 -1.22802,-2.43607 -1.88461,-3.10667 -0.3283,-0.33529 -0.66625,-0.56318 -1.01491,-0.67188 -0.30284,-0.0944 -0.6013,-0.0474 -0.92175,0.0537 -0.0962,0.0393 -0.19606,0.0758 -0.29191,0.11591 -2.50924,1.03717 -5.00517,2.12583 -7.46204,3.39381 z m 14.67529,28.43652 c 31.41012,-16.20988 70.01373,-3.88769 86.22366,27.52246 16.20988,31.4101 3.88765,70.0138 -27.52246,86.2236 -31.4101,16.2099 -70.01375,3.8877 -86.22361,-27.5224 -16.20989,-31.4101 -3.8877,-70.0138 27.52241,-86.22366 z"
       id="path4524-7"
       inkscape:connector-curvature="0" />
  </g>
</svg>
