<?xml version="1.0" encoding="UTF-8" standalone="no"?>
<!-- Created with Inkscape (http://www.inkscape.org/) -->

<svg
   xmlns:dc="http://purl.org/dc/elements/1.1/"
   xmlns:cc="http://creativecommons.org/ns#"
   xmlns:rdf="http://www.w3.org/1999/02/22-rdf-syntax-ns#"
   xmlns:svg="http://www.w3.org/2000/svg"
   xmlns="http://www.w3.org/2000/svg"
   xmlns:xlink="http://www.w3.org/1999/xlink"
   xmlns:sodipodi="http://sodipodi.sourceforge.net/DTD/sodipodi-0.dtd"
   xmlns:inkscape="http://www.inkscape.org/namespaces/inkscape"
   width="609.67999"
   height="1056"
   id="svg2"
   version="1.1"
   inkscape:version="0.48.2 r9819"
   sodipodi:docname="gearcrate_webpage_bg.svg"
   inkscape:export-filename="D:\Projects\GearcrateWebsite\main_copy\res\site_art\gearcrate_webpage_bg.png"
   inkscape:export-xdpi="90"
   inkscape:export-ydpi="90">
  <title
     id="title5366">gearcrate</title>
  <defs
     id="defs4">
    <linearGradient
       inkscape:collect="always"
       id="linearGradient5275">
      <stop
         style="stop-color:#a0a0a0;stop-opacity:1;"
         offset="0"
         id="stop5277" />
      <stop
         style="stop-color:#404040;stop-opacity:1;"
         offset="1"
         id="stop5279" />
    </linearGradient>
    <linearGradient
       inkscape:collect="always"
       id="linearGradient5265">
      <stop
         style="stop-color:#e6e6e6;stop-opacity:1;"
         offset="0"
         id="stop5267" />
      <stop
         style="stop-color:#a0a0a0;stop-opacity:0;"
         offset="1"
         id="stop5269" />
    </linearGradient>
    <linearGradient
       inkscape:collect="always"
       xlink:href="#linearGradient5265"
       id="linearGradient5273"
       x1="154.80904"
       y1="990.38342"
       x2="275.1741"
       y2="990.38342"
       gradientUnits="userSpaceOnUse" />
    <linearGradient
       inkscape:collect="always"
       xlink:href="#linearGradient5275"
       id="linearGradient5281"
       x1="5.0721383e-010"
       y1="988.36481"
       x2="127.9942"
       y2="988.36481"
       gradientUnits="userSpaceOnUse" />
    <linearGradient
       inkscape:collect="always"
       xlink:href="#linearGradient5275-4"
       id="linearGradient5281-2"
       x1="5.0721383e-010"
       y1="988.36481"
       x2="127.9942"
       y2="988.36481"
       gradientUnits="userSpaceOnUse" />
    <linearGradient
       id="linearGradient5275-4">
      <stop
         style="stop-color:#a0a0a0;stop-opacity:1;"
         offset="0"
         id="stop5277-5" />
      <stop
         style="stop-color:#404040;stop-opacity:1;"
         offset="1"
         id="stop5279-5" />
    </linearGradient>
    <linearGradient
       inkscape:collect="always"
       xlink:href="#linearGradient5275-1"
       id="linearGradient5281-7"
       x1="5.0721383e-010"
       y1="988.36481"
       x2="127.9942"
       y2="988.36481"
       gradientUnits="userSpaceOnUse" />
    <linearGradient
       id="linearGradient5275-1">
      <stop
         style="stop-color:#a0a0a0;stop-opacity:1;"
         offset="0"
         id="stop5277-1" />
      <stop
         style="stop-color:#404040;stop-opacity:1;"
         offset="1"
         id="stop5279-52" />
    </linearGradient>
  </defs>
  <sodipodi:namedview
     id="base"
     pagecolor="#ffffff"
     bordercolor="#666666"
     borderopacity="1.0"
     inkscape:pageopacity="0.0"
     inkscape:pageshadow="2"
     inkscape:zoom="1"
     inkscape:cx="307.31274"
     inkscape:cy="507.08426"
     inkscape:document-units="px"
     inkscape:current-layer="layer1"
     showgrid="false"
     inkscape:window-width="1471"
     inkscape:window-height="1073"
     inkscape:window-x="473"
     inkscape:window-y="191"
     inkscape:window-maximized="0" />
  <metadata
     id="metadata7">
    <rdf:RDF>
      <cc:Work
         rdf:about="">
        <dc:format>image/svg+xml</dc:format>
        <dc:type
           rdf:resource="http://purl.org/dc/dcmitype/StillImage" />
        <dc:title>gearcrate</dc:title>
      </cc:Work>
    </rdf:RDF>
  </metadata>
  <g
     inkscape:label="Layer 1"
     inkscape:groupmode="layer"
     id="layer1"
     transform="translate(0,3.63782)">
    <path
       style="fill:#666666;fill-opacity:1;fill-rule:nonzero;stroke:none"
       d="m 130.0625,0 c 0.21238,0.6988 0.67781,1.4011 1.34375,2.0625 1.33182,1.3226 3.45842,2.6045 6.1875,3.8125 5.45818,2.415796 13.19289,4.635 20.90625,6.875 0.0618,0.02 0.1341,0.0445 0.1875,0.0625 -4.47798,11.2624 -7.6565,22.9982 -9.5,35 -0.0554,0 -0.1259,-0.0465 -0.1875,-0.0625 -7.78626,-1.972 -15.60107,-3.946 -21.53125,-4.625 -2.96508,-0.3394 -5.43194,-0.37185 -7.25,0.09375 -0.90878,0.2344 -1.61931,0.59855 -2.15625,1.09375 -0.45884,0.4234 -0.69527,1.01445 -0.84375,1.65625 -0.0244,0.178 -0.0697,0.35285 -0.0937,0.53125 -0.71302,5.2874 -1.10412,10.62115 -1.375,15.96875 -0.014,0.2886 -0.0493,0.5862 -0.0625,0.875 0.051,0.6028 0.0881,1.19085 0.4375,1.65625 0.43858,0.584 1.11683,1.07515 1.96875,1.46875 1.70388,0.7874 4.14736,1.2357 7.125,1.4375 5.95528,0.4034 14.01693,-0.12365 22.03125,-0.65625 0.0502,-0.002 0.0812,-0.03025 0.125,-0.03125 -0.3687,12.0078 0.62195,24.14005 3.03125,36.15625 -0.0368,0.024 -0.0758,-0.001 -0.125,0 -7.9911,0.8102 -15.97647,1.6096 -21.78125,3 -2.9023,0.6952 -5.29483,1.5648 -6.84375,2.625 -0.77486,0.5294 -1.35242,1.06975 -1.6875,1.71875 -0.2655,0.5138 -0.23558,1.11975 -0.1875,1.71875 0.0594,0.2756 0.0952,0.5367 0.15625,0.8125 1.14362,5.178 2.53274,10.34355 4.125,15.46875 0.0752,0.2412 0.14299,0.47795 0.21875,0.71875 0.25426,0.5468 0.51398,1.08945 1,1.40625 0.61192,0.3988 1.3774,0.6091 2.3125,0.6875 1.87042,0.156 4.38302,-0.296 7.25,-1.125 5.7341,-1.6576 13.05771,-4.91405 20.40625,-8.15625 0.038,-0.024 0.0616,-0.0425 0.0937,-0.0625 2.60312,7.8446 5.87143,15.58025 9.78125,23.15625 1.72434,3.3412 3.54751,6.61485 5.46875,9.78125 -0.0528,0.028 -0.0978,0.0598 -0.15625,0.0937 -7.23206,3.4944 -14.42709,6.92675 -19.40625,10.21875 -2.48968,1.6456 -4.43859,3.31755 -5.53125,4.84375 -0.54644,0.763 -0.907,1.4631 -1,2.1875 -0.0768,0.5988 0.16136,1.1816 0.4375,1.75 0.11,0.176 0.23283,0.35565 0.34375,0.53125 2.88244,4.5558 5.95141,8.8888 9.15625,13.125 0.1526,0.2018 0.28434,0.39315 0.4375,0.59375 0.43972,0.4658 0.93719,0.9245 1.53125,1.0625 0.71142,0.166 1.50057,0.121 2.40625,-0.125 1.81142,-0.4918 3.99613,-1.7396 6.40625,-3.5 4.82126,-3.519 10.57828,-9.09625 16.375,-14.65625 0.0506,-0.052 0.0754,-0.083 0.125,-0.125 7.60392,9.6544 16.18285,18.23735 25.53125,25.71875 -0.0372,0.024 -0.0606,0.087 -0.0937,0.125 -5.60086,5.7572 -11.16571,11.5163 -14.71875,16.3125 -1.77654,2.398 -3.08887,4.53595 -3.59375,6.34375 -0.2524,0.904 -0.31647,1.75635 -0.15625,2.46875 0.1274,0.5656 0.51434,0.97765 0.9375,1.40625 0.22124,0.172 0.46546,0.3294 0.6875,0.5 4.22672,3.2478 8.57253,6.3181 13.03125,9.1875 0.24308,0.156 0.47501,0.31355 0.71875,0.46875 0.53356,0.2412 1.09417,0.47445 1.65625,0.40625 0.72506,-0.088 1.45179,-0.4592 2.21875,-1 1.53374,-1.082 3.11777,-2.9595 4.78125,-5.4375 3.32694,-4.9558 6.86079,-12.13655 10.40625,-19.34375 0.036,-0.074 0.0531,-0.15875 0.0937,-0.21875 10.3445,6.3764 21.3668,11.5651 32.8125,15.4375 -0.0332,0.064 -0.0928,0.1115 -0.125,0.1875 -3.29422,7.3254 -6.55184,14.6524 -8.25,20.375 -0.84914,2.8612 -1.30003,5.34755 -1.15625,7.21875 0.0718,0.9356 0.32417,1.6977 0.71875,2.3125 0.39442,0.6148 0.95239,1.03685 1.71875,1.28125 5.24858,1.6756 10.62368,3.05985 16,4.28125 0.1,0.026 0.18123,0.105 0.28125,0.125 0.72724,0.134 1.45208,0.0924 2.0625,-0.21875 0.6515,-0.3304 1.18307,-0.9169 1.71875,-1.6875 1.07126,-1.5414 1.97182,-3.88385 2.6875,-6.78125 1.43144,-5.7944 2.25836,-13.7646 3.125,-21.75 0.012,-0.082 0.0181,-0.14495 0.0312,-0.21875 11.81826,2.4564 23.93746,3.6448 36.125,3.375 0.002,0.026 -0.0299,0.0637 -0.0312,0.0937 -0.5898,8.0104 -1.14245,16.0418 -0.78125,22 0.1806,2.9784 0.59966,5.44685 1.375,7.15625 0.38756,0.8546 0.82555,1.4947 1.40625,1.9375 0.4625,0.3526 1.05447,0.4446 1.65625,0.5 0.28016,-0.024 0.56355,0 0.84375,0 5.26546,-0.2182 10.51457,-0.68315 15.78125,-1.34375 0.30838,-0.034 0.59829,-0.0537 0.90625,-0.0937 0.5582,-0.166 1.1142,-0.37185 1.5,-0.78125 0.499,-0.5334 0.8853,-1.2801 1.125,-2.1875 0.47948,-1.8148 0.44328,-4.2828 0.125,-7.25 -0.63682,-5.9348 -2.52078,-13.7625 -4.4375,-21.5625 -0.012,-0.048 0.011,-0.081 0,-0.125 11.79186,-1.7216 23.50075,-4.7642 34.96875,-9.25 0.016,0.066 0.0754,0.0902 0.0937,0.15625 2.1854,7.729 4.34153,15.4623 6.71875,20.9375 1.18834,2.7376 2.46809,4.87775 3.78125,6.21875 0.65652,0.6704 1.30273,1.12635 2,1.34375 0.60559,0.188 1.20297,0.11025 1.84375,-0.0937 0.192,-0.078 0.40154,-0.1732 0.59375,-0.25 5.01866,-2.074 10.0238,-4.24525 14.9375,-6.78125 0.71384,-0.3714 1.21296,-0.8915 1.5,-1.5625 0.28644,-0.672 0.36635,-1.53415 0.28125,-2.46875 -0.1702,-1.8694 -1.02973,-4.1956 -2.34375,-6.875 C 392.18402,226.35935 387.7187,219.6738 383.25,213 c -0.0362,-0.058 -0.0666,-0.10025 -0.0937,-0.15625 10.87405,-5.8516 20.79857,-12.8044 29.71875,-20.625 0.0412,0.048 0.11465,0.069 0.15625,0.125 4.6971,6.5156 9.33108,13.01195 13.4375,17.34375 2.05314,2.166 3.99478,3.78235 5.6875,4.59375 0.84622,0.4052 1.67671,0.62815 2.40625,0.59375 0.57993,-0.028 1.06631,-0.3443 1.5625,-0.6875 0.20976,-0.188 0.38629,-0.40195 0.59375,-0.59375 3.92512,-3.5832 7.70169,-7.29525 11.28125,-11.15625 0.21154,-0.2264 0.41484,-0.42865 0.625,-0.65625 0.32656,-0.4812 0.5945,-0.96945 0.625,-1.53125 0.0392,-0.7296 -0.13189,-1.55705 -0.53125,-2.40625 -0.79898,-1.6986 -2.41118,-3.58785 -4.5625,-5.65625 -4.30266,-4.1368 -10.79909,-8.85055 -17.28125,-13.59375 -0.0582,-0.042 -0.0794,-0.081 -0.125,-0.125 8.12224,-9.1194 15.16822,-19.03091 20.9375,-29.59375 0.042,0.028 0.0828,0.0345 0.125,0.0625 6.64216,4.5158 13.25331,8.98981 18.59375,11.65625 2.67012,1.333 5.00698,2.22285 6.875,2.40625 0.93406,0.092 1.79481,0.002 2.46875,-0.28125 0.5932,-0.2484 0.98129,-0.7327 1.34375,-1.3125 0.0834,-0.16 0.16698,-0.30875 0.25,-0.46875 2.52924,-4.84484 4.92681,-9.7182 7.03125,-14.75 0.0396,-0.094 -0.007,-0.2185 0.0312,-0.3125 0.23556,-0.67 0.349,-1.27165 0.15625,-1.90625 -0.21244,-0.6986 -0.67775,-1.37005 -1.34375,-2.03125 -1.33186,-1.3228 -3.45843,-2.63575 -6.1875,-3.84375 -5.45826,-2.416 -13.19295,-4.635 -20.90625,-6.875 -0.0616,-0.02 -0.13349,-0.0112 -0.1875,-0.0312 4.47798,-11.2624 7.6564,-23.02965 9.5,-35.03125 0.0556,0 0.1261,0.0465 0.1875,0.0625 7.7863,1.9722 15.60118,3.97745 21.53125,4.65625 2.96525,0.3396 5.43178,0.37205 7.25,-0.0937 0.90874,-0.2344 1.61929,-0.63 2.15625,-1.125 0.45904,-0.423 0.69519,-0.9832 0.84375,-1.625 0.024,-0.18 0.0695,-0.35265 0.0937,-0.53125 0.71302,-5.2874 1.1041,-10.6524 1.375,-16 0.014,-0.2886 0.0493,-0.55475 0.0625,-0.84375 -0.0508,-0.6026 -0.0883,-1.2221 -0.4375,-1.6875 -0.43876,-0.584 -1.11675,-1.07495 -1.96875,-1.46875 -1.70394,-0.7874 -4.14726,-1.2359 -7.125,-1.4375 -5.95524,-0.4034 -14.01694,0.1549 -22.03125,0.6875 -0.0502,0.002 -0.081,-0.001 -0.125,0 0.36874,-12.0078 -0.62189,-24.1086 -3.03125,-36.125 0.0368,-0.022 0.0766,-0.02925 0.125,-0.03125 7.9911,-0.8102 15.97643,-1.6096 21.78125,-3 2.90228,-0.6952 5.26364,-1.53355 6.8125,-2.59375 0.77486,-0.5294 1.38367,-1.1008 1.71875,-1.75 0.26548,-0.5138 0.23558,-1.0883 0.1875,-1.6875 -0.0598,-0.2754 -0.0951,-0.56795 -0.15625,-0.84375 -1.14362,-5.178 -2.53272,-10.34355 -4.125,-15.46875 -0.0756,-0.2412 -0.14281,-0.47775 -0.21875,-0.71875 -0.25414,-0.5468 -0.51396,-1.058 -1,-1.375 -0.61196,-0.3986 -1.3774,-0.64055 -2.3125,-0.71875 -1.87042,-0.158 -4.38304,0.296 -7.25,1.125 -5.73408,1.6578 -13.05771,4.91385 -20.40625,8.15625 -0.038,0.024 -0.0614,0.0425 -0.0937,0.0625 C 456.83511,14.409725 453.78775,7.1376089 450.1875,0 l -37.03125,0 c 2.86136,4.2180841 5.51026,8.6385106 7.90625,13.28125 32.41974,62.8202 7.75772,140.01786 -55.0625,172.4375 -62.82022,32.4198 -140.01778,7.78899 -172.4375,-55.03125 C 171.28527,87.520635 175.95467,37.55385 201.4375,0 l -71.375,0 z"
       transform="translate(0,-3.63782)"
       id="rect3304-2"
       inkscape:connector-curvature="0" />
    <path
       style="fill:#666666;fill-opacity:1;fill-rule:nonzero;stroke:none"
       d="m 604.03125,408.3125 c -5.26542,0.21914 -10.51459,0.65202 -15.78125,1.3125 -0.30776,0.0384 -0.59861,0.0842 -0.90625,0.125 -0.56002,0.1594 -1.11508,0.36981 -1.5,0.78125 -0.499,0.53338 -0.88522,1.28012 -1.125,2.1875 -0.47952,1.81472 -0.44334,4.2826 -0.125,7.25 0.63686,5.93484 2.52078,13.73127 4.4375,21.53125 0.01,0.0488 -0.011,0.11385 0,0.15625 -11.792,1.72136 -23.50069,4.76436 -34.96875,9.25 -0.016,-0.066 -0.076,-0.0922 -0.0937,-0.15625 -2.18544,-7.72912 -4.34161,-15.46234 -6.71875,-20.9375 -1.18868,-2.73756 -2.46807,-4.87755 -3.78125,-6.21875 -0.6566,-0.67058 -1.33393,-1.12635 -2.03125,-1.34375 -0.60568,-0.1888 -1.20285,-0.10845 -1.84375,0.0937 -0.1924,0.0786 -0.3708,0.16978 -0.5625,0.25 -5.01848,2.07434 -10.02376,4.24529 -14.9375,6.78125 -0.71502,0.3689 -1.21347,0.85945 -1.5,1.53125 -0.28646,0.67188 -0.3663,1.53413 -0.28125,2.46875 0.16999,1.86924 1.02954,4.19542 2.34375,6.875 2.62825,5.35908 7.09368,12.04455 11.5625,18.71875 0.0364,0.058 0.067,0.1335 0.0937,0.1875 -10.87392,5.8516 -20.82976,12.77335 -29.75,20.59375 -0.041,-0.048 -0.0832,-0.067 -0.125,-0.125 -4.69706,-6.5156 -9.33108,-12.9805 -13.4375,-17.3125 -2.05318,-2.1658 -3.99486,-3.78255 -5.6875,-4.59375 -0.84634,-0.4056 -1.67667,-0.62795 -2.40625,-0.59375 -0.57994,0.028 -1.06644,0.31305 -1.5625,0.65625 -0.20934,0.19 -0.38539,0.40355 -0.59375,0.59375 -3.92515,3.5832 -7.70169,7.29525 -11.28125,11.15625 -0.2109,0.2276 -0.4153,0.4591 -0.625,0.6875 -0.32648,0.4814 -0.59464,0.938 -0.625,1.5 -0.0394,0.7294 0.13167,1.55705 0.53125,2.40625 0.79896,1.6984 2.3799,3.6189 4.53125,5.6875 4.3027,4.137 10.79923,8.8193 17.28125,13.5625 0.0576,0.042 0.11025,0.11225 0.15625,0.15625 -8.12228,9.1194 -15.16824,19.03095 -20.9375,29.59375 -0.0418,-0.028 -0.0834,-0.0657 -0.125,-0.0937 -6.64222,-4.516 -13.25342,-8.9588 -18.59375,-11.625 -2.67018,-1.3332 -5.00698,-2.2541 -6.875,-2.4375 -0.93399,-0.092 -1.79484,-0.002 -2.46875,0.28125 -0.59322,0.2484 -0.98098,0.7333 -1.34375,1.3125 -0.0836,0.16 -0.16674,0.3404 -0.25,0.5 -2.52914,4.845 -4.92671,9.68715 -7.03125,14.71875 -0.0396,0.094 -0.0225,0.2181 -0.0625,0.3125 -0.2356,0.6702 -0.31787,1.27165 -0.125,1.90625 0.21239,0.6988 0.67782,1.4011 1.34375,2.0625 1.33182,1.3226 3.45842,2.6045 6.1875,3.8125 5.45818,2.4158 13.1929,4.635 20.90625,6.875 0.0618,0.02 0.13409,0.0445 0.1875,0.0625 -4.47798,11.2624 -7.65651,22.9982 -9.5,35 -0.0554,0 -0.1259,-0.0465 -0.1875,-0.0625 -7.78626,-1.972 -15.60106,-3.946 -21.53125,-4.625 -2.96507,-0.3394 -5.43194,-0.37185 -7.25,0.0937 -0.90878,0.2344 -1.65055,0.59855 -2.1875,1.09375 -0.45884,0.4234 -0.69527,1.01445 -0.84375,1.65625 -0.0244,0.178 -0.0385,0.35285 -0.0625,0.53125 -0.71302,5.2874 -1.10411,10.62115 -1.375,15.96875 -0.014,0.2886 -0.0493,0.5862 -0.0625,0.875 0.051,0.6028 0.0881,1.19085 0.4375,1.65625 0.43858,0.584 1.08559,1.07515 1.9375,1.46875 1.70389,0.7874 4.17861,1.2357 7.15625,1.4375 5.95528,0.4034 14.01693,-0.12365 22.03125,-0.65625 0.0502,-0.002 0.0812,-0.0303 0.125,-0.0312 -0.3687,12.0078 0.62195,24.14005 3.03125,36.15625 -0.0368,0.024 -0.0758,-10e-4 -0.125,0 -7.9911,0.8102 -16.00772,1.6096 -21.8125,3 -2.9023,0.6952 -5.26358,1.5648 -6.8125,2.625 -0.77486,0.5294 -1.35242,1.06975 -1.6875,1.71875 -0.2655,0.5138 -0.23558,1.11975 -0.1875,1.71875 0.0594,0.2756 0.0953,0.5367 0.15625,0.8125 1.14362,5.178 2.50149,10.34355 4.09375,15.46875 0.0752,0.2412 0.17424,0.47795 0.25,0.71875 0.25426,0.5468 0.51398,1.08945 1,1.40625 0.61192,0.3988 1.3774,0.6091 2.3125,0.6875 1.87042,0.156 4.35177,-0.296 7.21875,-1.125 5.7341,-1.6576 13.08896,-4.91405 20.4375,-8.15625 0.038,-0.024 0.0616,-0.0425 0.0937,-0.0625 2.60312,7.8446 5.87142,15.58025 9.78125,23.15625 1.72433,3.3412 3.54752,6.61485 5.46875,9.78125 -0.0528,0.028 -0.0978,0.0598 -0.15625,0.0937 -7.23206,3.4944 -14.45834,6.92675 -19.4375,10.21875 -2.48968,1.6456 -4.40734,3.31755 -5.5,4.84375 -0.54644,0.763 -0.907,1.4631 -1,2.1875 -0.0768,0.5988 0.13011,1.1816 0.40625,1.75 0.11,0.176 0.23283,0.35565 0.34375,0.53125 2.88244,4.5558 5.98266,8.8888 9.1875,13.125 0.1526,0.2018 0.28433,0.39315 0.4375,0.59375 0.43971,0.4658 0.9372,0.9245 1.53125,1.0625 0.71142,0.166 1.50058,0.121 2.40625,-0.125 1.81142,-0.4918 3.99613,-1.7396 6.40625,-3.5 4.82127,-3.519 10.57828,-9.09625 16.375,-14.65625 0.0506,-0.052 0.0754,-0.083 0.125,-0.125 7.60392,9.6544 16.18285,18.23735 25.53125,25.71875 -0.0372,0.024 -0.0606,0.087 -0.0937,0.125 -5.60086,5.7572 -11.16571,11.5163 -14.71875,16.3125 -1.77654,2.398 -3.08887,4.53595 -3.59375,6.34375 -0.25239,0.904 -0.31647,1.75635 -0.15625,2.46875 0.12739,0.5656 0.51434,0.97765 0.9375,1.40625 0.22124,0.172 0.46546,0.3294 0.6875,0.5 4.22672,3.2478 8.57253,6.3181 13.03125,9.1875 0.24308,0.156 0.47501,0.31355 0.71875,0.46875 0.53356,0.2412 1.06292,0.47445 1.625,0.40625 0.72506,-0.088 1.48305,-0.4592 2.25,-1 1.53374,-1.082 3.11778,-2.9595 4.78125,-5.4375 3.32695,-4.9558 6.86079,-12.13655 10.40625,-19.34375 0.036,-0.074 0.0531,-0.15875 0.0937,-0.21875 10.3445,6.3764 21.3668,11.5651 32.8125,15.4375 -0.0332,0.064 -0.0928,0.1115 -0.125,0.1875 -3.29422,7.3254 -6.55183,14.6524 -8.25,20.375 -0.84914,2.8612 -1.30003,5.34755 -1.15625,7.21875 0.0718,0.9356 0.32418,1.6977 0.71875,2.3125 0.39443,0.6148 0.95239,1.03685 1.71875,1.28125 5.24858,1.6756 10.59244,3.05985 15.96875,4.28125 0.1,0.026 0.18123,0.105 0.28125,0.125 0.72724,0.134 1.48333,0.0924 2.09375,-0.21875 0.65149,-0.3304 1.18306,-0.9169 1.71875,-1.6875 1.07126,-1.5414 1.97182,-3.88385 2.6875,-6.78125 1.43144,-5.7944 2.25837,-13.7646 3.125,-21.75 0.012,-0.082 0.0181,-0.14495 0.0312,-0.21875 9.83506,2.0442 19.88089,3.19834 30,3.375 l 0,-32.03125 C 564.24433,727.0493 520.71528,701.91604 498.40625,658.6875 465.98648,595.8673 490.61727,518.6696 553.4375,486.25 c 18.02509,-9.30225 37.25383,-13.89769 56.25,-14.25 l 0,-32.03125 c -0.39635,0.006 -0.791,-0.009 -1.1875,0 -0.002,-0.0264 -0.002,-0.0317 0,-0.0625 0.5899,-8.01038 1.17368,-16.07327 0.8125,-22.03125 -0.1806,-2.97902 -0.59968,-5.44683 -1.375,-7.15625 -0.38738,-0.85478 -0.82551,-1.4947 -1.40625,-1.9375 -0.46244,-0.35242 -1.05447,-0.41323 -1.65625,-0.46875 -0.27972,0.01 -0.56395,-0.012 -0.84375,0 z"
       transform="translate(0,-3.63782)"
       id="rect3304"
       inkscape:connector-curvature="0" />
    <path
       style="fill:#666666;fill-opacity:1;fill-rule:nonzero;stroke:none"
       d="m 299.1875,936.3125 c -5.26542,0.2192 -10.51459,0.652 -15.78125,1.3125 -0.30776,0.038 -0.59861,0.0846 -0.90625,0.125 -0.56002,0.1594 -1.11508,0.36975 -1.5,0.78125 -0.499,0.5333 -0.88522,1.2801 -1.125,2.1875 -0.47952,1.8147 -0.44334,4.2826 -0.125,7.25 0.63686,5.9349 2.52078,13.7625 4.4375,21.5625 0.01,0.049 -0.011,0.0824 0,0.125 -11.792,1.7213 -23.50069,4.7645 -34.96875,9.25 -0.016,-0.065 -0.076,-0.0919 -0.0937,-0.15625 -2.18544,-7.729 -4.34161,-15.4623 -6.71875,-20.9375 -1.18868,-2.7375 -2.43682,-4.87755 -3.75,-6.21875 -0.6566,-0.6706 -1.33393,-1.12635 -2.03125,-1.34375 -0.60568,-0.1888 -1.20285,-0.10865 -1.84375,0.0937 -0.1924,0.079 -0.40205,0.1697 -0.59375,0.25 -5.01847,2.0743 -10.02376,4.24525 -14.9375,6.78125 -0.71502,0.3689 -1.21347,0.85945 -1.5,1.53125 -0.28646,0.6719 -0.3663,1.53405 -0.28125,2.46875 0.16999,1.8692 1.02954,4.1955 2.34375,6.875 2.62825,5.3591 7.09367,12.04465 11.5625,18.71875 0.0364,0.057 0.0669,0.1321 0.0937,0.1875 -10.87392,5.8517 -20.82977,12.77333 -29.75,20.5938 -0.041,-0.048 -0.0832,-0.067 -0.125,-0.125 -4.69706,-6.5155 -9.33109,-12.98055 -13.4375,-17.31255 -2.05318,-2.1659 -3.99485,-3.78265 -5.6875,-4.59375 -0.84634,-0.4056 -1.67666,-0.62805 -2.40625,-0.59375 -0.57994,0.027 -1.06644,0.31285 -1.5625,0.65625 -0.20934,0.1894 -0.38539,0.40365 -0.59375,0.59375 -3.92514,3.5833 -7.7017,7.29525 -11.28125,11.15625 -0.21091,0.2276 -0.4153,0.459 -0.625,0.6875 -0.32648,0.4813 -0.59463,0.938 -0.625,1.5 -0.0394,0.7295 0.13167,1.5571 0.53125,2.4063 0.79896,1.6983 2.41114,3.619 4.5625,5.6875 4.3027,4.1369 10.79923,8.8193 17.28125,13.5625 0.0576,0.042 0.079,0.1123 0.125,0.1562 -8.12228,9.1195 -15.16824,19.031 -20.9375,29.5938 -0.0418,-0.028 -0.0834,-0.066 -0.125,-0.094 -6.64222,-4.516 -13.25341,-8.9588 -18.59375,-11.625 -2.67018,-1.3332 -5.00698,-2.254 -6.875,-2.4374 -0.934,-0.092 -1.79483,0 -2.46875,0.2812 -0.59322,0.2483 -0.98097,0.7646 -1.34375,1.3438 -0.0836,0.16 -0.16674,0.3091 -0.25,0.4687 -2.52914,4.845 -4.9267,9.6871 -7.03125,14.7186 -0.0396,0.094 0.009,0.2182 -0.0312,0.3126 -0.2356,0.6702 -0.34913,1.2716 -0.15625,1.9062 l 71.375,0 c 11.60202,-17.0978 27.53416,-31.6075 47.1875,-41.75 58.1775,-30.02378 128.67593,-11.1063 164.53125,41.75 l 37.03125,0 c -0.23105,-0.4581 -0.45172,-0.9181 -0.6875,-1.375 -1.72438,-3.3412 -3.54743,-6.6146 -5.46875,-9.7812 0.0528,-0.028 0.0978,-0.06 0.15625,-0.094 7.23206,-3.4946 14.42709,-6.927 19.40625,-10.2188 2.48968,-1.6456 4.43857,-3.2862 5.53125,-4.8124 0.54642,-0.763 0.9071,-1.4629 1,-2.1876 0.0768,-0.5987 -0.1616,-1.2126 -0.4375,-1.7812 -0.1118,-0.176 -0.23251,-0.3244 -0.34375,-0.5 -2.88244,-4.5558 -5.95141,-8.92 -9.15625,-13.1562 -0.1526,-0.2019 -0.31557,-0.3931 -0.46875,-0.5938 -0.43964,-0.4657 -0.90594,-0.9245 -1.5,-1.0625 -0.7114,-0.1656 -1.50057,-0.1212 -2.40625,0.125 -1.81142,0.4918 -3.99613,1.7708 -6.40625,3.5313 -4.82126,3.519 -10.57824,9.0651 -16.375,14.625 -0.0506,0.052 -0.0766,0.1122 -0.125,0.1562 -7.60406,-9.6545 -16.18287,-18.2685 -25.53125,-25.75 0.0372,-0.023 0.0607,-0.056 0.0937,-0.094 5.60094,-5.7568 11.16579,-11.5162 14.71875,-16.3124 1.77664,-2.3981 3.08885,-4.5672 3.59375,-6.375 0.25246,-0.9039 0.31657,-1.75625 0.15625,-2.46875 -0.1274,-0.5657 -0.5145,-0.97775 -0.9375,-1.40625 -0.22122,-0.1714 -0.4656,-0.3296 -0.6875,-0.5 -4.22682,-3.2479 -8.57243,-6.28665 -13.03125,-9.15625 -0.24326,-0.1564 -0.50628,-0.31345 -0.75,-0.46875 -0.53358,-0.2411 -1.06296,-0.5057 -1.625,-0.4375 -0.72512,0.088 -1.45183,0.4592 -2.21875,1 -1.53374,1.0821 -3.11773,2.9597 -4.78125,5.4375 -3.32694,4.9558 -6.86077,12.1678 -10.40625,19.375 -0.036,0.073 -0.0844,0.1273 -0.125,0.1875 -10.34454,-6.3763 -21.33557,-11.5651 -32.78125,-15.4375 0.0326,-0.066 0.092,-0.1129 0.125,-0.1875 3.29404,-7.3256 6.55166,-14.6528 8.25,-20.375 0.8492,-2.8611 1.30007,-5.3161 1.15625,-7.1875 -0.072,-0.9357 -0.32423,-1.6978 -0.71875,-2.3125 -0.39436,-0.6148 -0.95225,-1.0679 -1.71875,-1.3125 -5.24852,-1.6753 -10.62376,-3.0287 -16,-4.25 -0.0998,-0.023 -0.18143,-0.13405 -0.28125,-0.15625 -0.72722,-0.1338 -1.45204,-0.06 -2.0625,0.25 -0.65128,0.3307 -1.18317,0.88555 -1.71875,1.65625 -1.07128,1.5413 -1.97174,3.9151 -2.6875,6.8125 -1.43136,5.7948 -2.25832,13.73355 -3.125,21.71875 -0.01,0.081 -0.0165,0.14595 -0.0312,0.21875 -11.81836,-2.4567 -23.93738,-3.6447 -36.125,-3.375 -0.002,-0.026 0.0297,-0.0315 0.0312,-0.0625 0.5899,-8.0104 1.14243,-16.07335 0.78125,-22.03125 -0.1806,-2.9791 -0.59968,-5.44685 -1.375,-7.15625 -0.38738,-0.8548 -0.82551,-1.4947 -1.40625,-1.9375 -0.46244,-0.3525 -1.05447,-0.41315 -1.65625,-0.46875 -0.27972,0.01 -0.56395,-0.01 -0.84375,0 z"
       transform="translate(0,-3.63782)"
       id="path4524-7-0"
       inkscape:connector-curvature="0" />
    <path
       style="fill:#666666;fill-opacity:1;fill-rule:nonzero;stroke:none"
       d="m 219.25992,601.72622 c -0.71501,0.3689 -1.23101,0.88498 -1.51754,1.55678 -0.28646,0.67188 -0.36104,1.52882 -0.276,2.46344 0.17,1.86924 1.03784,4.1948 2.35204,6.87438 2.62826,5.3591 7.09134,12.04656 11.56016,18.72066 0.0364,0.0574 0.0584,0.1112 0.0852,0.1666 -10.87392,5.85174 -20.81006,12.79752 -29.73029,20.61788 -0.041,-0.0478 -0.0998,-0.0804 -0.14161,-0.1378 -4.69705,-6.5155 -9.33676,-12.995 -13.44318,-17.32696 -2.05318,-2.1659 -3.98461,-3.78448 -5.67726,-4.59562 -0.84634,-0.40558 -1.68188,-0.61838 -2.41146,-0.58414 -0.57994,0.027 -1.06084,0.31948 -1.5569,0.6628 -0.20934,0.1894 -0.399,0.40462 -0.60736,0.59474 -3.92514,3.58332 -7.6828,7.2964 -11.26236,11.15742 -0.2109,0.22762 -0.42454,0.45052 -0.63424,0.67896 -0.32647,0.48136 -0.59317,0.9554 -0.62354,1.51744 -0.0394,0.72934 0.1342,1.54796 0.53378,2.3972 0.79896,1.69842 2.3936,3.60378 4.54496,5.6723 4.3027,4.137 10.7989,8.84494 17.28092,13.58808 0.0576,0.042 0.0956,0.094 0.1416,0.138 -8.12228,9.1194 -15.18096,19.0276 -20.95022,29.5904 -0.0418,-0.028 -0.0712,-0.054 -0.1128,-0.082 -6.64222,-4.516 -13.25746,-8.9762 -18.5978,-11.6424 -2.67018,-1.3332 -5.01152,-2.2446 -6.87954,-2.428 -0.934,-0.092 -1.78236,2e-4 -2.45628,0.283 -0.59322,0.2484 -0.9899,0.7518 -1.35268,1.331 -0.0836,0.16 -0.1622,0.3188 -0.24546,0.4784 -2.52914,4.845 -4.9191,9.7056 -7.02364,14.7372 -0.0396,0.094 -0.012,0.2136 -0.052,0.308 -0.2356,0.6702 -0.33628,1.2682 -0.1434,1.9028 0.21238,0.6988 0.67408,1.39 1.34002,2.0514 1.33182,1.3226 3.46958,2.6262 6.19866,3.8342 5.45818,2.4158 13.19938,4.6208 20.91274,6.8608 0.0618,0.02 0.115,0.036 0.1684,0.054 -4.47798,11.2624 -7.66056,23.0052 -9.50406,35.007 -0.0554,0 -0.1068,-0.038 -0.1684,-0.054 -7.78626,-1.972 -15.59718,-3.9658 -21.52736,-4.6448 -2.96508,-0.3394 -5.44856,-0.3736 -7.26662,0.092 -0.90878,0.2344 -1.62912,0.6228 -2.16606,1.118 -0.45884,0.4234 -0.69722,0.9902 -0.8457,1.632 -0.0244,0.178 -0.053,0.3538 -0.077,0.5322 -0.71302,5.2874 -1.1183,10.6314 -1.38918,15.979 -0.014,0.2886 -0.0316,0.5782 -0.0448,0.867 0.051,0.6028 0.0912,1.2062 0.4406,1.6716 0.43858,0.584 1.09544,1.063 1.94736,1.4566 1.70388,0.7874 4.1689,1.2444 7.14654,1.4462 5.95528,0.4034 14.00418,-0.14 22.0185,-0.6726 0.0502,-0.002 0.096,0 0.1398,-0.001 -0.3687,12.0078 0.62394,24.1164 3.03324,36.1326 -0.0368,0.024 -0.0906,0 -0.1398,10e-4 -7.9911,0.8102 -15.98804,1.6276 -21.79282,3.018 -2.9023,0.6952 -5.26634,1.5426 -6.81526,2.6028 -0.77486,0.5294 -1.37586,1.0782 -1.71094,1.7272 -0.2655,0.5138 -0.22188,1.1084 -0.1738,1.7074 0.0594,0.2756 0.0894,0.5608 0.1504,0.8366 1.14362,5.178 2.51864,10.3362 4.1109,15.4614 0.0752,0.2412 0.157,0.4828 0.23276,0.7236 0.25426,0.5468 0.5101,1.0684 0.99612,1.3852 0.61192,0.3988 1.3939,0.6186 2.329,0.697 1.87042,0.156 4.35852,-0.2976 7.2255,-1.1266 5.7341,-1.6576 13.06494,-4.9014 20.41348,-8.1436 0.038,-0.024 0.0754,-0.044 0.1076,-0.064 2.60312,7.8446 5.86218,15.584 9.772,23.16 1.72434,3.3412 3.54262,6.6034 5.46386,9.7698 -0.0528,0.028 -0.1034,0.06 -0.1618,0.094 -7.23206,3.4944 -14.42938,6.93544 -19.40854,10.22744 -2.48968,1.6456 -4.43632,3.2964 -5.52898,4.8226 -0.54644,0.763 -0.88534,1.4684 -0.97834,2.1928 -0.0768,0.5988 0.1376,1.1872 0.41374,1.7556 0.11,0.176 0.23128,0.3514 0.3422,0.527 2.88244,4.5558 5.96378,8.8962 9.16862,13.1324 0.1526,0.2018 0.30184,0.4086 0.455,0.6092 0.43972,0.4658 0.9287,0.9048 1.52276,1.0428 0.71142,0.166 1.49692,0.132 2.4026,-0.114 1.81142,-0.4918 4.00144,-1.7608 6.41156,-3.5212 4.82126,-3.519 10.5647,-9.0728 16.36142,-14.6328 0.0506,-0.052 0.0886,-0.098 0.1382,-0.14 7.60392,9.6544 16.16588,18.2448 25.51428,25.7262 -0.0372,0.024 -0.0488,0.076 -0.082,0.114 -5.60086,5.7572 -11.1655,11.52076 -14.71854,16.31696 -1.77654,2.398 -3.10366,4.5556 -3.60854,6.3634 -0.2524,0.904 -0.29662,1.7492 -0.1364,2.4616 0.1274,0.5656 0.51752,0.9852 0.94068,1.4138 0.22124,0.172 0.45524,0.324 0.67728,0.4946 4.22672,3.2478 8.57256,6.3002 13.03128,9.1696 0.24308,0.156 0.48906,0.3106 0.7328,0.4658 0.53356,0.2412 1.06474,0.4948 1.62682,0.4266 0.72506,-0.088 1.45636,-0.466 2.22332,-1.0068 1.53374,-1.082 3.13106,-2.9502 4.79454,-5.4282 3.32694,-4.9558 6.8573,-12.1574 10.40276,-19.3646 0.036,-0.074 0.0682,-0.138 0.1088,-0.198 10.3445,6.3764 21.34478,11.558 32.79048,15.4304 -0.0332,0.064 -0.0764,0.122 -0.1086,0.198 -3.29422,7.3254 -6.5673,14.6492 -8.26546,20.3718 -0.84914,2.8612 -1.28186,5.3272 -1.13808,7.1984 0.0718,0.9356 0.3058,1.6962 0.70038,2.311 0.39442,0.6148 0.95526,1.0474 1.72162,1.2918 5.24858,1.6756 10.61156,3.047 15.98788,4.2684 0.1,0.026 0.1812,0.114 0.28122,0.134 0.72724,0.134 1.45538,0.09 2.0658,-0.2212 0.6515,-0.3304 1.20402,-0.901 1.7397,-1.6716 1.07126,-1.5414 1.96474,-3.9018 2.68042,-6.7992 1.43144,-5.7944 2.26604,-13.7464 3.13268,-21.7318 0.012,-0.082 0.012,-0.15 0.0252,-0.2238 11.81826,2.4564 23.94292,3.6378 36.13046,3.368 0.002,0.026 -0.025,0.054 -0.0264,0.084 -0.5898,8.0104 -1.17008,16.0516 -0.80888,22.0098 0.1806,2.9784 0.60208,5.4568 1.37742,7.1662 0.38756,0.8546 0.84158,1.4956 1.42228,1.9384 0.4625,0.3526 1.05366,0.4266 1.65544,0.482 0.28016,-0.024 0.55832,0 0.83852,0 5.26546,-0.2182 10.50998,-0.659 15.77666,-1.3196 0.30838,-0.034 0.61382,-0.078 0.92178,-0.118 0.5582,-0.166 1.11464,-0.3628 1.50044,-0.7722 0.499,-0.5334 0.87832,-1.2872 1.11802,-2.1946 0.47948,-1.8148 0.44948,-4.2744 0.1312,-7.2416 -0.63682,-5.9348 -2.52356,-13.7512 -4.44028,-21.5512 -0.012,-0.048 0.01,-0.096 -10e-4,-0.14 11.79186,-1.7216 23.49484,-4.7664 34.96284,-9.2522 0.016,0.066 0.0672,0.102 0.0856,0.168 2.1854,7.729 4.34738,15.4596 6.7246,20.9348 1.18834,2.7376 2.45596,4.8724 3.76912,6.2134 0.65652,0.6704 1.33254,1.1266 2.02981,1.344 0.60559,0.188 1.2027,0.096 1.84348,-0.108 0.192,-0.078 0.3893,-0.16 0.58151,-0.2368 5.01866,-2.074 10.01044,-4.2516 14.92414,-6.7876 0.71384,-0.3714 1.23042,-0.886 1.51746,-1.557 0.28644,-0.672 0.36112,-1.5288 0.27602,-2.4634 -0.1702,-1.8694 -1.03786,-4.1948 -2.35188,-6.8742 -2.62848,-5.3594 -7.09152,-12.0468 -11.56022,-18.7206 -0.0362,-0.058 -0.0584,-0.112 -0.0856,-0.168 10.87405,-5.8516 20.81018,-12.79736 29.73036,-20.61796 0.0412,0.048 0.10001,0.082 0.14161,0.138 4.6971,6.5156 9.33684,12.99516 13.44326,17.32696 2.05314,2.166 3.98454,3.7844 5.67726,4.5958 0.84622,0.4052 1.68182,0.6182 2.41136,0.5838 0.57993,-0.028 1.06089,-0.3192 1.55708,-0.6624 0.20976,-0.188 0.3999,-0.403 0.60736,-0.5948 3.92512,-3.5832 7.68276,-7.2964 11.26232,-11.15736 0.21154,-0.2264 0.42408,-0.4514 0.63424,-0.679 0.32656,-0.4812 0.59314,-0.9554 0.62364,-1.5172 0.0392,-0.7296 -0.1344,-1.548 -0.53376,-2.3972 -0.79898,-1.6986 -2.39364,-3.604 -4.54496,-5.6724 -4.30266,-4.1368 -10.79888,-8.845 -17.28104,-13.5882 -0.0582,-0.042 -0.096,-0.094 -0.1416,-0.138 8.12224,-9.1194 15.18096,-19.0276 20.95024,-29.59044 0.042,0.028 0.0708,0.054 0.113,0.082 6.64216,4.5158 13.25734,8.976 18.59778,11.64244 2.67012,1.333 5.01144,2.2444 6.87946,2.4278 0.93406,0.092 1.78234,-2e-4 2.45628,-0.283 0.5932,-0.2484 0.99026,-0.7512 1.35272,-1.331 0.0834,-0.16 0.1624,-0.3184 0.24542,-0.4784 2.52924,-4.84484 4.91922,-9.70544 7.02366,-14.73724 0.0396,-0.094 0.014,-0.2142 0.0526,-0.3082 0.23556,-0.67 0.33616,-1.2682 0.14341,-1.9028 -0.21244,-0.6986 -0.67396,-1.39 -1.33996,-2.0512 -1.33186,-1.3228 -3.46955,-2.6262 -6.19862,-3.8342 -5.45826,-2.416 -13.19944,-4.6208 -20.91274,-6.8608 -0.0616,-0.02 -0.1152,-0.036 -0.16921,-0.056 4.47798,-11.2624 7.6605,-23.0054 9.5041,-35.007 0.0556,0 0.107,0.038 0.1684,0.054 7.7863,1.9722 15.59722,3.966 21.52729,4.6448 2.96525,0.3396 5.44857,0.3738 7.26679,-0.092 0.90874,-0.2344 1.62902,-0.623 2.16598,-1.118 0.45904,-0.423 0.69717,-0.9904 0.84573,-1.6322 0.024,-0.18 0.053,-0.3536 0.0772,-0.5322 0.71302,-5.2874 1.11832,-10.6312 1.38922,-15.9788 0.014,-0.2886 0.0318,-0.5782 0.045,-0.8672 -0.0508,-0.6026 -0.0914,-1.2062 -0.44064,-1.6716 -0.43876,-0.584 -1.09528,-1.0628 -1.94728,-1.4566 -1.70394,-0.7874 -4.16884,-1.2444 -7.14658,-1.446 -5.95524,-0.4034 -14.00415,0.14 -22.01846,0.6726 -0.0502,0.002 -0.0958,0 -0.1398,10e-4 0.36874,-12.0078 -0.62382,-24.116 -3.03318,-36.1324 0.0368,-0.022 0.0904,0 0.1388,-0.002 7.9911,-0.8102 15.988,-1.6276 21.79282,-3.018 2.90228,-0.6952 5.26636,-1.5426 6.81522,-2.6028 0.77486,-0.5294 1.37588,-1.078 1.71096,-1.7272 0.26548,-0.5138 0.22188,-1.1082 0.1738,-1.7074 -0.0598,-0.2754 -0.0892,-0.5608 -0.1504,-0.8366 -1.14362,-5.178 -2.51874,-10.336 -4.11102,-15.4612 -0.0756,-0.2412 -0.1568,-0.4828 -0.23274,-0.7238 -0.25414,-0.5468 -0.51004,-1.0682 -0.99608,-1.3852 -0.61196,-0.3986 -1.39394,-0.6186 -2.32904,-0.6968 -1.87042,-0.158 -4.35852,0.2974 -7.22548,1.1264 -5.73408,1.6578 -13.06494,4.9014 -20.41348,8.1438 -0.038,0.024 -0.0752,0.044 -0.1076,0.064 -2.60312,-7.8446 -5.8622,-15.584 -9.772,-23.1602 -1.72438,-3.3412 -3.54252,-6.603 -5.46384,-9.7696 0.0528,-0.028 0.1034,-0.06 0.1618,-0.094 7.23206,-3.4946 14.4294,-6.9356 19.40856,-10.2274 2.48968,-1.6456 4.43632,-3.2964 5.529,-4.8226 0.54642,-0.763 0.88542,-1.4682 0.97832,-2.1928 0.0768,-0.5988 -0.1378,-1.1872 -0.4137,-1.7558 -0.1118,-0.176 -0.23106,-0.3512 -0.3423,-0.5268 -2.88244,-4.5558 -5.96376,-8.89626 -9.1686,-13.13252 -0.1526,-0.20174 -0.30196,-0.40852 -0.45514,-0.60916 -0.43964,-0.46572 -0.92866,-0.90474 -1.52272,-1.0427 -0.7114,-0.1656 -1.4969,-0.1318 -2.40258,0.1144 -1.81142,0.49176 -4.00146,1.76088 -6.41158,3.52124 -4.82126,3.51904 -10.5645,9.07314 -16.36126,14.63294 -0.0506,0.052 -0.0888,0.098 -0.1372,0.142 -7.60406,-9.65448 -16.16616,-18.24512 -25.51454,-25.7266 0.0372,-0.023 0.049,-0.0764 0.082,-0.1136 5.60094,-5.75692 11.16554,-11.5207 14.7185,-16.31694 1.77664,-2.39808 3.10368,-4.55564 3.60858,-6.3635 0.25246,-0.90382 0.29672,-1.74894 0.1364,-2.46146 -0.1274,-0.56566 -0.5176,-0.98518 -0.9406,-1.41372 -0.22122,-0.1714 -0.45524,-0.324 -0.67714,-0.49442 -4.22682,-3.24786 -8.57272,-6.30032 -13.03154,-9.16994 -0.24326,-0.1564 -0.48898,-0.31056 -0.7327,-0.4658 -0.53358,-0.24116 -1.06474,-0.49458 -1.62678,-0.42646 -0.72512,0.0878 -1.45648,0.46582 -2.2234,1.00664 -1.53374,1.0821 -3.13098,2.95046 -4.7945,5.42828 -3.32694,4.95578 -6.85726,12.15744 -10.40274,19.36466 -0.036,0.0734 -0.0682,0.138 -0.1088,0.1982 -10.34454,-6.37638 -21.34484,-11.55818 -32.79052,-15.43058 0.0326,-0.0662 0.0762,-0.1226 0.1092,-0.1972 3.29404,-7.32554 6.5671,-14.64938 8.26544,-20.3716 0.8492,-2.8611 1.28184,-5.32702 1.13802,-7.1985 -0.072,-0.9357 -0.30588,-1.69644 -0.7004,-2.31118 -0.39436,-0.61476 -0.95518,-1.04714 -1.72168,-1.29178 -5.24852,-1.67532 -10.61158,-3.04688 -15.98782,-4.26824 -0.0998,-0.023 -0.1814,-0.114 -0.28122,-0.1362 -0.72722,-0.1338 -1.45522,-0.088 -2.06568,0.22204 -0.65128,0.33066 -1.20412,0.9007 -1.7397,1.6714 -1.07128,1.54128 -1.96478,3.90152 -2.68054,6.79892 -1.43136,5.79476 -2.26596,13.74646 -3.13264,21.73168 -0.01,0.0808 -0.01,0.1512 -0.0248,0.224 -11.81836,-2.45666 -23.94288,-3.63768 -36.1305,-3.36798 -0.002,-0.0264 0.0248,-0.0534 0.0264,-0.0842 0.5899,-8.0104 1.17018,-16.05148 0.809,-22.00946 -0.1806,-2.97902 -0.6021,-5.45694 -1.37742,-7.16636 -0.38738,-0.85478 -0.84164,-1.49574 -1.42238,-1.93854 -0.46244,-0.35242 -1.05364,-0.4265 -1.65542,-0.48202 -0.27972,0.01 -0.55864,-0.002 -0.83844,0.01 -5.26542,0.21914 -10.51002,0.6592 -15.77668,1.31968 -0.30776,0.0384 -0.61316,0.0836 -0.9208,0.1244 -0.56002,0.1594 -1.1146,0.3625 -1.49952,0.77394 -0.499,0.53338 -0.87826,1.28728 -1.11804,2.19466 -0.47952,1.81472 -0.44954,4.27412 -0.1312,7.24152 0.63686,5.93484 2.52364,13.75104 4.44036,21.55104 0.01,0.0488 -0.01,0.0972 10e-4,0.1396 -11.792,1.72134 -23.4949,4.76638 -34.96296,9.25194 -0.016,-0.065 -0.0674,-0.1022 -0.0852,-0.1666 -2.18544,-7.72906 -4.34748,-15.4597 -6.72462,-20.93488 -1.18868,-2.73754 -2.45604,-4.87214 -3.76922,-6.21334 -0.6566,-0.67058 -1.3325,-1.12636 -2.02982,-1.34376 -0.60568,-0.1888 -1.2026,-0.0948 -1.8435,0.1074 -0.1924,0.0786 -0.39212,0.1516 -0.58382,0.23182 -5.01848,2.07434 -10.01034,4.25166 -14.92408,6.78762 z m 29.35059,56.87304 c 62.82024,-32.41976 140.02746,-7.77538 172.44732,55.04492 32.41976,62.8202 7.7753,140.0276 -55.04493,172.44724 -62.8202,32.41976 -140.0275,7.7754 -172.44722,-55.04484 -32.41978,-62.8202 -7.7754,-140.0276 55.04482,-172.44732 z"
       id="path4524-7-8"
       inkscape:connector-curvature="0" />
    <path
       style="fill:#666666;fill-opacity:1;fill-rule:nonzero;stroke:none"
       d="m 44.03125,412.625 c -0.540161,-0.029 -1.073405,0.08 -1.53125,0.3125 -0.65128,0.33066 -1.18317,0.88555 -1.71875,1.65625 -1.07128,1.54128 -1.97174,3.9151 -2.6875,6.8125 -1.43136,5.79476 -2.25832,13.73353 -3.125,21.71875 -0.01,0.0808 -0.01645,0.14595 -0.03125,0.21875 C 23.503623,440.96701 11.786898,439.79897 0,439.96875 L 0,472 c 47.208425,-0.87554 93.101157,24.48606 116.21875,69.28125 32.41976,62.8202 7.75773,140.01786 -55.0625,172.4375 C 41.564594,723.82947 20.59535,728.38546 0,727.96875 L 0,760 c 2.0404715,0.0356 4.0798365,0.0453 6.125,0 0.0019,0.026 0.0014,0.0638 0,0.0937 -0.5898,8.0104 -1.1737,16.0418 -0.8125,22 0.1806,2.9784 0.599665,5.44685 1.375,7.15625 0.38756,0.8546 0.82555,1.4947 1.40625,1.9375 0.4625,0.3526 1.05447,0.4446 1.65625,0.5 0.28016,-0.024 0.56355,0 0.84375,0 5.26546,-0.2182 10.51457,-0.68315 15.78125,-1.34375 0.30838,-0.034 0.59829,-0.0538 0.90625,-0.0937 0.5582,-0.166 1.1142,-0.37185 1.5,-0.78125 0.499,-0.5334 0.8853,-1.2801 1.125,-2.1875 0.47948,-1.8148 0.44328,-4.2828 0.125,-7.25 -0.63681,-5.9348 -2.52078,-13.7625 -4.4375,-21.5625 -0.012,-0.048 0.011,-0.081 0,-0.125 11.79186,-1.7216 23.50075,-4.7642 34.96875,-9.25 0.016,0.066 0.07535,0.0902 0.09375,0.15625 2.1854,7.729 4.34153,15.4623 6.71875,20.9375 1.18835,2.7376 2.46808,4.87775 3.78125,6.21875 0.65652,0.6704 1.33399,1.12635 2.03125,1.34375 0.6056,0.188 1.20297,0.11025 1.84375,-0.0937 0.192,-0.078 0.37029,-0.1732 0.5625,-0.25 5.01866,-2.074 10.02381,-4.24525 14.9375,-6.78125 0.71384,-0.3714 1.21296,-0.8915 1.5,-1.5625 0.28644,-0.672 0.36636,-1.53415 0.28125,-2.46875 -0.1702,-1.8694 -1.02973,-4.1956 -2.34375,-6.875 -2.62848,-5.3594 -7.0938,-12.04495 -11.5625,-18.71875 -0.0362,-0.058 -0.06655,-0.10025 -0.09375,-0.15625 10.87405,-5.8516 20.829815,-12.8044 29.75,-20.625 0.0412,0.048 0.0834,0.069 0.125,0.125 4.6971,6.5156 9.33108,13.01195 13.4375,17.34375 2.05314,2.166 3.99478,3.78235 5.6875,4.59375 0.84622,0.4052 1.67671,0.62815 2.40625,0.59375 0.57994,-0.028 1.06631,-0.3443 1.5625,-0.6875 0.20976,-0.188 0.38629,-0.40195 0.59375,-0.59375 3.92512,-3.5832 7.70169,-7.29525 11.28125,-11.15625 0.21154,-0.2264 0.41484,-0.42865 0.625,-0.65625 0.32656,-0.4812 0.5945,-0.96945 0.625,-1.53125 0.0392,-0.7296 -0.13189,-1.55705 -0.53125,-2.40625 -0.79898,-1.6986 -2.41118,-3.58785 -4.5625,-5.65625 -4.30266,-4.1368 -10.79909,-8.85055 -17.28125,-13.59375 -0.0582,-0.042 -0.0794,-0.081 -0.125,-0.125 8.12224,-9.1194 15.16822,-19.03091 20.9375,-29.59375 0.042,0.028 0.0828,0.0345 0.125,0.0625 6.64216,4.5158 13.25331,8.98981 18.59375,11.65625 2.67012,1.333 5.00698,2.22285 6.875,2.40625 0.93406,0.092 1.79481,0.002 2.46875,-0.28125 0.5932,-0.2484 0.98129,-0.7327 1.34375,-1.3125 0.0834,-0.16 0.16698,-0.30875 0.25,-0.46875 2.52924,-4.84484 4.92681,-9.7182 7.03125,-14.75 0.0396,-0.094 -0.007,-0.2185 0.0312,-0.3125 0.23556,-0.67 0.34901,-1.27165 0.15625,-1.90625 -0.21244,-0.6986 -0.67775,-1.37005 -1.34375,-2.03125 -1.33186,-1.3228 -3.45842,-2.63575 -6.1875,-3.84375 -5.45826,-2.416 -13.19295,-4.635 -20.90625,-6.875 -0.0616,-0.02 -0.1335,-0.0113 -0.1875,-0.0312 4.47798,-11.2624 7.6564,-23.02965 9.5,-35.03125 0.0556,0 0.1261,0.0465 0.1875,0.0625 7.7863,1.9722 15.60119,3.97745 21.53125,4.65625 2.96526,0.3396 5.43178,0.37205 7.25,-0.0937 0.90874,-0.2344 1.61929,-0.63 2.15625,-1.125 0.45904,-0.423 0.69519,-0.9832 0.84375,-1.625 0.024,-0.18 0.0695,-0.35265 0.0937,-0.53125 0.71302,-5.2874 1.1041,-10.6524 1.375,-16 0.014,-0.2886 0.0493,-0.55475 0.0625,-0.84375 -0.0508,-0.6026 -0.0883,-1.2221 -0.4375,-1.6875 -0.43876,-0.584 -1.11675,-1.07495 -1.96875,-1.46875 -1.70394,-0.7874 -4.14726,-1.2359 -7.125,-1.4375 -5.95524,-0.4034 -14.01695,0.1549 -22.03125,0.6875 -0.0502,0.002 -0.081,-10e-4 -0.125,0 0.36874,-12.0078 -0.62189,-24.1086 -3.03125,-36.125 0.0368,-0.022 0.0766,-0.0293 0.125,-0.0312 7.9911,-0.8102 15.97643,-1.6096 21.78125,-3 2.90229,-0.6952 5.29489,-1.53355 6.84375,-2.59375 0.77486,-0.5294 1.35242,-1.1008 1.6875,-1.75 0.26548,-0.5138 0.23558,-1.0883 0.1875,-1.6875 -0.0598,-0.2754 -0.095,-0.56795 -0.15625,-0.84375 -1.14362,-5.178 -2.53272,-10.34355 -4.125,-15.46875 -0.0756,-0.2412 -0.14281,-0.47775 -0.21875,-0.71875 -0.25414,-0.5468 -0.51396,-1.058 -1,-1.375 -0.61196,-0.3986 -1.3774,-0.64055 -2.3125,-0.71875 -1.87042,-0.158 -4.38304,0.296 -7.25,1.125 -5.73407,1.6578 -13.05771,4.91385 -20.40625,8.15625 -0.038,0.024 -0.0614,0.0425 -0.0937,0.0625 -2.60312,-7.8446 -5.87145,-15.58005 -9.78125,-23.15625 -1.72438,-3.3412 -3.54743,-6.61465 -5.46875,-9.78125 0.0528,-0.028 0.0978,-0.0598 0.15625,-0.0937 7.23206,-3.4946 14.42709,-6.92695 19.40625,-10.21875 2.48968,-1.6456 4.43857,-3.2863 5.53125,-4.8125 0.54642,-0.763 0.9071,-1.4629 1,-2.1875 0.0768,-0.5988 -0.1616,-1.21265 -0.4375,-1.78125 -0.1118,-0.176 -0.23251,-0.3244 -0.34375,-0.5 -2.88244,-4.5558 -5.95141,-8.91999 -9.15625,-13.15625 -0.1526,-0.20174 -0.28432,-0.39311 -0.4375,-0.59375 -0.43964,-0.46572 -0.93719,-0.92454 -1.53125,-1.0625 -0.7114,-0.1656 -1.50057,-0.1212 -2.40625,0.125 -1.81142,0.49176 -3.99613,1.77089 -6.40625,3.53125 -4.82126,3.51904 -10.57824,9.0652 -16.375,14.625 -0.0506,0.052 -0.0766,0.11225 -0.125,0.15625 -7.60406,-9.65448 -16.18287,-18.26852 -25.53125,-25.75 0.0372,-0.023 0.0607,-0.0566 0.0937,-0.0937 5.60094,-5.75692 11.16579,-11.51626 14.71875,-16.3125 1.77664,-2.39808 3.08885,-4.56714 3.59375,-6.375 0.25246,-0.90382 0.31657,-1.75623 0.15625,-2.46875 -0.1274,-0.56566 -0.5145,-0.97771 -0.9375,-1.40625 -0.22122,-0.1714 -0.4656,-0.32958 -0.6875,-0.5 -4.22682,-3.24786 -8.57243,-6.28663 -13.03125,-9.15625 -0.24326,-0.1564 -0.47503,-0.31351 -0.71875,-0.46875 -0.53358,-0.24116 -1.09421,-0.50562 -1.65625,-0.4375 -0.72512,0.0878 -1.45183,0.45918 -2.21875,1 -1.53374,1.0821 -3.11773,2.95968 -4.78125,5.4375 -3.32694,4.95578 -6.86077,12.16778 -10.40625,19.375 -0.036,0.0734 -0.05315,0.1273 -0.09375,0.1875 -10.34454,-6.37638 -21.36682,-11.5651 -32.8125,-15.4375 0.0326,-0.0662 0.092,-0.1129 0.125,-0.1875 3.29404,-7.32554 6.55166,-14.65278 8.25,-20.375 0.8492,-2.8611 1.30007,-5.31602 1.15625,-7.1875 -0.072,-0.9357 -0.32423,-1.69776 -0.71875,-2.3125 -0.39436,-0.61476 -0.95225,-1.06786 -1.71875,-1.3125 -5.24852,-1.67532 -10.59251,-3.02864 -15.96875,-4.25 -0.0998,-0.023 -0.18143,-0.13405 -0.28125,-0.15625 -0.181805,-0.0335 -0.382446,-0.0528 -0.5625,-0.0625 z"
       transform="translate(0,-3.63782)"
       id="path4524-7-2"
       inkscape:connector-curvature="0" />
    <path
       style="fill:#666666;fill-opacity:1;fill-rule:nonzero;stroke:none"
       d="m 44.03125,60.625 c -0.540161,-0.02903 -1.073405,0.07997 -1.53125,0.3125 -0.65128,0.33066 -1.18317,0.88555 -1.71875,1.65625 -1.07128,1.54128 -1.97174,3.9151 -2.6875,6.8125 -1.43136,5.79476 -2.25832,13.73353 -3.125,21.71875 -0.01,0.0808 -0.01645,0.14595 -0.03125,0.21875 C 23.503623,88.967012 11.786898,87.798966 0,87.96875 L 0,120 c 47.208433,-0.87554 93.101171,24.48606 116.21875,69.28125 32.41975,62.8202 7.75773,140.01786 -55.0625,172.4375 C 41.564588,371.82947 20.595353,376.38546 0,375.96875 L 0,408 c 2.0404715,0.0356 4.0798365,0.0453 6.125,0 0.0019,0.026 0.0014,0.0638 0,0.0937 -0.5898,8.0104 -1.1737,16.0418 -0.8125,22 0.1806,2.9784 0.599665,5.44685 1.375,7.15625 0.38756,0.8546 0.82555,1.4947 1.40625,1.9375 0.4625,0.3526 1.05447,0.4446 1.65625,0.5 0.28016,-0.024 0.56355,0 0.84375,0 5.26546,-0.2182 10.51457,-0.68315 15.78125,-1.34375 0.30838,-0.034 0.59829,-0.0537 0.90625,-0.0937 0.5582,-0.166 1.1142,-0.37185 1.5,-0.78125 0.499,-0.5334 0.8853,-1.2801 1.125,-2.1875 0.47948,-1.8148 0.44328,-4.2828 0.125,-7.25 -0.63681,-5.9348 -2.52078,-13.7625 -4.4375,-21.5625 -0.012,-0.048 0.011,-0.081 0,-0.125 11.79186,-1.7216 23.50075,-4.7642 34.96875,-9.25 0.016,0.066 0.07535,0.0903 0.09375,0.15625 2.1854,7.729 4.34153,15.4623 6.71875,20.9375 1.18835,2.7376 2.46808,4.87775 3.78125,6.21875 0.65652,0.6704 1.33399,1.12635 2.03125,1.34375 0.6056,0.188 1.20297,0.11025 1.84375,-0.0937 0.192,-0.078 0.37029,-0.1732 0.5625,-0.25 5.01866,-2.074 10.02381,-4.24525 14.9375,-6.78125 0.71384,-0.3714 1.21296,-0.8915 1.5,-1.5625 0.28644,-0.672 0.36636,-1.53415 0.28125,-2.46875 -0.1702,-1.8694 -1.02973,-4.1956 -2.34375,-6.875 -2.62848,-5.3594 -7.0938,-12.04495 -11.5625,-18.71875 -0.0362,-0.058 -0.06655,-0.10025 -0.09375,-0.15625 10.87405,-5.8516 20.829815,-12.8044 29.75,-20.625 0.0412,0.048 0.0834,0.069 0.125,0.125 4.6971,6.5156 9.33108,13.01195 13.4375,17.34375 2.05314,2.166 3.99478,3.78235 5.6875,4.59375 0.84622,0.4052 1.67671,0.62815 2.40625,0.59375 0.57994,-0.028 1.06631,-0.3443 1.5625,-0.6875 0.20976,-0.188 0.38629,-0.40195 0.59375,-0.59375 3.92512,-3.5832 7.70169,-7.29525 11.28125,-11.15625 0.21154,-0.2264 0.41484,-0.42865 0.625,-0.65625 0.32656,-0.4812 0.5945,-0.96945 0.625,-1.53125 0.0392,-0.7296 -0.13189,-1.55705 -0.53125,-2.40625 -0.79898,-1.6986 -2.41118,-3.58785 -4.5625,-5.65625 -4.30266,-4.1368 -10.79909,-8.85055 -17.28125,-13.59375 -0.0582,-0.042 -0.0794,-0.081 -0.125,-0.125 8.12224,-9.1194 15.16822,-19.03091 20.9375,-29.59375 0.042,0.028 0.0828,0.0345 0.125,0.0625 6.64216,4.5158 13.25331,8.98981 18.59375,11.65625 2.67012,1.333 5.00698,2.22285 6.875,2.40625 0.93406,0.092 1.79481,0.002 2.46875,-0.28125 0.5932,-0.2484 0.98129,-0.7327 1.34375,-1.3125 0.0834,-0.16 0.16698,-0.30875 0.25,-0.46875 2.52924,-4.84484 4.92681,-9.7182 7.03125,-14.75 0.0396,-0.094 -0.007,-0.2185 0.0312,-0.3125 0.23556,-0.67 0.34901,-1.27165 0.15625,-1.90625 -0.21244,-0.6986 -0.67775,-1.37005 -1.34375,-2.03125 -1.33186,-1.3228 -3.45842,-2.63575 -6.1875,-3.84375 -5.45826,-2.416 -13.19295,-4.635 -20.90625,-6.875 -0.0616,-0.02 -0.1335,-0.0113 -0.1875,-0.0312 4.47798,-11.2624 7.6564,-23.02965 9.5,-35.03125 0.0556,0 0.1261,0.0465 0.1875,0.0625 7.7863,1.9722 15.60119,3.97745 21.53125,4.65625 2.96526,0.3396 5.43178,0.37205 7.25,-0.0937 0.90874,-0.2344 1.61929,-0.63 2.15625,-1.125 0.45904,-0.423 0.69519,-0.9832 0.84375,-1.625 0.024,-0.18 0.0695,-0.35265 0.0937,-0.53125 0.71302,-5.2874 1.1041,-10.6524 1.375,-16 0.014,-0.2886 0.0493,-0.55475 0.0625,-0.84375 -0.0508,-0.6026 -0.0883,-1.2221 -0.4375,-1.6875 -0.43876,-0.584 -1.11675,-1.07495 -1.96875,-1.46875 -1.70394,-0.7874 -4.14726,-1.2359 -7.125,-1.4375 -5.95524,-0.4034 -14.01695,0.1549 -22.03125,0.6875 -0.0502,0.002 -0.081,-0.001 -0.125,0 0.36874,-12.0078 -0.62189,-24.1086 -3.03125,-36.125 0.0368,-0.022 0.0766,-0.0292 0.125,-0.0312 7.9911,-0.8102 15.97643,-1.6096 21.78125,-3 2.90229,-0.6952 5.29489,-1.53355 6.84375,-2.59375 0.77486,-0.5294 1.35242,-1.1008 1.6875,-1.75 0.26548,-0.5138 0.23558,-1.0883 0.1875,-1.6875 -0.0598,-0.2754 -0.095,-0.56795 -0.15625,-0.84375 -1.14362,-5.178 -2.53272,-10.34355 -4.125,-15.46875 -0.0756,-0.2412 -0.14281,-0.47775 -0.21875,-0.71875 -0.25414,-0.5468 -0.51396,-1.058 -1,-1.375 -0.61196,-0.3986 -1.3774,-0.64055 -2.3125,-0.71875 -1.87042,-0.158 -4.38304,0.296 -7.25,1.125 -5.73407,1.6578 -13.05771,4.91385 -20.40625,8.15625 -0.038,0.024 -0.0614,0.0425 -0.0937,0.0625 -2.60312,-7.8446 -5.87145,-15.58005 -9.78125,-23.15625 -1.72438,-3.3412 -3.54743,-6.61465 -5.46875,-9.78125 0.0528,-0.028 0.0978,-0.0598 0.15625,-0.0937 7.23206,-3.4946 14.42709,-6.92695 19.40625,-10.21875 2.48968,-1.6456 4.43857,-3.2863 5.53125,-4.8125 0.54642,-0.763 0.9071,-1.4629 1,-2.1875 0.0768,-0.5988 -0.1616,-1.21265 -0.4375,-1.78125 -0.1118,-0.176 -0.23251,-0.3244 -0.34375,-0.5 -2.88244,-4.5558 -5.95141,-8.91999 -9.15625,-13.15625 -0.1526,-0.20174 -0.28432,-0.39311 -0.4375,-0.59375 -0.43964,-0.46572 -0.93719,-0.92454 -1.53125,-1.0625 -0.7114,-0.1656 -1.50057,-0.1212 -2.40625,0.125 -1.81142,0.49176 -3.99613,1.77089 -6.40625,3.53125 -4.82126,3.51904 -10.57824,9.0652 -16.375,14.625 -0.0506,0.052 -0.0766,0.11225 -0.125,0.15625 -7.60406,-9.65448 -16.18287,-18.26852 -25.53125,-25.75 0.0372,-0.023 0.0607,-0.0566 0.0937,-0.0937 5.60094,-5.75692 11.16579,-11.51626 14.71875,-16.3125 1.77664,-2.39808 3.08885,-4.56714 3.59375,-6.375 0.25246,-0.90382 0.31657,-1.75623 0.15625,-2.46875 -0.1274,-0.56566 -0.5145,-0.97771 -0.9375,-1.40625 -0.22122,-0.1714 -0.4656,-0.32958 -0.6875,-0.5 -4.22682,-3.24786 -8.57243,-6.28663 -13.03125,-9.15625 -0.24326,-0.1564 -0.47503,-0.31351 -0.71875,-0.46875 -0.53358,-0.24116 -1.09421,-0.50562 -1.65625,-0.4375 -0.72512,0.0878 -1.45183,0.45918 -2.21875,1 -1.53374,1.0821 -3.11773,2.95968 -4.78125,5.4375 -3.32694,4.95578 -6.86077,12.16778 -10.40625,19.375 -0.036,0.0734 -0.05315,0.1273 -0.09375,0.1875 -10.34454,-6.37638 -21.36682,-11.5651 -32.8125,-15.4375 0.0326,-0.0662 0.092,-0.1129 0.125,-0.1875 3.29404,-7.32554 6.55166,-14.65278 8.25,-20.375 0.8492,-2.8611 1.30007,-5.31602 1.15625,-7.1875 -0.072,-0.9357 -0.32423,-1.69776 -0.71875,-2.3125 -0.39436,-0.61476 -0.95225,-1.06786 -1.71875,-1.3125 -5.24852,-1.67532 -10.59251,-3.02864 -15.96875,-4.25 -0.0998,-0.023 -0.18143,-0.13405 -0.28125,-0.15625 -0.181805,-0.03345 -0.382446,-0.05282 -0.5625,-0.0625 z"
       transform="translate(0,-3.63782)"
       id="path4524-7-48-5"
       inkscape:connector-curvature="0" />
    <path
       style="fill:#666666;fill-opacity:1;fill-rule:nonzero;stroke:none"
       d="m 604.03125,56.3125 c -5.26542,0.21914 -10.51459,0.65202 -15.78125,1.3125 -0.30776,0.0384 -0.59861,0.0842 -0.90625,0.125 -0.56002,0.1594 -1.11508,0.36981 -1.5,0.78125 -0.499,0.53338 -0.88522,1.28012 -1.125,2.1875 -0.47952,1.81472 -0.44334,4.2826 -0.125,7.25 0.63686,5.93484 2.52078,13.7625 4.4375,21.5625 0.01,0.0488 -0.011,0.0826 0,0.125 -11.792,1.72134 -23.50069,4.76444 -34.96875,9.25 -0.016,-0.065 -0.076,-0.09185 -0.0937,-0.15625 -2.18544,-7.72906 -4.34161,-15.46232 -6.71875,-20.9375 -1.18868,-2.73754 -2.46807,-4.87755 -3.78125,-6.21875 -0.6566,-0.67058 -1.33393,-1.12635 -2.03125,-1.34375 -0.60568,-0.1888 -1.20285,-0.10845 -1.84375,0.09375 -0.1924,0.0786 -0.3708,0.16978 -0.5625,0.25 -5.01848,2.07434 -10.02376,4.24529 -14.9375,6.78125 -0.71502,0.3689 -1.21347,0.85945 -1.5,1.53125 -0.28646,0.67188 -0.3663,1.53413 -0.28125,2.46875 0.16999,1.86924 1.02954,4.19542 2.34375,6.875 2.62825,5.3591 7.09368,12.04465 11.5625,18.71875 0.0364,0.0574 0.067,0.1321 0.0937,0.1875 -10.87392,5.85174 -20.82976,12.77339 -29.75,20.59375 -0.041,-0.0478 -0.0832,-0.0676 -0.125,-0.125 -4.69706,-6.5155 -9.33108,-12.98054 -13.4375,-17.3125 -2.05318,-2.1659 -3.99486,-3.78261 -5.6875,-4.59375 -0.84634,-0.40558 -1.67667,-0.62799 -2.40625,-0.59375 -0.57994,0.027 -1.06644,0.31295 -1.5625,0.65625 -0.20934,0.1894 -0.38539,0.40365 -0.59375,0.59375 -3.92515,3.58332 -7.70169,7.29523 -11.28125,11.15625 -0.2109,0.22764 -0.4153,0.45906 -0.625,0.6875 -0.32648,0.48136 -0.59464,0.93798 -0.625,1.5 -0.0394,0.72934 0.13167,1.55701 0.53125,2.40625 0.79896,1.69842 2.3799,3.61898 4.53125,5.6875 4.3027,4.137 10.79923,8.81936 17.28125,13.5625 0.0576,0.042 0.11025,0.11225 0.15625,0.15625 -8.12228,9.1194 -15.16824,19.03095 -20.9375,29.59375 -0.0418,-0.028 -0.0834,-0.0658 -0.125,-0.0937 -6.64222,-4.516 -13.25342,-8.95878 -18.59375,-11.625 -2.67018,-1.3332 -5.00698,-2.25408 -6.875,-2.4375 -0.93399,-0.092 -1.79484,-0.002 -2.46875,0.28125 -0.59322,0.24838 -0.98098,0.76455 -1.34375,1.34375 -0.0836,0.16 -0.16674,0.30917 -0.25,0.46875 -2.52914,4.84502 -4.92671,9.68715 -7.03125,14.71875 -0.0396,0.094 -0.0225,0.2181 -0.0625,0.3125 -0.2356,0.6702 -0.31787,1.27165 -0.125,1.90625 0.21239,0.6988 0.67782,1.4011 1.34375,2.0625 1.33182,1.3226 3.45842,2.63575 6.1875,3.84375 5.45818,2.4158 13.1929,4.60375 20.90625,6.84375 0.0618,0.02 0.13409,0.0445 0.1875,0.0625 -4.47798,11.2624 -7.65651,22.9982 -9.5,35 -0.0554,0 -0.1259,-0.0465 -0.1875,-0.0625 -7.78626,-1.972 -15.60106,-3.946 -21.53125,-4.625 -2.96507,-0.3394 -5.43194,-0.37185 -7.25,0.0937 -0.90878,0.2344 -1.65055,0.59855 -2.1875,1.09375 -0.45884,0.4234 -0.69527,1.01445 -0.84375,1.65625 -0.0244,0.178 -0.0385,0.35285 -0.0625,0.53125 -0.71302,5.2874 -1.10411,10.62115 -1.375,15.96875 -0.014,0.2886 -0.0493,0.5862 -0.0625,0.875 0.051,0.6028 0.0881,1.19085 0.4375,1.65625 0.43858,0.584 1.08559,1.07515 1.9375,1.46875 1.70389,0.7874 4.17861,1.2357 7.15625,1.4375 5.95528,0.4034 14.01693,-0.12365 22.03125,-0.65625 0.0502,-0.002 0.0812,0.001 0.125,0 -0.3687,12.0078 0.62195,24.1088 3.03125,36.125 -0.0368,0.024 -0.0758,-10e-4 -0.125,0 -7.9911,0.8102 -16.00772,1.6096 -21.8125,3 -2.9023,0.6952 -5.26358,1.5648 -6.8125,2.625 -0.77486,0.5294 -1.35242,1.06975 -1.6875,1.71875 -0.2655,0.5138 -0.23558,1.11975 -0.1875,1.71875 0.0594,0.27562 0.0953,0.5367 0.15625,0.8125 1.14362,5.178 2.50149,10.34355 4.09375,15.46875 0.0752,0.24122 0.17424,0.47793 0.25,0.71875 0.25426,0.54678 0.51398,1.08945 1,1.40625 0.61192,0.3988 1.3774,0.6091 2.3125,0.6875 1.87042,0.156 4.35177,-0.296 7.21875,-1.125 5.7341,-1.6576 13.08896,-4.91405 20.4375,-8.15625 0.038,-0.024 0.0616,-0.0425 0.0937,-0.0625 2.60312,7.8446 5.87142,15.58025 9.78125,23.15625 1.72433,3.3412 3.54752,6.61485 5.46875,9.78125 -0.0528,0.028 -0.0978,0.0598 -0.15625,0.0937 -7.23206,3.4944 -14.45834,6.92675 -19.4375,10.21875 -2.48968,1.6456 -4.40734,3.31755 -5.5,4.84375 -0.54644,0.763 -0.907,1.4631 -1,2.1875 -0.0768,0.5988 0.13011,1.1816 0.40625,1.75 0.11,0.176 0.23283,0.35565 0.34375,0.53125 2.88244,4.5558 5.98266,8.8888 9.1875,13.125 0.1526,0.2018 0.28433,0.39315 0.4375,0.59375 0.43971,0.4658 0.9372,0.9245 1.53125,1.0625 0.71142,0.166 1.50058,0.121 2.40625,-0.125 1.81142,-0.4918 3.99613,-1.7396 6.40625,-3.5 4.82127,-3.519 10.57828,-9.09625 16.375,-14.65625 0.0506,-0.052 0.0754,-0.083 0.125,-0.125 7.60392,9.6544 16.18285,18.23735 25.53125,25.71875 -0.0372,0.024 -0.0606,0.087 -0.0937,0.125 -5.60086,5.7572 -11.16571,11.5163 -14.71875,16.3125 -1.77654,2.398 -3.08887,4.53595 -3.59375,6.34375 -0.25239,0.904 -0.31647,1.75635 -0.15625,2.46875 0.12739,0.5656 0.51434,0.97765 0.9375,1.40625 0.22124,0.172 0.46546,0.3294 0.6875,0.5 4.22672,3.2478 8.57253,6.3181 13.03125,9.1875 0.24308,0.156 0.47501,0.31357 0.71875,0.46875 0.53356,0.24122 1.06292,0.47447 1.625,0.40625 0.72506,-0.088 1.48305,-0.4592 2.25,-1 1.53374,-1.082 3.11778,-2.95952 4.78125,-5.4375 3.32695,-4.9558 6.86079,-12.13657 10.40625,-19.34375 0.036,-0.074 0.0531,-0.15875 0.0937,-0.21875 10.3445,6.3764 21.3668,11.5651 32.8125,15.4375 -0.0332,0.064 -0.0928,0.1115 -0.125,0.1875 -3.29422,7.3254 -6.55183,14.6524 -8.25,20.375 -0.84914,2.8612 -1.30003,5.34755 -1.15625,7.21875 0.0718,0.9356 0.32418,1.6977 0.71875,2.3125 0.39443,0.6148 0.95239,1.03685 1.71875,1.28125 5.24858,1.6756 10.59244,3.05985 15.96875,4.28125 0.1,0.026 0.18123,0.105 0.28125,0.125 0.72724,0.134 1.48333,0.0924 2.09375,-0.21875 0.65149,-0.3304 1.18306,-0.9169 1.71875,-1.6875 1.07126,-1.5414 1.97182,-3.88385 2.6875,-6.78125 1.43144,-5.7944 2.25837,-13.7646 3.125,-21.75 0.012,-0.082 0.0181,-0.14495 0.0312,-0.21875 9.83506,2.0442 19.88089,3.19834 30,3.375 l 0,-32.03125 C 564.24432,375.0493 520.71527,349.91607 498.40625,306.6875 465.98648,243.8673 490.61727,166.66972 553.4375,134.25 c 18.02509,-9.30224 37.25383,-13.89769 56.25,-14.25 l 0,-32.03125 c -0.39635,0.0057 -0.791,-0.0088 -1.1875,0 -0.002,-0.0264 -0.002,-0.0317 0,-0.0625 0.5899,-8.0104 1.17368,-16.07327 0.8125,-22.03125 -0.1806,-2.97902 -0.59968,-5.44683 -1.375,-7.15625 -0.38738,-0.85478 -0.82551,-1.4947 -1.40625,-1.9375 -0.46244,-0.35242 -1.05447,-0.41323 -1.65625,-0.46875 -0.27972,0.01 -0.56395,-0.012 -0.84375,0 z"
       transform="translate(0,-3.63782)"
       id="path4524-7-48-5-2"
       inkscape:connector-curvature="0" />
  </g>
</svg>
