<?xml version="1.0" encoding="UTF-8" standalone="no"?>
<!-- Created with Inkscape (http://www.inkscape.org/) -->

<svg
   xmlns:dc="http://purl.org/dc/elements/1.1/"
   xmlns:cc="http://creativecommons.org/ns#"
   xmlns:rdf="http://www.w3.org/1999/02/22-rdf-syntax-ns#"
   xmlns:svg="http://www.w3.org/2000/svg"
   xmlns="http://www.w3.org/2000/svg"
   xmlns:xlink="http://www.w3.org/1999/xlink"
   xmlns:sodipodi="http://sodipodi.sourceforge.net/DTD/sodipodi-0.dtd"
   xmlns:inkscape="http://www.inkscape.org/namespaces/inkscape"
   width="128"
   height="128"
   id="svg2"
   version="1.1"
   inkscape:version="0.48.2 r9819"
   sodipodi:docname="gearcrate_logo.svg"
   inkscape:export-filename="D:\Photos\Vector Art\gearcrate_logo128.png"
   inkscape:export-xdpi="90"
   inkscape:export-ydpi="90">
  <title
     id="title5366">gearcrate</title>
  <defs
     id="defs4">
    <linearGradient
       id="linearGradient5275">
      <stop
         style="stop-color:#ff0f01;stop-opacity:1;"
         offset="0"
         id="stop5277" />
      <stop
         id="stop3783"
         offset="0.2"
         style="stop-color:#e07400;stop-opacity:1;" />
      <stop
         id="stop3781"
         offset="0.40000001"
         style="stop-color:#bfd000;stop-opacity:1;" />
      <stop
         id="stop3779"
         offset="0.60000002"
         style="stop-color:#00b82f;stop-opacity:1;" />
      <stop
         id="stop3787"
         offset="0.80000001"
         style="stop-color:#0800a0;stop-opacity:1;" />
      <stop
         style="stop-color:#88006d;stop-opacity:1;"
         offset="1"
         id="stop5279" />
    </linearGradient>
    <linearGradient
       id="linearGradient5265">
      <stop
         style="stop-color:#ffffff;stop-opacity:1;"
         offset="0"
         id="stop5267" />
      <stop
         style="stop-color:#ffffff;stop-opacity:0;"
         offset="1"
         id="stop5269" />
    </linearGradient>
    <linearGradient
       inkscape:collect="always"
       xlink:href="#linearGradient5265"
       id="linearGradient5273"
       x1="154.80904"
       y1="990.38342"
       x2="275.1741"
       y2="990.38342"
       gradientUnits="userSpaceOnUse" />
    <linearGradient
       inkscape:collect="always"
       xlink:href="#linearGradient5275"
       id="linearGradient5281"
       x1="5.0721383e-010"
       y1="988.36479"
       x2="127.9942"
       y2="988.36479"
       gradientUnits="userSpaceOnUse" />
    <linearGradient
       inkscape:collect="always"
       xlink:href="#linearGradient5275-4"
       id="linearGradient5281-2"
       x1="5.0721383e-010"
       y1="988.36481"
       x2="127.9942"
       y2="988.36481"
       gradientUnits="userSpaceOnUse" />
    <linearGradient
       id="linearGradient5275-4">
      <stop
         style="stop-color:#a0a0a0;stop-opacity:1;"
         offset="0"
         id="stop5277-5" />
      <stop
         style="stop-color:#404040;stop-opacity:1;"
         offset="1"
         id="stop5279-5" />
    </linearGradient>
    <linearGradient
       inkscape:collect="always"
       xlink:href="#linearGradient5275"
       id="linearGradient5327"
       gradientUnits="userSpaceOnUse"
       x1="5.0721383e-010"
       y1="988.36479"
       x2="127.9942"
       y2="988.36479"
       gradientTransform="matrix(1.0233921,0,0,1.0233964,0,-21.621575)" />
    <linearGradient
       inkscape:collect="always"
       xlink:href="#linearGradient5265"
       id="linearGradient5329"
       gradientUnits="userSpaceOnUse"
       x1="154.80904"
       y1="990.38342"
       x2="275.1741"
       y2="990.38342"
       gradientTransform="matrix(1.0233921,0,0,1.0233964,-3.5976153,-21.745654)" />
    <linearGradient
       inkscape:collect="always"
       xlink:href="#linearGradient5275-1"
       id="linearGradient5281-7"
       x1="5.0721383e-010"
       y1="988.36481"
       x2="127.9942"
       y2="988.36481"
       gradientUnits="userSpaceOnUse" />
    <linearGradient
       id="linearGradient5275-1">
      <stop
         style="stop-color:#a0a0a0;stop-opacity:1;"
         offset="0"
         id="stop5277-1" />
      <stop
         style="stop-color:#404040;stop-opacity:1;"
         offset="1"
         id="stop5279-52" />
    </linearGradient>
    <linearGradient
       y2="988.36481"
       x2="127.9942"
       y1="988.36481"
       x1="5.0721383e-010"
       gradientUnits="userSpaceOnUse"
       id="linearGradient5303"
       xlink:href="#linearGradient5275-1"
       inkscape:collect="always" />
    <radialGradient
       inkscape:collect="always"
       xlink:href="#linearGradient5275"
       id="radialGradient3789"
       cx="4.2843003"
       cy="928.39642"
       fx="4.2843003"
       fy="928.39642"
       r="62.534302"
       gradientTransform="matrix(-8.1625018e-7,2.2951216,-2.2991945,-8.1769868e-7,2138.8483,918.56409)"
       gradientUnits="userSpaceOnUse" />
    <radialGradient
       inkscape:collect="always"
       xlink:href="#linearGradient5265"
       id="radialGradient3791"
       cx="160.47809"
       cy="933.86823"
       fx="160.47809"
       fy="933.86823"
       r="60.182533"
       gradientTransform="matrix(0,2.7001912,-2.5931643,0,2582.9673,502.87609)"
       gradientUnits="userSpaceOnUse" />
    <filter
       inkscape:collect="always"
       id="filter3845">
      <feGaussianBlur
         inkscape:collect="always"
         stdDeviation="0.62533809"
         id="feGaussianBlur3847" />
    </filter>
    <filter
       inkscape:collect="always"
       id="filter3881">
      <feGaussianBlur
         inkscape:collect="always"
         stdDeviation="0.78237298"
         id="feGaussianBlur3883" />
    </filter>
  </defs>
  <sodipodi:namedview
     id="base"
     pagecolor="#ffffff"
     bordercolor="#666666"
     borderopacity="1.0"
     inkscape:pageopacity="0.0"
     inkscape:pageshadow="2"
     inkscape:zoom="1"
     inkscape:cx="83.450057"
     inkscape:cy="26.321197"
     inkscape:document-units="px"
     inkscape:current-layer="layer1"
     showgrid="false"
     inkscape:window-width="1471"
     inkscape:window-height="1073"
     inkscape:window-x="296"
     inkscape:window-y="166"
     inkscape:window-maximized="0" />
  <metadata
     id="metadata7">
    <rdf:RDF>
      <cc:Work
         rdf:about="">
        <dc:format>image/svg+xml</dc:format>
        <dc:type
           rdf:resource="http://purl.org/dc/dcmitype/StillImage" />
        <dc:title>gearcrate</dc:title>
      </cc:Work>
    </rdf:RDF>
  </metadata>
  <g
     inkscape:label="Layer 1"
     inkscape:groupmode="layer"
     id="layer1"
     transform="translate(0,-924.36218)">
    <g
       id="g3890">
      <path
         transform="matrix(0.99945169,0,0,0.99946701,0,0.56089578)"
         inkscape:connector-curvature="0"
         id="path3759-1"
         d="m 58.595794,925.79477 c -27.738244,0.0733 -53.9713402,0.71703 -55.1780184,1.92369 -0.9038861,0.90395 -1.4721072,15.92931 -1.7405351,35.02436 -0.065664,4.67091 -0.12504,9.47941 -0.1526785,14.50444 -0.00254,0.45164 0.00215,0.85842 0,1.31299 -0.1572867,32.55005 0.465837,68.95725 1.8932136,70.38465 1.4260496,1.4261 37.7663144,2.0488 70.2931924,1.8932 0.486138,0 0.921728,0 1.404642,0 5.002921,-0.027 9.79087,-0.087 14.443388,-0.1527 19.124622,-0.268 34.180662,-0.8356 35.085522,-1.7405 1.20667,-1.2066 1.84958,-27.4379 1.92375,-55.17794 0.003,-1.07163 -9.8e-4,-2.13133 0,-3.20618 0.002,-4.20492 -0.009,-8.42313 -0.0305,-12.58066 -0.13288,-25.84805 -0.75802,-49.12642 -1.89321,-50.26166 -1.13521,-1.13514 -24.41487,-1.76119 -50.261768,-1.8932 -3.417517,-0.0176 -6.88906,-0.0303 -10.351604,-0.0303 -1.823103,0 -3.618808,0 -5.435355,0 z m 3.572678,15.63422 c 1.232987,3.59059 2.756323,7.1206 4.549819,10.59579 0.842463,1.63241 1.717944,3.24703 2.656607,4.79414 -0.0258,0.0137 -0.06312,0.0137 -0.09156,0.0303 -3.533376,1.70725 -7.033393,3.39956 -9.466068,5.00783 -1.216376,0.80409 -2.183835,1.60554 -2.717677,2.35119 -0.266975,0.37278 -0.412599,0.71488 -0.458036,1.0688 -0.03752,0.29245 0.04837,0.57719 0.183214,0.85499 0.05364,0.086 0.129022,0.18908 0.183215,0.27477 1.408267,2.22592 2.922955,4.3428 4.488748,6.41257 0.07456,0.0985 0.13892,0.20725 0.21375,0.30536 0.214825,0.22748 0.442616,0.42105 0.732857,0.48857 0.347579,0.0811 0.748403,0.0596 1.190892,-0.0606 0.884998,-0.24027 1.937127,-0.84991 3.114642,-1.70999 2.355529,-1.71927 5.168244,-4.42898 8.000354,-7.14542 0.02472,-0.0254 0.03684,-0.041 0.06107,-0.0606 3.715057,4.71684 7.891207,8.89499 12.458567,12.55017 -0.01817,0.0108 -0.01436,0.043 -0.03049,0.0606 -2.736419,2.81279 -5.439977,5.62646 -7.17589,7.96983 -0.867976,1.17159 -1.524401,2.2313 -1.771071,3.11463 -0.123316,0.44167 -0.139389,0.84278 -0.06107,1.19084 0.06224,0.27634 0.251292,0.49287 0.458036,0.70237 0.108092,0.084 0.22742,0.16084 0.335893,0.24428 2.065054,1.58668 4.173024,3.08678 6.351426,4.48868 0.118762,0.0762 0.247344,0.13788 0.366429,0.2138 0.260682,0.11775 0.519312,0.24692 0.793928,0.2137 0.354234,-0.043 0.694035,-0.22435 1.06875,-0.48857 0.749341,-0.52863 1.53852,-1.44597 2.351249,-2.65654 1.625447,-2.42126 3.367252,-5.94482 5.099462,-9.46603 0.01759,-0.0362 0.01065,-0.0625 0.03049,-0.0919 4.998622,3.08111 10.321792,5.59607 15.848032,7.48116 -1.9e-4,0.15556 2.3e-4,0.30253 0,0.45809 -1.56293,3.47822 -3.1021,6.93154 -3.90857,9.6492 -0.41487,1.3979 -0.61989,2.5975 -0.54965,3.5117 0.0351,0.4571 0.14312,0.8294 0.3359,1.1298 0.1927,0.3003 0.48058,0.5218 0.855,0.6413 1.04109,0.3323 2.09378,0.6293 3.14517,0.916 -0.19412,14.8384 -0.61813,26.6345 -1.31303,27.3293 -0.22283,0.2229 -1.61397,0.4394 -3.8475,0.6107 -0.13515,-2.145 -0.33619,-4.2706 -0.61071,-6.3819 -0.0159,-0.1225 -0.0447,-0.2442 -0.0611,-0.3664 -0.0739,-0.3041 -0.17826,-0.6221 -0.39697,-0.8245 -0.26186,-0.2424 -0.59429,-0.4042 -1.03821,-0.5191 -0.88782,-0.2296 -2.12372,-0.2247 -3.57268,-0.061 -2.897928,0.3263 -6.667824,1.2727 -10.473746,2.229 -0.034,0.01 -0.06039,0.024 -0.09156,0.03 -0.89005,-5.9379 -2.454562,-11.6315 -4.610891,-17.0694 0.02111,-2e-4 0.03801,-0.023 0.06107,-0.03 3.770549,-1.0874 7.530046,-2.1835 10.198925,-3.3589 1.334447,-0.5877 2.401682,-1.1872 3.053573,-1.8322 0.325945,-0.3224 0.567369,-0.6665 0.671789,-1.0077 0.0829,-0.2709 0.0147,-0.5707 -0.0611,-0.855 -0.0524,-0.1263 -0.13029,-0.2404 -0.18321,-0.3664 -1.007609,-2.4015 -2.100231,-4.75659 -3.297858,-7.05378 -0.06527,-0.12527 -0.117354,-0.24157 -0.183214,-0.36644 -0.168059,-0.23149 -0.355709,-0.47304 -0.610714,-0.58013 -0.328994,-0.13827 -0.734489,-0.13553 -1.190892,-0.0919 -0.912827,0.0879 -2.022627,0.48095 -3.328392,1.12978 -2.61155,1.29784 -5.850357,3.50997 -9.09964,5.71037 -0.03303,0.022 -0.0598,0.045 -0.09156,0.061 -2.846582,-5.21038 -6.278893,-10.09062 -10.198925,-14.50465 0.0298,-0.0205 0.05941,-0.0371 0.09156,-0.0606 3.171219,-2.31142 6.352472,-4.60887 8.45839,-6.62617 1.052959,-1.0087 1.837126,-1.94969 2.229107,-2.77879 0.195985,-0.4145 0.26287,-0.80399 0.244285,-1.16035 -0.01857,-0.35636 -0.161443,-0.65722 -0.4275,-0.94655 -1.821872,-1.98154 -3.754768,-3.89048 -5.740712,-5.71021 -0.03684,-0.0342 -0.05462,-0.0889 -0.09156,-0.12214 -0.27618,-0.23295 -0.582016,-0.38069 -0.916071,-0.39691 -0.356423,-0.0176 -0.746498,0.10787 -1.160357,0.30535 -0.827728,0.39477 -1.773651,1.17267 -2.778749,2.22905 -2.010178,2.11277 -4.294962,5.27938 -6.595712,8.45841 -0.02335,0.0322 -0.03782,0.0645 -0.06107,0.0919 -4.420905,-3.90338 -9.266887,-7.33265 -14.504459,-10.1684 0.0059,-0.0117 0.02228,-0.0186 0.03049,-0.0303 2.189386,-3.2567 4.390692,-6.54478 5.679641,-9.16067 0.644474,-1.308 1.045034,-2.44578 1.129821,-3.35892 0.04241,-0.45651 0.0172,-0.86242 -0.122143,-1.19093 -0.110925,-0.26148 -0.338238,-0.41089 -0.580178,-0.58013 -0.121254,-0.0635 -0.244862,-0.15097 -0.366429,-0.2138 -2.287637,-1.18145 -4.628216,-2.27272 -7.023212,-3.26725 -0.139926,-0.0577 -0.287221,-0.0948 -0.427499,-0.15273 -0.27617,-0.0684 -0.561506,-0.11198 -0.824464,-0.0303 -0.340886,0.10563 -0.655751,0.31425 -0.977143,0.64129 -0.642784,0.6541 -1.248964,1.71713 -1.832142,3.05356 -1.166357,2.67287 -2.253691,6.45527 -3.328394,10.22947 -0.0068,0.0235 -0.02443,0.041 -0.03049,0.0606 -5.421069,-2.12401 -11.116745,-3.67736 -17.069458,-4.54985 0.0078,-0.0322 -0.0078,-0.0596 0,-0.0918 0.94349,-3.80908 1.882055,-7.60526 2.198571,-10.50424 0.158258,-1.44949 0.141021,-2.65508 -0.09156,-3.54213 -0.116319,-0.44352 -0.275798,-0.8077 -0.519107,-1.06879 -0.211346,-0.2267 -0.50355,-0.32754 -0.824464,-0.39691 -0.100606,-0.0127 -0.204643,-0.0479 -0.305357,-0.0606 -1.99382,-0.25337 -3.990601,-0.46726 -6.015533,-0.61071 0.168967,-2.15605 0.361718,-3.50685 0.580178,-3.72534 0.695882,-0.69592 12.523039,-1.12263 27.390528,-1.31308 0.219369,0.78543 0.428213,1.56724 0.671786,2.35129 0.03664,0.11785 0.08511,0.24868 0.122143,0.36643 0.124224,0.26705 0.251115,0.517 0.488571,0.67178 0.298966,0.19484 0.672958,0.29764 1.129821,0.33584 0.913833,0.0772 2.141418,-0.14461 3.542142,-0.54964 2.379361,-0.6878 5.332042,-1.93864 8.366782,-3.26725 0.641358,0 1.250342,-0.0303 1.893214,-0.0303 z m 16.855708,0.0918 c 16.293979,0.16719 29.73119,0.60016 30.47463,1.34356 0.7439,0.7439 1.17356,14.19675 1.34357,30.50509 -12.593632,-5.56334 -23.422025,-15.2972 -30.230343,-28.48974 -0.57116,-1.10671 -1.089006,-2.23442 -1.587857,-3.35891 z m -61.834802,36.33733 c 30.754869,2.49669 54.833195,27.04808 57.223911,57.31548 -25.160179,0.1771 -54.732608,-0.2569 -55.849804,-1.3742 -1.118545,-1.1184 -1.553051,-30.7617 -1.374107,-55.94128 z"
         style="fill:#000000;fill-opacity:1;stroke:none;filter:url(#filter3845)" />
      <path
         inkscape:connector-curvature="0"
         id="path3759"
         d="m 57.094981,924.3643 c -27.738247,0.0737 -53.9713385,0.71707 -55.1780166,1.92374 -0.9038865,0.90389 -1.47210754,15.92931 -1.74053506,35.02431 -0.0656609,4.67089 -0.12504069,9.47937 -0.15267852,14.5044 -0.0025814,0.45168 0.0021964,0.85848 0,1.31303 -0.15728691,32.54982 0.46583642,68.95712 1.89321358,70.38442 1.4260491,1.4262 37.7663146,2.0489 70.2931896,1.8932 0.486142,0 0.921728,0 1.404642,0 5.002917,-0.027 9.790868,-0.087 14.443388,-0.1526 19.124626,-0.268 34.180666,-0.8356 35.085526,-1.7406 1.20668,-1.2065 1.84959,-27.4378 1.92375,-55.17771 0.003,-1.07161 -9.8e-4,-2.13138 0,-3.20623 0.002,-4.20487 -0.009,-8.42309 -0.0305,-12.58066 -0.13288,-25.84801 -0.75801,-49.12636 -1.89321,-50.26156 -1.1352,-1.1352 -24.414873,-1.76119 -50.261772,-1.8932 -3.41752,-0.0174 -6.889058,-0.0305 -10.351603,-0.0305 -1.823099,0 -3.618811,-0.005 -5.435355,0 z m 3.572677,15.63422 c 1.232986,3.59059 2.756329,7.12058 4.54982,10.59584 0.842468,1.63241 1.717941,3.24703 2.656606,4.79409 -0.02577,0.0137 -0.06308,0.0137 -0.09161,0.0305 -3.533381,1.70729 -7.03339,3.39956 -9.466068,5.00784 -1.216379,0.80407 -2.183834,1.60555 -2.717678,2.35124 -0.266977,0.37276 -0.412593,0.7148 -0.458035,1.06874 -0.03748,0.2925 0.04833,0.57723 0.183214,0.855 0.05369,0.0861 0.129024,0.1891 0.183214,0.27482 1.408273,2.22581 2.922957,4.34277 4.488749,6.41247 0.07455,0.0985 0.138916,0.20731 0.21375,0.30536 0.214829,0.22753 0.442618,0.42112 0.732856,0.48857 0.34758,0.0809 0.748406,0.0592 1.190893,-0.0611 0.885002,-0.24024 1.937125,-0.8499 3.114642,-1.70999 2.355528,-1.71927 5.168243,-4.42896 8.000354,-7.14532 0.02468,-0.0254 0.03682,-0.0405 0.06107,-0.0611 3.71506,4.71675 7.891209,8.89489 12.458568,12.55012 -0.01816,0.0112 -0.01438,0.0429 -0.03054,0.0611 -2.736417,2.81274 -5.439979,5.62649 -7.175891,7.96978 -0.867971,1.17162 -1.524399,2.23136 -1.77107,3.11463 -0.123315,0.44167 -0.139391,0.84283 -0.06107,1.19089 0.06223,0.27633 0.251288,0.49289 0.458036,0.70232 0.108087,0.0836 0.227417,0.16091 0.335893,0.24428 2.065054,1.58672 4.173022,3.08682 6.351426,4.48873 0.118764,0.0764 0.247348,0.1379 0.366428,0.21375 0.26068,0.1178 0.519314,0.24699 0.793929,0.21375 0.354235,-0.0429 0.694036,-0.22432 1.068749,-0.48857 0.749339,-0.52867 1.538521,-1.44596 2.351249,-2.65659 1.625448,-2.42125 3.36725,-5.9448 5.099463,-9.46603 0.01758,-0.036 0.01064,-0.0622 0.03054,-0.0916 4.998625,3.08113 10.321793,5.59606 15.848033,7.48122 -1.8e-4,0.15556 2.4e-4,0.30254 0,0.45803 -1.56293,3.4783 -3.10209,6.93155 -3.90857,9.6492 -0.41486,1.39787 -0.61989,2.59747 -0.54964,3.51167 0.0351,0.4571 0.14311,0.8294 0.33589,1.1297 0.1927,0.3004 0.48058,0.5219 0.855,0.6413 1.0411,0.3324 2.09378,0.6294 3.14518,0.9161 -0.19413,14.8383 -0.61813,26.6345 -1.31304,27.3293 -0.22282,0.2229 -1.61396,0.4394 -3.8475,0.6107 -0.13514,-2.145 -0.33618,-4.2706 -0.61071,-6.3819 -0.0159,-0.1225 -0.0447,-0.2442 -0.0611,-0.3664 -0.0739,-0.3041 -0.17825,-0.6222 -0.39697,-0.8245 -0.26186,-0.2424 -0.59428,-0.4043 -1.03821,-0.5191 -0.88782,-0.2296 -2.123721,-0.2247 -3.572677,-0.061 -2.897935,0.3264 -6.667832,1.2728 -10.47375,2.2291 -0.03401,0.01 -0.0604,0.023 -0.09161,0.03 -0.890054,-5.9379 -2.454564,-11.6315 -4.610891,-17.0695 0.02111,-10e-5 0.03798,-0.022 0.06107,-0.03 3.770545,-1.0874 7.530049,-2.1836 10.198925,-3.359 1.334447,-0.5876 2.401683,-1.1871 3.05357,-1.8321 0.325948,-0.3224 0.567372,-0.6665 0.671786,-1.0077 0.08284,-0.2709 0.0147,-0.5708 -0.06107,-0.855 -0.0524,-0.1264 -0.130294,-0.2404 -0.183214,-0.3664 -1.007606,-2.4015 -2.100229,-4.75656 -3.297856,-7.05372 -0.06529,-0.12527 -0.117357,-0.24152 -0.183214,-0.36642 -0.168063,-0.2315 -0.355712,-0.47303 -0.610714,-0.58018 -0.328992,-0.13824 -0.734484,-0.13554 -1.190893,-0.0916 -0.912827,0.0879 -2.022621,0.48095 -3.328391,1.12982 -2.611552,1.29784 -5.850353,3.50979 -9.09964,5.71026 -0.03303,0.022 -0.05979,0.045 -0.09161,0.061 -2.846582,-5.21016 -6.27889,-10.09042 -10.198925,-14.50442 0.02982,-0.0202 0.05937,-0.0376 0.09161,-0.0611 3.171218,-2.31148 6.352476,-4.6089 8.45839,-6.62622 1.052962,-1.00865 1.837125,-1.94969 2.229106,-2.77874 0.195982,-0.41452 0.262874,-0.80399 0.244286,-1.16035 -0.01855,-0.35637 -0.16144,-0.65725 -0.4275,-0.94661 -1.821869,-1.98147 -3.75477,-3.89043 -5.740712,-5.71015 -0.03684,-0.0338 -0.05467,-0.0885 -0.09161,-0.12214 -0.276181,-0.23294 -0.582018,-0.38068 -0.916071,-0.39696 -0.356422,-0.0174 -0.746495,0.10791 -1.160357,0.30535 -0.827724,0.39478 -1.773655,1.17273 -2.778749,2.2291 -2.010178,2.11273 -4.294963,5.27934 -6.595712,8.45835 -0.02336,0.0323 -0.03786,0.0641 -0.06107,0.0916 -4.420907,-3.90338 -9.266888,-7.33259 -14.504459,-10.16834 0.0058,-0.0118 0.02224,-0.0182 0.03054,-0.0305 2.189386,-3.25671 4.390694,-6.54476 5.679641,-9.16067 0.644478,-1.30796 1.045035,-2.44581 1.129821,-3.35892 0.04243,-0.45655 0.01724,-0.86238 -0.122143,-1.19088 -0.110925,-0.26151 -0.338237,-0.41095 -0.580178,-0.58018 -0.121254,-0.0633 -0.244867,-0.15096 -0.366429,-0.21375 -2.287638,-1.18155 -4.62822,-2.27274 -7.023212,-3.26731 -0.13993,-0.0581 -0.287223,-0.0953 -0.4275,-0.15267 -0.27617,-0.0682 -0.561502,-0.11206 -0.824464,-0.0305 -0.340882,0.10557 -0.655752,0.31421 -0.977142,0.64125 -0.642781,0.65406 -1.248966,1.71714 -1.832142,3.05355 -1.166355,2.67284 -2.25369,6.45523 -3.328392,10.22942 -0.0066,0.0234 -0.02442,0.0408 -0.03054,0.0611 -5.421071,-2.12393 -11.116743,-3.67735 -17.069458,-4.5498 0.0079,-0.0318 -0.0078,-0.0598 0,-0.0916 0.943492,-3.80912 1.882054,-7.60523 2.19857,-10.50423 0.158259,-1.44951 0.141027,-2.65508 -0.09161,-3.54213 -0.116317,-0.44352 -0.275797,-0.8077 -0.519107,-1.06875 -0.211345,-0.22674 -0.503547,-0.32757 -0.824464,-0.39696 -0.100607,-0.0131 -0.204644,-0.0483 -0.305357,-0.0611 -1.993819,-0.25338 -3.990599,-0.46724 -6.015533,-0.61071 0.168965,-2.15608 0.361721,-3.50688 0.580178,-3.72534 0.695879,-0.69587 12.523041,-1.1226 27.390526,-1.31303 0.219367,0.7854 0.428212,1.56722 0.671786,2.35124 0.03669,0.11789 0.08514,0.24872 0.122143,0.36643 0.124225,0.26709 0.251118,0.51701 0.488571,0.67178 0.298968,0.19484 0.672958,0.2976 1.129821,0.33589 0.913833,0.0767 2.141415,-0.14462 3.542142,-0.54964 2.379363,-0.68786 5.332041,-1.93868 8.366782,-3.26731 0.641358,-0.002 1.250346,-0.0298 1.893214,-0.0305 z m 16.855709,0.0916 c 16.293978,0.16719 29.731193,0.60012 30.474633,1.34356 0.7439,0.7439 1.17356,14.19672 1.34357,30.50504 -12.593634,-5.56329 -23.422029,-15.29717 -30.230347,-28.48969 -0.571162,-1.10675 -1.089003,-2.23446 -1.587856,-3.35891 z m -61.834801,36.33733 c 30.75487,2.49664 54.833192,27.04799 57.223909,57.31529 -25.16018,0.1772 -54.732608,-0.2568 -55.849802,-1.3741 -1.118543,-1.1184 -1.553053,-30.7617 -1.374107,-55.94119 z"
         style="fill:url(#radialGradient3789);fill-opacity:1;stroke:none" />
      <path
         transform="matrix(0.98006071,0,0,0.98006071,-149.88201,14.549502)"
         d="m 272.28125,930.21875 c 0.011,0.0391 -0.031,0.17512 0.0937,0.46875 -0.003,-0.019 0.003,-0.0757 0,-0.0937 -0.0458,-0.2895 -0.11434,-0.44855 -0.0937,-0.375 z m -62.84375,1.3125 c -14.1581,0.0376 -27.91838,0.20546 -38.25,0.53125 -5.16581,0.16289 -9.47409,0.36771 -12.46875,0.59375 -0.56818,0.0429 -0.81428,0.0807 -1.28125,0.125 -0.15488,1.68946 -0.33682,3.88988 -0.46875,6.75 -0.2907,6.30191 -0.4881,14.97991 -0.625,24.71875 -0.0671,4.77414 -0.12809,9.69237 -0.15625,14.8125 -0.003,0.40514 0.002,0.82854 0,1.34375 -0.0803,16.61363 0.0236,34.22555 0.34375,47.81255 0.16007,6.7934 0.36994,12.5911 0.625,16.6874 0.0833,1.3376 0.16146,2.1334 0.25,3.0626 0.92742,0.088 1.72724,0.1667 3.0625,0.25 4.0893,0.2548 9.87295,0.4649 16.65625,0.625 13.5666,0.3201 31.14811,0.4231 47.75,0.3437 a 5.142501,5.142501 0 0 1 0.0312,0 l 1.40625,0 c 0.0108,-10e-5 0.0205,10e-5 0.0312,0 5.08541,-0.028 9.97333,-0.089 14.71875,-0.1563 9.75405,-0.1367 18.46751,-0.3343 24.78125,-0.625 2.86548,-0.1319 5.05701,-0.3137 6.75,-0.4687 0.0443,-0.4669 0.0821,-0.7131 0.125,-1.2813 0.226,-2.9945 0.43089,-7.303 0.59375,-12.4687 0.32573,-10.3314 0.49339,-24.0909 0.53125,-38.25 0.003,-1.07491 -0.001,-2.16571 0,-3.28125 0.002,-4.29285 -0.009,-8.59815 -0.0312,-12.84375 -0.0678,-13.19286 -0.24329,-25.74096 -0.5625,-35.0625 -0.15961,-4.66077 -0.34874,-8.52343 -0.5625,-11.1875 -0.0282,-0.35107 -0.0648,-0.47338 -0.0937,-0.78125 -0.30788,-0.029 -0.43017,-0.0656 -0.78125,-0.0937 -2.66416,-0.21382 -6.52668,-0.40284 -11.1875,-0.5625 -9.32165,-0.31932 -21.87037,-0.49512 -35.0625,-0.5625 -3.49293,-0.0178 -7.03197,-0.0312 -10.5625,-0.0312 -1.87494,0 -3.7218,-0.005 -5.5625,0 z M 155.25,933 c -0.24588,0.0414 -0.47177,0.10293 -0.4375,0.0937 0.0222,-0.006 0.14132,0.0274 0.4375,-0.0937 z m 119.4375,0 c 0.29361,0.12478 0.42964,0.0828 0.46875,0.0937 0.0735,0.0206 -0.0855,-0.0479 -0.375,-0.0937 -0.0181,-0.003 -0.0748,0.003 -0.0937,0 z m -61.59375,4.21875 a 5.142501,5.142501 0 0 1 4.875,3.5 c 1.17553,3.42327 2.6149,6.80623 4.34375,10.15625 0.83009,1.60843 1.68941,3.15478 2.5625,4.59375 a 5.142501,5.142501 0 0 1 -0.28125,5.71875 5.142501,5.142501 0 0 1 5.46875,1.75 c 3.55626,4.51516 7.56192,8.52949 11.9375,12.03125 a 5.142501,5.142501 0 0 1 1.71875,5.46875 5.142501,5.142501 0 0 1 -0.0312,0.0625 c 8.8e-4,-0.004 0.0305,-0.0283 0.0312,-0.0312 a 5.142501,5.142501 0 0 1 5.75,-0.25 c 4.79138,2.9534 9.89962,5.3524 15.1875,7.15625 a 5.142501,5.142501 0 0 1 3.5,4.875 c -1.7e-4,0.14608 2.6e-4,0.29547 0,0.46875 a 5.142501,5.142501 0 0 1 -0.46875,2.09375 c -1.56839,3.49046 -3.01477,6.8799 -3.6875,9.0937 0.0758,0.021 0.14255,0.042 0.21875,0.063 a 5.142501,5.142501 0 0 1 3.8125,5.0312 c -0.0997,7.6239 -0.27341,14.4588 -0.5,19.5625 -0.11329,2.5519 -0.2459,4.6743 -0.40625,6.3125 -0.0802,0.8191 -0.15159,1.4968 -0.28125,2.1875 -0.0648,0.3453 -0.13196,0.6932 -0.28125,1.1563 -0.14929,0.463 -0.12173,1.0282 -1.40625,2.3124 -1.65398,1.6552 -2.14626,1.3592 -2.65625,1.5 -0.50999,0.1409 -0.92352,0.21 -1.375,0.2813 -0.90296,0.1426 -1.89863,0.2497 -3.125,0.3437 a 5.142501,5.142501 0 0 1 -5.53125,-4.8124 c -0.0745,-1.1817 -0.22737,-2.3344 -0.34375,-3.5 -2.36863,0.287 -6.0019,1.1674 -9.8125,2.125 0.0176,0 0.2764,-0.053 -0.25,0.062 a 5.142501,5.142501 0 0 1 -6.1875,-4.2812 c -0.85136,-5.6797 -2.33865,-11.0982 -4.40625,-16.3125 a 5.142501,5.142501 0 0 1 1.25,-5.6563 5.142501,5.142501 0 0 1 -5.125,-2.625 c -2.72707,-4.9914 -6.0295,-9.68167 -9.78125,-13.9062 a 5.142501,5.142501 0 0 1 -0.75,-5.6875 5.142501,5.142501 0 0 1 -5.71875,-0.75 c -4.24685,-3.74972 -8.87341,-7.01075 -13.875,-9.71875 a 5.142501,5.142501 0 0 1 -2.65625,-5.125 5.142501,5.142501 0 0 1 -5.65625,1.28125 c -5.20177,-2.03802 -10.65266,-3.50964 -16.34375,-4.34375 a 5.142501,5.142501 0 0 1 -4.34375,-4.46875 5.142501,5.142501 0 0 1 0.0937,-1.8125 c 0.0143,-0.0698 -0.0179,-0.0523 0,-0.125 a 5.142501,5.142501 0 0 1 0,-0.0312 c 0.94739,-3.82488 1.81771,-7.5081 2.09375,-9.875 -1.05037,-0.11027 -2.10849,-0.23826 -3.15625,-0.3125 A 5.142501,5.142501 0 0 1 162.75,947.25 c 0.0918,-1.1717 0.17939,-2.15709 0.3125,-3.03125 0.0666,-0.43708 0.14488,-0.83719 0.28125,-1.34375 0.13637,-0.50656 -0.16207,-0.99418 1.5,-2.65625 1.2855,-1.2855 1.84932,-1.25701 2.3125,-1.40625 0.46318,-0.14924 0.81051,-0.21637 1.15625,-0.28125 0.69147,-0.12976 1.36661,-0.20091 2.1875,-0.28125 1.64177,-0.16069 3.75464,-0.29278 6.3125,-0.40625 5.11573,-0.22694 11.98564,-0.40215 19.625,-0.5 a 5.142501,5.142501 0 0 1 4.90625,3.40625 c 1.92796,-0.57376 4.75164,-1.7498 7.75,-3.0625 A 5.142501,5.142501 0 0 1 211.125,937.25 c 0.51717,-0.002 1.16554,-0.0304 1.96875,-0.0312 z m 17.3125,0.0937 c 8.3686,0.0859 16.0075,0.26895 21.71875,0.5 2.85562,0.11553 5.21329,0.24034 7.03125,0.40625 0.90898,0.083 1.67097,0.15102 2.40625,0.28125 0.36764,0.0651 0.71254,0.13518 1.1875,0.28125 0.47496,0.14607 1.0337,0.0649 2.40625,1.4375 1.37369,1.37369 1.2915,1.93107 1.4375,2.40625 0.146,0.47518 0.2162,0.81963 0.28125,1.1875 0.13011,0.73574 0.19842,1.49645 0.28125,2.40625 0.16566,1.81959 0.29095,4.20411 0.40625,7.0625 0.23061,5.71678 0.41269,13.3434 0.5,21.71875 a 5.142501,5.142501 0 0 1 -7.21875,4.78125 c -13.91956,-6.14905 -25.92366,-16.97157 -33.4375,-31.53125 -0.65649,-1.27208 -1.22136,-2.4959 -1.75,-3.6875 a 5.142501,5.142501 0 0 1 4.75,-7.25 z M 199.125,960.75 c -0.79223,1.86465 -1.747,4.95653 -2.65625,8.09375 1.81182,-2.72187 3.58744,-5.44466 4.5,-7.25 -0.61075,-0.29268 -1.22572,-0.56454 -1.84375,-0.84375 z m 22.125,2.75 c -2.92904,1.43047 -5.80679,2.87127 -7.5,3.96875 0.39235,0.57147 0.77933,1.15253 1.1875,1.71875 1.61112,-1.19971 3.94501,-3.43325 6.3125,-5.6875 z m -54.5,11.03125 a 5.142501,5.142501 0 0 1 0.71875,0 c 33.96827,2.75751 60.6384,29.91535 63.28125,63.37495 a 5.142501,5.142501 0 0 1 -5.09375,5.5626 c -12.91811,0.091 -26.93762,0.014 -37.9375,-0.2188 -5.49994,-0.1164 -10.23074,-0.2622 -13.75,-0.4688 -1.75963,-0.1032 -3.22008,-0.2293 -4.40625,-0.375 -0.59308,-0.073 -1.10504,-0.1489 -1.6875,-0.2812 -0.58246,-0.1323 -0.98427,0.4536 -3.03125,-1.5938 -2.04987,-2.0496 -1.46153,-2.4483 -1.59375,-3.0312 -0.13222,-0.5829 -0.20839,-1.0934 -0.28125,-1.6875 -0.14573,-1.1881 -0.27162,-2.643 -0.375,-4.4063 -0.20676,-3.5264 -0.3523,-8.2709 -0.46875,-13.7812 -0.23289,-11.0206 -0.31063,-25.07176 -0.21875,-38 a 5.142501,5.142501 0 0 1 4.84375,-5.09375 z m 58.40625,3.875 c -1.39481,1.48919 -3.34622,4.14619 -5.3125,6.84375 2.68858,-1.97118 5.33356,-3.92327 6.8125,-5.3125 -0.50119,-0.50904 -0.98503,-1.03196 -1.5,-1.53125 z m 18.25,2.78125 a 5.142501,5.142501 0 0 1 -0.21875,0.40625 c 0.11344,-0.19432 0.15502,-0.24768 0.21875,-0.40625 z m -2.03125,2.59375 c -2.24663,2.3355 -4.46249,4.65786 -5.6875,6.28125 0.55782,0.4046 1.12364,0.79787 1.6875,1.1875 1.10734,-1.68768 2.55303,-4.56155 4,-7.46875 z m 2.15625,20.24995 c -1.79851,0.9202 -4.4879,2.7253 -7.21875,4.5626 3.12722,-0.9176 6.22137,-1.8562 8.09375,-2.6563 -0.28882,-0.6378 -0.57304,-1.2785 -0.875,-1.9063 z m -9.15625,5.2188 c -0.35663,0.1435 -0.53362,0.2359 -0.6875,0.3438 a 5.142501,5.142501 0 0 1 0.6875,-0.3438 z M 155,1047.5312 c -0.22648,-0.053 -0.18866,0.1174 -0.15625,0.125 0.028,0.01 0.27834,0.04 0.40625,0.063 -0.0468,-0.02 -0.21507,-0.1794 -0.25,-0.1876 z m 2.65625,2.5938 c 0.0222,0.1283 0.0558,0.3779 0.0625,0.4062 0.009,0.038 0.0899,-0.056 -0.0625,-0.4062 z m 114.71875,0 c -0.12114,0.2962 -0.0878,0.4153 -0.0937,0.4375 -0.009,0.034 0.0524,-0.1917 0.0937,-0.4375 z"
         id="path5253"
         style="fill:url(#radialGradient3791);fill-opacity:1;stroke:none;filter:url(#filter3881)"
         inkscape:original="M 209.4375 926.375 C 181.05039 926.4504 154.20365 927.10884 152.96875 928.34375 C 152.04372 929.26878 151.4622 944.64574 151.1875 964.1875 C 151.1203 968.96767 151.05953 973.88865 151.03125 979.03125 C 151.02825 979.4935 151.03325 979.90982 151.03125 980.375 C 150.87028 1013.6864 151.50798 1050.9456 152.96875 1052.4062 C 154.42816 1053.8657 191.6185 1054.5031 224.90625 1054.3438 L 226.34375 1054.3438 C 231.46369 1054.3157 236.36364 1054.2547 241.125 1054.1875 C 260.69699 1053.9132 276.10522 1053.3324 277.03125 1052.4062 C 278.26615 1051.1715 278.9241 1024.3264 279 995.9375 C 279.003 994.84081 278.999 993.75625 279 992.65625 C 279.002 988.353 278.99095 984.03609 278.96875 979.78125 C 278.83276 953.32849 278.193 929.5055 277.03125 928.34375 C 275.86949 927.18199 252.04526 926.54135 225.59375 926.40625 C 222.09628 926.38845 218.54354 926.375 215 926.375 C 213.13425 926.375 211.29653 926.37 209.4375 926.375 z M 213.09375 942.375 C 214.35558 946.0496 215.91455 949.66218 217.75 953.21875 C 218.61217 954.88935 219.50812 956.54175 220.46875 958.125 C 220.44235 958.139 220.4041 958.13905 220.375 958.15625 C 216.75896 959.90348 213.17708 961.63534 210.6875 963.28125 C 209.44266 964.10413 208.45258 964.92437 207.90625 965.6875 C 207.63303 966.06898 207.484 966.41903 207.4375 966.78125 C 207.3991 967.08059 207.487 967.37198 207.625 967.65625 C 207.6799 967.74435 207.75704 967.84977 207.8125 967.9375 C 209.25371 970.21539 210.80383 972.38188 212.40625 974.5 C 212.48255 974.60085 212.54841 974.71216 212.625 974.8125 C 212.84485 975.04536 213.07797 975.24348 213.375 975.3125 C 213.73071 975.3953 214.14091 975.3731 214.59375 975.25 C 215.49945 975.00413 216.57619 974.38021 217.78125 973.5 C 220.19188 971.7405 223.07039 968.96742 225.96875 966.1875 C 225.99405 966.1615 226.00645 966.146 226.03125 966.125 C 229.83321 970.95211 234.10705 975.228 238.78125 978.96875 C 238.76265 978.98025 238.7665 979.01265 238.75 979.03125 C 235.94957 981.9098 233.18277 984.78938 231.40625 987.1875 C 230.51797 988.38653 229.84619 989.47106 229.59375 990.375 C 229.46755 990.827 229.4511 991.23755 229.53125 991.59375 C 229.59495 991.87655 229.78841 992.09817 230 992.3125 C 230.11061 992.3981 230.23273 992.47718 230.34375 992.5625 C 232.45711 994.18634 234.61439 995.72154 236.84375 997.15625 C 236.96529 997.23445 237.09688 997.29737 237.21875 997.375 C 237.48553 997.49555 237.75021 997.62777 238.03125 997.59375 C 238.39377 997.54985 238.74152 997.36418 239.125 997.09375 C 239.89186 996.55271 240.69951 995.61396 241.53125 994.375 C 243.19472 991.89711 244.97726 988.29112 246.75 984.6875 C 246.768 984.6507 246.76095 984.62385 246.78125 984.59375 C 251.8968 987.74697 257.34449 990.32074 263 992.25 C 262.99981 992.4092 263.00024 992.55962 263 992.71875 C 261.40051 996.27843 259.82534 999.81248 259 1002.5938 C 258.57543 1004.0244 258.36561 1005.2519 258.4375 1006.1875 C 258.4734 1006.6553 258.58396 1007.0363 258.78125 1007.3438 C 258.97846 1007.6512 259.27307 1007.8778 259.65625 1008 C 260.7217 1008.3401 261.79901 1008.6441 262.875 1008.9375 C 262.67633 1024.123 262.24241 1036.1952 261.53125 1036.9062 C 261.30321 1037.1344 259.87953 1037.3559 257.59375 1037.5312 C 257.45544 1035.3361 257.2497 1033.1607 256.96875 1031 C 256.95245 1030.8746 256.92305 1030.7501 256.90625 1030.625 C 256.83065 1030.3138 256.72383 1029.9884 256.5 1029.7812 C 256.23201 1029.5331 255.89181 1029.3675 255.4375 1029.25 C 254.52891 1029.015 253.2641 1029.0195 251.78125 1029.1875 C 248.81553 1029.5215 244.95744 1030.4901 241.0625 1031.4688 C 241.0277 1031.4787 241.00065 1031.493 240.96875 1031.5 C 240.05787 1025.4232 238.45677 1019.5965 236.25 1014.0312 C 236.2716 1014.0311 236.2889 1014.008 236.3125 1014 C 240.17124 1012.8872 244.01869 1011.7654 246.75 1010.5625 C 248.11566 1009.9611 249.20786 1009.3476 249.875 1008.6875 C 250.20857 1008.3575 250.45564 1008.0054 250.5625 1007.6562 C 250.6473 1007.3791 250.5775 1007.0721 250.5 1006.7812 C 250.4464 1006.652 250.36666 1006.5353 250.3125 1006.4062 C 249.28132 1003.9485 248.16314 1001.5384 246.9375 999.1875 C 246.8707 999.05929 246.8174 998.94032 246.75 998.8125 C 246.578 998.57559 246.38596 998.32841 246.125 998.21875 C 245.78831 998.07727 245.37333 998.07999 244.90625 998.125 C 243.97207 998.215 242.83631 998.6172 241.5 999.28125 C 238.82736 1000.6095 235.51279 1002.8731 232.1875 1005.125 C 232.1537 1005.148 232.12625 1005.1715 232.09375 1005.1875 C 229.18058 999.85538 225.66798 994.86102 221.65625 990.34375 C 221.68675 990.32305 221.7171 990.30525 221.75 990.28125 C 224.9954 987.91569 228.25107 985.56452 230.40625 983.5 C 231.48384 982.46775 232.28635 981.5047 232.6875 980.65625 C 232.88806 980.23203 232.95652 979.83345 232.9375 979.46875 C 232.9185 979.10405 232.77228 978.79613 232.5 978.5 C 230.63551 976.47217 228.6574 974.51854 226.625 972.65625 C 226.5873 972.62165 226.56905 972.56565 226.53125 972.53125 C 226.24861 972.29286 225.93562 972.14166 225.59375 972.125 C 225.22899 972.1072 224.82979 972.23544 224.40625 972.4375 C 223.55916 972.84151 222.5911 973.63767 221.5625 974.71875 C 219.5053 976.88091 217.16707 980.12161 214.8125 983.375 C 214.7886 983.4081 214.7738 983.44065 214.75 983.46875 C 210.22568 979.47404 205.26634 975.9646 199.90625 973.0625 C 199.91225 973.0504 199.9291 973.04385 199.9375 973.03125 C 202.1781 969.69835 204.4309 966.33337 205.75 963.65625 C 206.40955 962.31769 206.81948 961.15322 206.90625 960.21875 C 206.94965 959.75152 206.92385 959.33619 206.78125 959 C 206.66773 958.73238 206.4351 958.57944 206.1875 958.40625 C 206.06341 958.34145 205.9369 958.25176 205.8125 958.1875 C 203.47135 956.97831 201.07601 955.86159 198.625 954.84375 C 198.48179 954.78425 198.33106 954.74625 198.1875 954.6875 C 197.90487 954.6177 197.61286 954.57277 197.34375 954.65625 C 196.99489 954.76429 196.67266 954.97781 196.34375 955.3125 C 195.68593 955.98187 195.06557 957.06982 194.46875 958.4375 C 193.27511 961.17287 192.16234 965.04376 191.0625 968.90625 C 191.0555 968.93015 191.03745 968.94795 191.03125 968.96875 C 185.48337 966.79513 179.65446 965.20536 173.5625 964.3125 C 173.5705 964.2799 173.5545 964.25125 173.5625 964.21875 C 174.52806 960.32051 175.48858 956.43558 175.8125 953.46875 C 175.97446 951.98533 175.95677 950.75155 175.71875 949.84375 C 175.59971 949.38985 175.4365 949.01715 175.1875 948.75 C 174.97121 948.51795 174.67217 948.41476 174.34375 948.34375 C 174.24079 948.33035 174.13432 948.29435 174.03125 948.28125 C 171.99079 948.02194 169.9473 947.80308 167.875 947.65625 C 168.04792 945.44973 168.24518 944.06732 168.46875 943.84375 C 169.1809 943.1316 181.28473 942.69489 196.5 942.5 C 196.7245 943.30378 196.93823 944.10389 197.1875 944.90625 C 197.2251 945.0269 197.2746 945.16079 197.3125 945.28125 C 197.43963 945.55459 197.56949 945.81036 197.8125 945.96875 C 198.11846 946.16815 198.5012 946.27331 198.96875 946.3125 C 199.90396 946.391 201.16025 946.1645 202.59375 945.75 C 205.02877 945.04605 208.05052 943.76596 211.15625 942.40625 C 211.81261 942.40425 212.43584 942.3757 213.09375 942.375 z M 230.34375 942.46875 C 247.01888 942.63986 260.77042 943.08292 261.53125 943.84375 C 262.29255 944.60505 262.73226 958.37262 262.90625 975.0625 C 250.01802 969.36905 238.93633 959.40743 231.96875 945.90625 C 231.38422 944.77361 230.85427 943.61951 230.34375 942.46875 z M 167.0625 979.65625 C 198.53679 982.2113 223.17836 1007.337 225.625 1038.3125 C 199.87627 1038.4938 169.61207 1038.0497 168.46875 1036.9062 C 167.32404 1035.7616 166.87937 1005.4249 167.0625 979.65625 z "
         inkscape:radius="-5.1419868"
         sodipodi:type="inkscape:offset" />
    </g>
  </g>
</svg>
