<?xml version="1.0" encoding="UTF-8" standalone="no"?>
<!-- Created with Inkscape (http://www.inkscape.org/) -->

<svg
   xmlns:dc="http://purl.org/dc/elements/1.1/"
   xmlns:cc="http://creativecommons.org/ns#"
   xmlns:rdf="http://www.w3.org/1999/02/22-rdf-syntax-ns#"
   xmlns:svg="http://www.w3.org/2000/svg"
   xmlns="http://www.w3.org/2000/svg"
   xmlns:sodipodi="http://sodipodi.sourceforge.net/DTD/sodipodi-0.dtd"
   xmlns:inkscape="http://www.inkscape.org/namespaces/inkscape"
   width="32"
   height="32"
   id="svg2"
   version="1.1"
   inkscape:version="0.48.2 r9819"
   sodipodi:docname="lined-texture-vertical.svg"
   inkscape:export-filename="/mnt/storage/Projects/GearcrateWebsite/res/site_art/lined-texture-vertical.png"
   inkscape:export-xdpi="90"
   inkscape:export-ydpi="90">
  <defs
     id="defs4" />
  <sodipodi:namedview
     id="base"
     pagecolor="#ffffff"
     bordercolor="#666666"
     borderopacity="1.0"
     inkscape:pageopacity="0.0"
     inkscape:pageshadow="2"
     inkscape:zoom="11.313708"
     inkscape:cx="5.147671"
     inkscape:cy="18.849242"
     inkscape:document-units="px"
     inkscape:current-layer="layer1"
     showgrid="false"
     inkscape:window-width="1090"
     inkscape:window-height="818"
     inkscape:window-x="744"
     inkscape:window-y="177"
     inkscape:window-maximized="0" />
  <metadata
     id="metadata7">
    <rdf:RDF>
      <cc:Work
         rdf:about="">
        <dc:format>image/svg+xml</dc:format>
        <dc:type
           rdf:resource="http://purl.org/dc/dcmitype/StillImage" />
        <dc:title></dc:title>
      </cc:Work>
    </rdf:RDF>
  </metadata>
  <g
     inkscape:label="Layer 1"
     inkscape:groupmode="layer"
     id="layer1"
     transform="translate(0,-1020.3622)">
    <rect
       style="fill:#000000;fill-opacity:0.1254902;stroke:none"
       id="rect2985"
       width="32"
       height="1"
       x="-1052.3622"
       y="30"
       transform="matrix(0,-1,1,0,0,0)" />
    <rect
       style="fill:#000000;fill-opacity:0.1254902;stroke:none"
       id="rect2985-7"
       width="32"
       height="1"
       x="-1052.3622"
       y="28"
       transform="matrix(0,-1,1,0,0,0)" />
    <rect
       style="fill:#000000;fill-opacity:0.1254902;stroke:none"
       id="rect2985-5"
       width="32"
       height="1"
       x="-1052.3622"
       y="26"
       transform="matrix(0,-1,1,0,0,0)" />
    <rect
       style="fill:#000000;fill-opacity:0.1254902;stroke:none"
       id="rect2985-7-8"
       width="32"
       height="1"
       x="-1052.3622"
       y="24"
       transform="matrix(0,-1,1,0,0,0)" />
    <rect
       style="fill:#000000;fill-opacity:0.1254902;stroke:none"
       id="rect2985-0"
       width="32"
       height="1"
       x="-1052.3622"
       y="22"
       transform="matrix(0,-1,1,0,0,0)" />
    <rect
       style="fill:#000000;fill-opacity:0.1254902;stroke:none"
       id="rect2985-7-0"
       width="32"
       height="1"
       x="-1052.3622"
       y="20"
       transform="matrix(0,-1,1,0,0,0)" />
    <rect
       style="fill:#000000;fill-opacity:0.1254902;stroke:none"
       id="rect2985-5-8"
       width="32"
       height="1"
       x="-1052.3622"
       y="18"
       transform="matrix(0,-1,1,0,0,0)" />
    <rect
       style="fill:#000000;fill-opacity:0.1254902;stroke:none"
       id="rect2985-7-8-7"
       width="32"
       height="1"
       x="-1052.3622"
       y="16"
       transform="matrix(0,-1,1,0,0,0)" />
    <rect
       style="fill:#000000;fill-opacity:0.1254902;stroke:none"
       id="rect2985-4"
       width="32"
       height="1"
       x="-1052.3622"
       y="14"
       transform="matrix(0,-1,1,0,0,0)" />
    <rect
       style="fill:#000000;fill-opacity:0.1254902;stroke:none"
       id="rect2985-7-06"
       width="32"
       height="1"
       x="-1052.3622"
       y="12"
       transform="matrix(0,-1,1,0,0,0)" />
    <rect
       style="fill:#000000;fill-opacity:0.1254902;stroke:none"
       id="rect2985-5-6"
       width="32"
       height="1"
       x="-1052.3622"
       y="10"
       transform="matrix(0,-1,1,0,0,0)" />
    <rect
       style="fill:#000000;fill-opacity:0.1254902;stroke:none"
       id="rect2985-7-8-1"
       width="32"
       height="1"
       x="-1052.3622"
       y="8"
       transform="matrix(0,-1,1,0,0,0)" />
    <rect
       style="fill:#000000;fill-opacity:0.1254902;stroke:none"
       id="rect2985-0-5"
       width="32"
       height="1"
       x="-1052.3622"
       y="6"
       transform="matrix(0,-1,1,0,0,0)" />
    <rect
       style="fill:#000000;fill-opacity:0.1254902;stroke:none"
       id="rect2985-7-0-2"
       width="32"
       height="1"
       x="-1052.3622"
       y="4"
       transform="matrix(0,-1,1,0,0,0)" />
    <rect
       style="fill:#000000;fill-opacity:0.1254902;stroke:none"
       id="rect2985-5-8-6"
       width="32"
       height="1"
       x="-1052.3622"
       y="2"
       transform="matrix(0,-1,1,0,0,0)" />
    <rect
       style="fill:#000000;fill-opacity:0.1254902;stroke:none"
       id="rect2985-7-8-7-1"
       width="32"
       height="1"
       x="-1052.3622"
       y="0"
       transform="matrix(0,-1,1,0,0,0)" />
  </g>
</svg>
