<?xml version="1.0" encoding="UTF-8" standalone="no"?>
<!-- Created with Inkscape (http://www.inkscape.org/) -->

<svg
   xmlns:dc="http://purl.org/dc/elements/1.1/"
   xmlns:cc="http://creativecommons.org/ns#"
   xmlns:rdf="http://www.w3.org/1999/02/22-rdf-syntax-ns#"
   xmlns:svg="http://www.w3.org/2000/svg"
   xmlns="http://www.w3.org/2000/svg"
   xmlns:xlink="http://www.w3.org/1999/xlink"
   xmlns:sodipodi="http://sodipodi.sourceforge.net/DTD/sodipodi-0.dtd"
   xmlns:inkscape="http://www.inkscape.org/namespaces/inkscape"
   width="128"
   height="128"
   id="svg2"
   version="1.1"
   inkscape:version="0.48.2 r9819"
   sodipodi:docname="new-logo.svg">
  <defs
     id="defs4">
    <linearGradient
       id="linearGradient4372">
      <stop
         style="stop-color:#009600;stop-opacity:1;"
         offset="0"
         id="stop4374" />
      <stop
         style="stop-color:#00be00;stop-opacity:1;"
         offset="1"
         id="stop4376" />
    </linearGradient>
    <linearGradient
       id="linearGradient4360">
      <stop
         style="stop-color:#f06000;stop-opacity:1;"
         offset="0"
         id="stop4362" />
      <stop
         id="stop4370"
         offset="0.06616843"
         style="stop-color:#c85000;stop-opacity:1;" />
      <stop
         id="stop4368"
         offset="0.88015455"
         style="stop-color:#c85000;stop-opacity:1;" />
      <stop
         style="stop-color:#f06000;stop-opacity:1;"
         offset="1"
         id="stop4364" />
    </linearGradient>
    <linearGradient
       id="linearGradient4348">
      <stop
         style="stop-color:#e6b800;stop-opacity:1;"
         offset="0"
         id="stop4350" />
      <stop
         id="stop4356"
         offset="0.13620155"
         style="stop-color:#d2a800;stop-opacity:1;" />
      <stop
         style="stop-color:#d2a800;stop-opacity:1;"
         offset="0.897008"
         id="stop4358" />
      <stop
         style="stop-color:#ffcc01;stop-opacity:1;"
         offset="1"
         id="stop4352" />
    </linearGradient>
    <linearGradient
       id="linearGradient4340">
      <stop
         style="stop-color:#f00000;stop-opacity:1;"
         offset="0"
         id="stop4342" />
      <stop
         style="stop-color:#c80000;stop-opacity:1;"
         offset="1"
         id="stop4344" />
    </linearGradient>
    <linearGradient
       id="linearGradient4332">
      <stop
         style="stop-color:#e65c00;stop-opacity:1;"
         offset="0"
         id="stop4334" />
      <stop
         style="stop-color:#c85000;stop-opacity:1;"
         offset="1"
         id="stop4336" />
    </linearGradient>
    <linearGradient
       id="linearGradient4324">
      <stop
         style="stop-color:#a08000;stop-opacity:1;"
         offset="0"
         id="stop4326" />
      <stop
         style="stop-color:#be9800;stop-opacity:1;"
         offset="1"
         id="stop4328" />
    </linearGradient>
    <linearGradient
       id="linearGradient4312">
      <stop
         style="stop-color:#2fad2f;stop-opacity:1;"
         offset="0"
         id="stop4314" />
      <stop
         id="stop4320"
         offset="0.12246466"
         style="stop-color:#278d27;stop-opacity:1;" />
      <stop
         style="stop-color:#278d27;stop-opacity:1;"
         offset="0.87687629"
         id="stop4322" />
      <stop
         style="stop-color:#30ac30;stop-opacity:1;"
         offset="1"
         id="stop4316" />
    </linearGradient>
    <linearGradient
       id="linearGradient4296">
      <stop
         style="stop-color:#c80000;stop-opacity:1;"
         offset="0"
         id="stop4298" />
      <stop
         id="stop4306"
         offset="0.02648732"
         style="stop-color:#c80000;stop-opacity:1;" />
      <stop
         id="stop4304"
         offset="0.11334416"
         style="stop-color:#960000;stop-opacity:1;" />
      <stop
         style="stop-color:#960000;stop-opacity:1;"
         offset="0.85052711"
         id="stop4308" />
      <stop
         id="stop4310"
         offset="0.92526352"
         style="stop-color:#b40000;stop-opacity:1;" />
      <stop
         style="stop-color:#be0000;stop-opacity:1;"
         offset="1"
         id="stop4300" />
    </linearGradient>
    <linearGradient
       id="linearGradient4270">
      <stop
         style="stop-color:#552995;stop-opacity:1;"
         offset="0"
         id="stop4272" />
      <stop
         id="stop4278"
         offset="0.03846938"
         style="stop-color:#4a2482;stop-opacity:1;" />
      <stop
         style="stop-color:#47227c;stop-opacity:1;"
         offset="0.37783578"
         id="stop4280" />
      <stop
         id="stop4282"
         offset="0.43062225"
         style="stop-color:#391b65;stop-opacity:1;" />
      <stop
         style="stop-color:#391b65;stop-opacity:1;"
         offset="0.47165298"
         id="stop4284" />
      <stop
         id="stop4286"
         offset="0.54957712"
         style="stop-color:#47227e;stop-opacity:1;" />
      <stop
         style="stop-color:#45217a;stop-opacity:1;"
         offset="0.71972793"
         id="stop4288" />
      <stop
         id="stop4290"
         offset="0.77376181"
         style="stop-color:#391c64;stop-opacity:1;" />
      <stop
         style="stop-color:#391c64;stop-opacity:1;"
         offset="0.79609346"
         id="stop4292" />
      <stop
         id="stop4294"
         offset="0.83889329"
         style="stop-color:#3e1e6d;stop-opacity:1;" />
      <stop
         style="stop-color:#3f1e6e;stop-opacity:1;"
         offset="1"
         id="stop4274" />
    </linearGradient>
    <linearGradient
       id="linearGradient4244">
      <stop
         style="stop-color:#007896;stop-opacity:1;"
         offset="0"
         id="stop4246" />
      <stop
         id="stop4252"
         offset="0.12764363"
         style="stop-color:#0080a0;stop-opacity:1;" />
      <stop
         style="stop-color:#006680;stop-opacity:1;"
         offset="0.18778603"
         id="stop4254" />
      <stop
         id="stop4256"
         offset="0.25426853"
         style="stop-color:#0080a0;stop-opacity:1;" />
      <stop
         style="stop-color:#0080a0;stop-opacity:1;"
         offset="0.62260145"
         id="stop4258" />
      <stop
         id="stop4260"
         offset="0.71054906"
         style="stop-color:#006680;stop-opacity:1;" />
      <stop
         style="stop-color:#006680;stop-opacity:1;"
         offset="0.74737793"
         id="stop4264" />
      <stop
         id="stop4266"
         offset="0.78557539"
         style="stop-color:#007896;stop-opacity:1;" />
      <stop
         style="stop-color:#0088aa;stop-opacity:1;"
         offset="0.98351336"
         id="stop4268" />
      <stop
         style="stop-color:#00a0c8;stop-opacity:1;"
         offset="1"
         id="stop4248" />
    </linearGradient>
    <linearGradient
       id="linearGradient4220">
      <stop
         style="stop-color:#0000c0;stop-opacity:1;"
         offset="0"
         id="stop4222" />
      <stop
         id="stop4228"
         offset="0.15617779"
         style="stop-color:#000096;stop-opacity:1;" />
      <stop
         style="stop-color:#000080;stop-opacity:1;"
         offset="0.36668551"
         id="stop4242" />
      <stop
         style="stop-color:#000080;stop-opacity:1;"
         offset="0.71449214"
         id="stop4238" />
      <stop
         style="stop-color:#000096;stop-opacity:1;"
         offset="1"
         id="stop4224" />
    </linearGradient>
    <linearGradient
       id="linearGradient4202">
      <stop
         style="stop-color:#00008c;stop-opacity:1;"
         offset="0"
         id="stop4204" />
      <stop
         id="stop4236"
         offset="0.08227088"
         style="stop-color:#000080;stop-opacity:1;" />
      <stop
         id="stop4234"
         offset="0.16454175"
         style="stop-color:#000080;stop-opacity:1;" />
      <stop
         id="stop4210"
         offset="0.21738841"
         style="stop-color:#000096;stop-opacity:1;" />
      <stop
         style="stop-color:#0000c0;stop-opacity:1;"
         offset="0.27913913"
         id="stop4212" />
      <stop
         id="stop4214"
         offset="0.30501479"
         style="stop-color:#0000c0;stop-opacity:1;" />
      <stop
         style="stop-color:#000096;stop-opacity:1;"
         offset="0.43253487"
         id="stop4216" />
      <stop
         id="stop4230"
         offset="0.54837728"
         style="stop-color:#000080;stop-opacity:1;" />
      <stop
         style="stop-color:#000080;stop-opacity:1;"
         offset="0.81785196"
         id="stop4232" />
      <stop
         id="stop4218"
         offset="0.94931072"
         style="stop-color:#000096;stop-opacity:1;" />
      <stop
         style="stop-color:#0000b8;stop-opacity:1;"
         offset="1"
         id="stop4206" />
    </linearGradient>
    <linearGradient
       id="linearGradient4194">
      <stop
         style="stop-color:#000000;stop-opacity:0.1254902;"
         offset="0"
         id="stop4196" />
      <stop
         style="stop-color:#000000;stop-opacity:0;"
         offset="1"
         id="stop4198" />
    </linearGradient>
    <linearGradient
       id="linearGradient4186">
      <stop
         style="stop-color:#ffffff;stop-opacity:0.75294119"
         offset="0"
         id="stop4188" />
      <stop
         style="stop-color:#ffffff;stop-opacity:0.1254902;"
         offset="1"
         id="stop4190" />
    </linearGradient>
    <linearGradient
       inkscape:collect="always"
       id="linearGradient4132">
      <stop
         style="stop-color:#ffffff;stop-opacity:0.50196081"
         offset="0"
         id="stop4134" />
      <stop
         style="stop-color:#d3d3d3;stop-opacity:0;"
         offset="1"
         id="stop4136" />
    </linearGradient>
    <filter
       inkscape:collect="always"
       id="filter5912">
      <feGaussianBlur
         inkscape:collect="always"
         stdDeviation="0.65769685"
         id="feGaussianBlur5914" />
    </filter>
    <linearGradient
       inkscape:collect="always"
       xlink:href="#linearGradient4132"
       id="linearGradient4140"
       x1="26.302544"
       y1="953.17365"
       x2="104.60407"
       y2="1017.5204"
       gradientUnits="userSpaceOnUse" />
    <linearGradient
       inkscape:collect="always"
       xlink:href="#linearGradient4186"
       id="linearGradient4192"
       x1="25.873562"
       y1="953.2395"
       x2="90.225121"
       y2="1004.8583"
       gradientUnits="userSpaceOnUse" />
    <linearGradient
       inkscape:collect="always"
       xlink:href="#linearGradient4194"
       id="linearGradient4200"
       x1="89.943756"
       y1="1006.27"
       x2="26.236214"
       y2="952.70667"
       gradientUnits="userSpaceOnUse" />
    <linearGradient
       inkscape:collect="always"
       xlink:href="#linearGradient4202"
       id="linearGradient4208"
       x1="69.608086"
       y1="1015.2137"
       x2="97.213257"
       y2="998.59674"
       gradientUnits="userSpaceOnUse" />
    <linearGradient
       inkscape:collect="always"
       xlink:href="#linearGradient4220"
       id="linearGradient4226"
       x1="85.912064"
       y1="991.48718"
       x2="91.173767"
       y2="987.64233"
       gradientUnits="userSpaceOnUse" />
    <linearGradient
       inkscape:collect="always"
       xlink:href="#linearGradient4244"
       id="linearGradient4250"
       x1="91.398346"
       y1="988.68567"
       x2="120.57578"
       y2="971.06067"
       gradientUnits="userSpaceOnUse" />
    <linearGradient
       inkscape:collect="always"
       xlink:href="#linearGradient4270"
       id="linearGradient4276"
       x1="33.610966"
       y1="1040.9895"
       x2="65.004181"
       y2="1022.177"
       gradientUnits="userSpaceOnUse" />
    <linearGradient
       inkscape:collect="always"
       xlink:href="#linearGradient4296"
       id="linearGradient4302"
       x1="14.154385"
       y1="1022.3821"
       x2="36.027039"
       y2="1008.1321"
       gradientUnits="userSpaceOnUse" />
    <linearGradient
       inkscape:collect="always"
       xlink:href="#linearGradient4312"
       id="linearGradient4318"
       x1="100.00465"
       y1="954.95618"
       x2="117.48315"
       y2="944.08118"
       gradientUnits="userSpaceOnUse" />
    <linearGradient
       inkscape:collect="always"
       xlink:href="#linearGradient4324"
       id="linearGradient4330"
       x1="56.529675"
       y1="981.99725"
       x2="67.551109"
       y2="975.93475"
       gradientUnits="userSpaceOnUse" />
    <linearGradient
       inkscape:collect="always"
       xlink:href="#linearGradient4332"
       id="linearGradient4338"
       x1="48.143055"
       y1="988.68433"
       x2="57.273228"
       y2="982.55933"
       gradientUnits="userSpaceOnUse" />
    <linearGradient
       inkscape:collect="always"
       xlink:href="#linearGradient4340"
       id="linearGradient4346"
       x1="46.68409"
       y1="989.01129"
       x2="48.188217"
       y2="988.01129"
       gradientUnits="userSpaceOnUse" />
    <linearGradient
       inkscape:collect="always"
       xlink:href="#linearGradient4348"
       id="linearGradient4354"
       x1="64.192253"
       y1="953.86407"
       x2="69.497009"
       y2="950.80157"
       gradientUnits="userSpaceOnUse" />
    <linearGradient
       inkscape:collect="always"
       xlink:href="#linearGradient4360"
       id="linearGradient4366"
       x1="13.734803"
       y1="991.5116"
       x2="26.090912"
       y2="984.2616"
       gradientUnits="userSpaceOnUse" />
    <linearGradient
       inkscape:collect="always"
       xlink:href="#linearGradient4372"
       id="linearGradient4378"
       x1="75.897232"
       y1="969.56421"
       x2="80.753029"
       y2="966.73578"
       gradientUnits="userSpaceOnUse" />
  </defs>
  <sodipodi:namedview
     id="base"
     pagecolor="#ffffff"
     bordercolor="#666666"
     borderopacity="1.0"
     inkscape:pageopacity="0.0"
     inkscape:pageshadow="2"
     inkscape:zoom="5.6568542"
     inkscape:cx="65.639025"
     inkscape:cy="61.348836"
     inkscape:document-units="px"
     inkscape:current-layer="layer1"
     showgrid="false"
     inkscape:window-width="1537"
     inkscape:window-height="939"
     inkscape:window-x="700"
     inkscape:window-y="292"
     inkscape:window-maximized="0" />
  <metadata
     id="metadata7">
    <rdf:RDF>
      <cc:Work
         rdf:about="">
        <dc:format>image/svg+xml</dc:format>
        <dc:type
           rdf:resource="http://purl.org/dc/dcmitype/StillImage" />
      </cc:Work>
    </rdf:RDF>
  </metadata>
  <g
     inkscape:label="Layer 1"
     inkscape:groupmode="layer"
     id="layer1"
     transform="translate(0,-924.36218)">
    <path
       style="fill:#666666;fill-opacity:1;stroke:none"
       d="m 45.63482,1077.2382 c -0.208424,0.018 -0.462076,0.055 -0.6875,0.125 -0.377754,0.1166 -0.67802,0.2927 -0.9375,0.5 -0.0188,0.01 -0.04366,-0.01 -0.0625,0 -0.02102,0.017 -0.04224,0.044 -0.0625,0.062 -5.332604,1.7528 -10.32862,4.234 -14.9375,7.25 -0.385726,0.056 -0.797672,0.2343 -1.1875,0.5 -5.957742,4.062 12.586326,17.1709 9.4375,22.8125 -3.497032,3.0989 -6.502258,6.7373 -8.75,10.875 -4.142636,3.3088 -16.412261,-6.4863 -21.8749998,-5.9375 -1.079342,0.108 -1.881571,0.652 -2.3125,1.75 -0.128633,0.3278 -0.174044,0.6385 -0.1875,0.9375 -1.978461,5.2642 -3.29136504,10.8675 -3.81250004,16.6875 -0.125755,0.2828 -0.222681,0.573 -0.25,0.9375 -0.536873,7.1642 21.10757184,0.9449 23.68749984,6.8125 0.239256,4.8675 1.305034,9.4885 3.125,13.75 -0.15058,6.3084 -21.9994298,10.0806 -18.4374998,16.25 0.225717,0.391 0.50646,0.6593 0.8125,0.875 2.8814808,4.7754 6.3847668,9.148 10.3749998,13 0.0097,0.026 0.05176,0.036 0.0625,0.062 0.01076,0.01 -0.01076,0.052 0,0.062 0.143842,0.327 0.373448,0.6462 0.6875,0.9375 5.308492,4.9256 13.981268,-16.2698 20.1875,-14.25 3.671152,2.6198 7.80466,4.6659 12.25,5.9375 5.477382,3.571 -5.666056,23.6075 1.5,24.6875 0.39672,0.06 0.734732,0.015 1.0625,-0.062 0.0367,-0.01 0.0891,0.01 0.125,0 2.750218,0.362 5.525092,0.5625 8.375,0.5625 2.849294,0 5.625364,-0.2009 8.375,-0.5625 0.019,0.01 0.04332,0 0.0625,0 0.0198,0.01 0.04238,0 0.0625,0 0.327768,0.077 0.66578,0.1223 1.0625,0.062 7.166056,-1.08 -3.977382,-21.1165 1.5,-24.6875 4.44534,-1.2716 8.578848,-3.3177 12.25,-5.9375 6.206232,-2.0198 14.87901,19.1756 20.1875,14.25 0.31405,-0.2913 0.54366,-0.6105 0.6875,-0.9375 0.008,-0.017 -0.007,-0.045 0,-0.062 4.0166,-3.8665 7.54082,-8.2619 10.4375,-13.0625 0.30604,-0.2157 0.58678,-0.484 0.8125,-0.875 3.56193,-6.1694 -18.28692,-9.9416 -18.4375,-16.25 1.81997,-4.2615 2.88574,-8.8825 3.125,-13.75 2.57993,-5.8676 24.22437,0.3517 23.6875,-6.8125 -0.0273,-0.3645 -0.12424,-0.6547 -0.25,-0.9375 -0.52114,-5.82 -1.83404,-11.4233 -3.8125,-16.6875 -0.0134,-0.299 -0.0589,-0.6097 -0.1875,-0.9375 -0.51711,-1.3176 -1.58243,-1.8052 -3,-1.75 -5.74255,0.2236 -17.20857,9.1155 -21.1875,5.9375 -2.247742,-4.1377 -5.252968,-7.7761 -8.75,-10.875 -3.148826,-5.6416 15.39524,-18.7505 9.4375,-22.8125 -0.40111,-0.1535 -0.791666,-0.3333 -1.1875,-0.5 -4.609434,-3.0163 -9.604172,-5.4972 -14.9375,-7.25 -0.02026,-0.018 -0.04148,-0.045 -0.0625,-0.062 -0.012,-0.01 -0.05026,0.01 -0.0625,0 -0.25948,-0.2073 -0.559746,-0.3834 -0.9375,-0.5 -0.225424,-0.07 -0.479076,-0.107 -0.6875,-0.125 -0.19152,-0.017 -0.384466,-0.024 -0.5625,0 -5.500168,0.7499 -4.763124,20.4313 -10.5625,21.75 -2.290946,-0.4056 -4.655118,-0.625 -7.0625,-0.625 -2.407382,0 -4.771554,0.2194 -7.0625,0.625 -5.991002,-1.354 -5.015694,-22.2798 -11.125,-21.75 z m 18.1875,45.3125 c 8.836556,0 16,7.1635 16,16 0,8.8366 -7.163444,16 -16,16 -8.836556,0 -16,-7.1634 -16,-16 0,-8.8365 7.163444,-16 16,-16 z"
       id="path2995-3-3-0"
       inkscape:connector-curvature="0" />
    <g
       id="g5317">
      <path
         inkscape:connector-curvature="0"
         id="path4709-7"
         d="m 199.52741,1071.3361 c -0.20843,0.018 -0.46208,0.055 -0.6875,0.125 -0.37776,0.1165 -0.67802,0.2926 -0.9375,0.5 -0.0188,0.01 -0.0437,-0.01 -0.0625,0 -0.021,0.018 -0.0422,0.044 -0.0625,0.062 -5.33261,1.7528 -10.32862,4.234 -14.9375,7.25 -0.38573,0.056 -0.79768,0.2342 -1.1875,0.5 -5.95775,4.0619 12.58632,17.1709 9.4375,22.8125 -1.70505,1.5109 -3.27833,3.1747 -4.71875,4.9375 l 18.96875,14.9688 c 2.92812,-3.5677 7.37042,-5.8341 12.34375,-5.8438 l 0.125,-24.1875 c -0.0311,-1e-4 -0.0626,0 -0.0937,0 -2.40739,0 -4.77156,0.2194 -7.0625,0.625 -5.99101,-1.3541 -5.0157,-22.2798 -11.125,-21.75 z"
         style="fill:#00ff00;fill-opacity:1;stroke:none" />
      <path
         id="path5283"
         d="m 254.25,1118.5184 -18.96875,15.125 c 2.19479,2.7333 3.5625,6.1546 3.5625,9.9375 0,1.1944 -0.12681,2.3492 -0.375,3.4688 l 23.5625,5.5 c 0.50716,-2.257 0.82006,-4.5796 0.9375,-6.9688 2.57993,-5.8676 24.22437,0.3517 23.6875,-6.8125 -0.0273,-0.3645 -0.12424,-0.6547 -0.25,-0.9375 -0.52114,-5.82 -1.83404,-11.4233 -3.8125,-16.6875 -0.0134,-0.299 -0.0589,-0.6097 -0.1875,-0.9375 -0.51711,-1.3176 -1.58243,-1.8052 -3,-1.75 -5.74255,0.2236 -17.20857,9.1155 -21.1875,5.9375 -1.13805,-2.0949 -2.47683,-4.0412 -3.96875,-5.875 z"
         style="fill:#0000ff;fill-opacity:1;stroke:none"
         inkscape:connector-curvature="0" />
      <path
         id="path4707-0"
         d="m 240.46875,1082.2684 c -5.50017,0.7499 -4.76313,20.4313 -10.5625,21.75 -2.2021,-0.3899 -4.4705,-0.6087 -6.78125,-0.625 l 0.125,24.2188 c 4.88871,0.1216 9.1779,2.4778 12.03125,6.0312 l 18.96875,-15.125 c -1.45475,-1.788 -3.05479,-3.4701 -4.78125,-5 -3.14883,-5.6416 15.39524,-18.7506 9.4375,-22.8125 -0.40111,-0.1535 -0.79167,-0.3333 -1.1875,-0.5 -4.60944,-3.0164 -9.60418,-5.4972 -14.9375,-7.25 -0.0203,-0.018 -0.0415,-0.045 -0.0625,-0.062 -0.012,-0.01 -0.0503,0.01 -0.0625,0 -0.25948,-0.2074 -0.55975,-0.3835 -0.9375,-0.5 -0.22543,-0.07 -0.47908,-0.107 -0.6875,-0.125 -0.19152,-0.017 -0.38447,-0.024 -0.5625,0 z"
         style="fill:#00ccff;fill-opacity:1;stroke:none"
         inkscape:connector-curvature="0" />
      <path
         id="path5289"
         d="m 216.1875,1157.9559 c -4.53485,-2.1143 -8.01206,-6.1575 -9.03125,-11.1875 l -23.53125,5.375 c 0.5312,2.48 1.24079,4.8976 2.21875,7.1875 -0.15058,6.3084 -21.99943,10.0806 -18.4375,16.25 0.22571,0.391 0.50646,0.6593 0.8125,0.875 2.88148,4.7755 6.38476,9.1479 10.375,13 0.01,0.026 0.0518,0.037 0.0625,0.062 0.0108,0.01 -0.0108,0.053 0,0.062 0.14384,0.327 0.37344,0.6462 0.6875,0.9375 5.30849,4.9256 13.98126,-16.2698 20.1875,-14.25 1.90696,1.3609 3.95838,2.5394 6.09375,3.5625 l 10.5625,-21.875 z"
         style="fill:#ff6600;fill-opacity:1;stroke:none"
         inkscape:connector-curvature="0" />
      <path
         id="path5286"
         d="m 216.1875,1157.9559 -10.5625,21.875 c 1.9755,0.9465 4.02002,1.764 6.15625,2.375 5.47738,3.571 -5.66606,23.6075 1.5,24.6875 0.39672,0.06 0.73473,0.014 1.0625,-0.062 0.0367,-0.01 0.0891,0.01 0.125,0 2.75021,0.3621 5.52509,0.5625 8.375,0.5625 2.84929,0 5.62536,-0.2009 8.375,-0.5625 0.019,0.01 0.0433,0 0.0625,0 0.0198,0.01 0.0424,0 0.0625,0 0.32776,0.077 0.66578,0.1234 1.0625,0.062 7.16605,-1.08 -3.97739,-21.1165 1.5,-24.6875 2.19093,-0.6267 4.32233,-1.4586 6.34375,-2.4375 l -10.5625,-21.7187 c -2.0726,0.9807 -4.39864,1.5312 -6.84375,1.5312 -2.41193,0 -4.60441,-0.6683 -6.65625,-1.625 z"
         style="fill:#ff0000;fill-opacity:1;stroke:none"
         inkscape:connector-curvature="0" />
      <path
         id="path4705-6"
         d="m 166.125,1118.4247 c -0.18355,0 -0.36054,0.014 -0.53125,0.031 -1.07935,0.108 -1.88158,0.652 -2.3125,1.75 -0.12864,0.3277 -0.17405,0.6384 -0.1875,0.9375 -1.97847,5.2641 -3.29137,10.8675 -3.8125,16.6875 -0.12576,0.2828 -0.22269,0.573 -0.25,0.9375 -0.53688,7.1642 21.10757,0.9449 23.6875,6.8125 0.11069,2.2519 0.4489,4.4273 0.90625,6.5625 l 23.53125,-5.375 c -0.20916,-1.0323 -0.3125,-2.0936 -0.3125,-3.1875 0,-3.6893 1.27725,-7.0748 3.375,-9.7813 l -18.875,-15.1875 c -1.45818,1.8044 -2.75822,3.7255 -3.875,5.7813 -4.01318,3.2054 -15.65372,-5.8963 -21.34375,-5.9688 z"
         style="fill:#ffd42a;fill-opacity:1;stroke:none"
         inkscape:connector-curvature="0" />
      <path
         inkscape:connector-curvature="0"
         id="path2995-3-3-8"
         d="m 248.65241,1155.3361 c -1.13629,4.5463 -4.19039,8.3359 -8.28125,10.4062 l 10.375,21.8125 c 2.01087,-0.9869 3.91356,-2.118 5.71875,-3.4062 6.20623,-2.0198 14.87901,19.1756 20.1875,14.25 0.31405,-0.2913 0.54366,-0.6105 0.6875,-0.9375 0.008,-0.017 -0.007,-0.045 0,-0.062 4.0166,-3.8665 7.54082,-8.2619 10.4375,-13.0625 0.30604,-0.2157 0.58678,-0.484 0.8125,-0.875 3.56193,-6.1694 -18.28692,-9.9416 -18.4375,-16.25 0.89731,-2.1011 1.60302,-4.3002 2.125,-6.5625 l -23.625,-5.3125 z"
         style="fill:#7137c8;fill-opacity:1;stroke:none" />
    </g>
    <path
       style="fill:#666666;fill-opacity:1;stroke:none"
       d="m 367.52741,1086.0865 c -0.20843,0.018 -0.46208,0.055 -0.6875,0.125 -0.37776,0.1165 -0.67802,0.2926 -0.9375,0.5 -0.0188,0.01 -0.0437,-0.01 -0.0625,0 -0.021,0.018 -0.0422,0.044 -0.0625,0.062 -5.33261,1.7528 -10.32862,4.234 -14.9375,7.25 -0.38573,0.056 -0.79768,0.2342 -1.1875,0.5 -5.95775,4.0619 12.58632,17.1709 9.4375,22.8125 -1.70505,1.5109 -3.27833,3.1747 -4.71875,4.9375 l 18.96875,14.9688 c 2.92812,-3.5677 7.37042,-5.8341 12.34375,-5.8438 l 0.125,-24.1875 c -0.0311,-10e-5 -0.0626,0 -0.0937,0 -2.40739,0 -4.77156,0.2194 -7.0625,0.625 -5.99101,-1.3541 -5.0157,-22.2798 -11.125,-21.75 z"
       id="path4709-7-5"
       inkscape:connector-curvature="0" />
    <path
       inkscape:connector-curvature="0"
       style="fill:#666666;fill-opacity:1;stroke:none"
       d="m 408.46491,1097.024 c -5.50017,0.7499 -4.76313,20.4313 -10.5625,21.75 -2.2021,-0.3899 -4.4705,-0.6087 -6.78125,-0.625 l 0.125,24.2188 c 8.64909,0.2152 15.59375,7.2678 15.59375,15.9687 0,1.1944 -0.12681,2.3491 -0.375,3.4687 l 23.5625,5.5 c 0.50716,-2.257 0.82006,-4.5795 0.9375,-6.9687 2.57993,-5.8676 24.22437,0.3517 23.6875,-6.8125 -0.0273,-0.3645 -0.12424,-0.6547 -0.25,-0.9375 -0.52114,-5.82 -1.83404,-11.4233 -3.8125,-16.6875 -0.0134,-0.299 -0.0589,-0.6097 -0.1875,-0.9375 -0.51711,-1.3176 -1.58243,-1.8052 -3,-1.75 -5.74255,0.2236 -17.20857,9.1155 -21.1875,5.9375 -2.24775,-4.1377 -5.25297,-7.7762 -8.75,-10.875 -3.14883,-5.6416 15.39524,-18.7506 9.4375,-22.8125 -0.40111,-0.1535 -0.79167,-0.3333 -1.1875,-0.5 -4.60944,-3.0164 -9.60418,-5.4972 -14.9375,-7.25 -0.0203,-0.018 -0.0415,-0.045 -0.0625,-0.062 -0.012,-0.01 -0.0503,0.01 -0.0625,0 -0.25948,-0.2074 -0.55975,-0.3835 -0.9375,-0.5 -0.22543,-0.07 -0.47908,-0.107 -0.6875,-0.125 -0.19152,-0.017 -0.38447,-0.024 -0.5625,0 z"
       id="path4707-0-8" />
    <path
       inkscape:connector-curvature="0"
       style="fill:#666666;fill-opacity:1;stroke:none"
       d="m 334.12116,1133.1803 c -0.18355,0 -0.36054,0.014 -0.53125,0.031 -1.07935,0.108 -1.88158,0.652 -2.3125,1.75 -0.12864,0.3277 -0.17405,0.6384 -0.1875,0.9375 -1.97847,5.2641 -3.29137,10.8675 -3.8125,16.6875 -0.12576,0.2828 -0.22269,0.573 -0.25,0.9375 -0.53688,7.1642 21.10757,0.9449 23.6875,6.8125 0.23925,4.8674 1.30503,9.4884 3.125,13.7499 -0.15058,6.3084 -21.99943,10.0806 -18.4375,16.25 0.22571,0.391 0.50646,0.6593 0.8125,0.875 2.88148,4.7755 6.38476,9.148 10.375,13.0001 0.01,0.026 0.0518,0.036 0.0625,0.062 0.0108,0.01 -0.0108,0.053 0,0.062 0.14384,0.327 0.37344,0.6462 0.6875,0.9375 5.30849,4.9256 13.98126,-16.2698 20.1875,-14.25 3.67115,2.6198 7.80466,4.6659 12.25,5.9375 5.47738,3.571 -5.66606,23.6075 1.5,24.6875 0.39672,0.06 0.73473,0.014 1.0625,-0.062 0.0367,-0.01 0.0891,0.01 0.125,0 2.75021,0.3621 5.52509,0.5625 8.375,0.5625 2.84929,0 5.62536,-0.2009 8.375,-0.5625 0.019,0.01 0.0433,0 0.0625,0 0.0198,0.01 0.0424,0 0.0625,0 0.32776,0.077 0.66578,0.1229 1.0625,0.062 7.16605,-1.08 -3.97739,-21.1165 1.5,-24.6875 2.19093,-0.6267 4.32233,-1.4586 6.34375,-2.4375 l -10.5625,-21.7188 c -2.0726,0.9807 -4.39864,1.5313 -6.84375,1.5313 -8.83656,0 -16,-7.1634 -16,-15.9999 0,-3.6893 1.27725,-7.0748 3.375,-9.7813 l -18.875,-15.1875 c -1.45818,1.8044 -2.75822,3.7255 -3.875,5.7813 -4.01318,3.2054 -15.65372,-5.8963 -21.34375,-5.9688 z"
       id="path4705-6-5" />
    <path
       style="fill:#666666;fill-opacity:1;stroke:none"
       d="m 416.65241,1170.0865 c -1.13629,4.5463 -4.19039,8.3359 -8.28125,10.4062 l 10.375,21.8125 c 2.01087,-0.9869 3.91356,-2.118 5.71875,-3.4062 6.20623,-2.0198 14.87901,19.1756 20.1875,14.25 0.31405,-0.2913 0.54366,-0.6105 0.6875,-0.9375 0.008,-0.017 -0.007,-0.045 0,-0.062 4.0166,-3.8665 7.54082,-8.2619 10.4375,-13.0625 0.30604,-0.2157 0.58678,-0.484 0.8125,-0.875 3.56193,-6.1694 -18.28692,-9.9416 -18.4375,-16.25 0.89731,-2.1011 1.60302,-4.3002 2.125,-6.5625 l -23.625,-5.3125 z"
       id="path2995-3-3-8-7"
       inkscape:connector-curvature="0" />
    <path
       style="fill:#000000;fill-opacity:1;stroke:none;filter:url(#filter5912)"
       d="m 100.0625,921.78125 c -7.89122,2.31403 -9.60889,11.666 -15.75,16.125 -4.50007,-1.13393 -10.3039,1.0116 -10.09375,6.375 -0.53347,4.70467 -2.21366,-1.74461 -3.3125,-3.09375 -1.62095,-4.63824 -6.17727,-11.63484 -11.9375,-8.15625 -6.90785,3.07436 -16.45883,4.05043 -20.53125,11.09375 -2.00795,4.57228 3.67673,8.62253 3.1875,12.40625 -4.60122,2.24582 -8.24636,10.08437 -14.1875,6.59375 -5.23219,-2.61427 -13.40745,-4.26554 -16.8125,1.875 -3.41327,5.21348 -9.10583,10.30504 -9.3125,16.71875 2.16862,4.90809 5.05313,9.38537 7.84375,13.96875 -5.09832,1.63305 -13.49275,5.03 -11.3125,11.8437 3.89176,8.6888 9.17529,16.975 14.1875,24.9376 3.19101,2.4947 7.84744,0.7319 10.5625,-0.9688 -0.66257,6.5962 5.77761,10.8697 7.40625,16.875 3.7275,6.3211 11.74053,2.8115 17.5,3.25 6.608,0.2833 13.00746,-4.04 13.09375,-11.0625 0.45242,-3.8382 0.87668,-9.2618 6.0625,-9.0313 4.20892,-0.6128 5.68152,-5.1547 3.8125,-8.625 0.99058,-1.6251 5.06165,-2.5765 7.3125,-4.125 2.18222,0.2589 2.29546,4.7437 4.46875,6 2.95709,4.3028 9.27798,4.3233 12.5625,0.375 5.29228,-4.1683 13.2152,-7.7367 15.09375,-14.625 -0.12592,-5.7994 -6.41803,-9.5744 -6.84375,-14.8437 3.29166,-4.47099 10.10519,-2.32733 14.875,-3.53125 5.95267,-0.0548 10.71837,-4.89399 10.6875,-10.90625 0.27902,-3.58313 1.79819,-7.04809 1.34375,-10.5 -3.23597,-5.20474 -6.44066,-10.55638 -9.40625,-15.78125 -1.64167,-1.92292 3.71095,-3.1818 4.46875,-5.46875 4.76464,-6.06355 -2.9883,-12.24979 -5.17436,-17.65473 -1.54126,-3.95714 -3.85508,-6.37604 -8.10689,-7.00152 -3.72404,-1.41399 -7.59262,-3.62459 -11.6875,-3.0625 z M 57.65625,995 c -1.11298,0.26685 0.61613,-1.91779 0,0 z"
       id="path5402-3"
       inkscape:connector-curvature="0"
       transform="matrix(0.94311605,0,0,0.94311605,3.8562553,57.520158)" />
    <path
       style="fill:url(#linearGradient4354);fill-opacity:1;stroke:none"
       d="m 63.972085,941.08497 -5.717337,3.30091 7.942805,13.75735 5.549458,-3.23802 c -0.05685,-0.27726 -0.116859,-0.5461 -0.229998,-0.75203 -0.005,-0.009 -0.0096,-0.0168 -0.01474,-0.0256 L 71.119132,953.464 z"
       id="path5402"
       inkscape:connector-curvature="0"
       sodipodi:nodetypes="cccccccc" />
    <path
       style="fill:url(#linearGradient4366);fill-opacity:1;stroke:none"
       d="m 23.016548,996.5844 7.886863,-4.55348 c -3.350377,-5.80303 -6.299426,-10.73409 -9.610886,-16.46971 L 8.7348029,982.81142 16.206051,995.752 c 0.0039,0.008 0.01082,0.017 0.01474,0.0256 0.5018,1.10111 3.514508,1.01376 6.795761,0.80688 z"
       id="path5368"
       inkscape:connector-curvature="0"
       sodipodi:nodetypes="ccccccc" />
    <path
       style="fill:#666666;fill-opacity:1;stroke:none"
       d="m 77.452184,971.86023 0.353669,0.61257 3.420192,-1.97465 -1.917101,4.57809 c 1.87119,-0.1237 3.582116,0.10014 5.003804,0.65035 l -3.389323,-5.87048 -3.471241,2.00412 z"
       id="path5420"
       inkscape:connector-curvature="0" />
    <path
       style="fill:#d2a800;fill-opacity:1;stroke:none"
       d="m 70.965993,953.55245 -12.904268,7.41625 12.083509,20.78926 1.24134,1.18483 5.256178,-12.24875 -0.840503,-8.77548 z"
       id="path5418"
       inkscape:connector-curvature="0"
       sodipodi:nodetypes="ccccccc" />
    <path
       style="fill:#542995;fill-opacity:1;stroke:none"
       d="m 52.288657,1001.7878 13.951834,24.457 0.826184,-0.1655 -2.351179,-14.093 -7.515456,-13.0171 z"
       id="path5442"
       inkscape:connector-curvature="0"
       sodipodi:nodetypes="cccccc" />
    <path
       style="fill:#666666;fill-opacity:1;stroke:none"
       d="m 38.092651,1019.6319 -3.037335,1.7535 0.692601,1.1997 3.037335,-1.7537 -0.692601,-1.1995 z"
       id="path5466"
       inkscape:connector-curvature="0" />
    <path
       style="fill:url(#linearGradient4276);fill-opacity:1;stroke:none"
       d="m 57.899241,1010.2008 c -8.420797,6.6507 -9.373547,7.4575 -29.100776,22.216 l 7.603874,13.1703 c 0.188179,0.2639 0.535859,0.4106 1.069393,0.4375 0.326779,0.017 0.649506,-0.026 0.957286,-0.1102 0.01615,0 0.03518,-0.025 0.05105,-0.029 4.294448,0.1451 8.890411,-0.1852 13.630934,-1.0295 0.262764,0.048 0.552493,0.044 0.93571,-0.029 6.046729,-1.1637 2.945919,-13.6497 8.055779,-16.6983 1.96998,-0.551 3.968739,-1.2371 5.964188,-2.0481 z"
       id="path5459"
       inkscape:connector-curvature="0"
       sodipodi:nodetypes="ccccccccccc" />
    <path
       style="fill:url(#linearGradient4330);fill-opacity:1;stroke:none"
       d="m 62.142307,966.91653 -10.737634,6.3355 8.411178,14.57595 0.207381,-0.11973 c 0.79329,-0.5982 1.564471,-1.20954 2.470804,-1.73281 3.013258,-1.73971 6.128014,-2.73067 8.932074,-2.97891 z"
       id="path5397"
       inkscape:connector-curvature="0"
       sodipodi:nodetypes="ccccscc" />
    <path
       style="fill:url(#linearGradient4338);fill-opacity:1;stroke:none"
       d="m 49.354227,969.22899 -9.586171,5.50056 13.087079,22.66012 0.458077,-0.26022 c 0.518402,-3.15303 2.99157,-6.61722 6.710015,-9.4212 z"
       id="path5435"
       inkscape:connector-curvature="0"
       sodipodi:nodetypes="cccccc" />
    <path
       style="fill:url(#linearGradient4346);fill-opacity:1;stroke:none"
       d="m 53.313219,997.12945 -7.662817,-13.27239 -1.403811,0.81049 4.052452,7.01905 c 4.974636,5.59745 4.075175,4.55326 4.971026,5.60388 0.0075,-0.0519 0.03458,-0.10894 0.04315,-0.16103 z"
       id="path5454"
       inkscape:connector-curvature="0"
       sodipodi:nodetypes="cccccc" />
    <path
       style="fill:#960000;fill-opacity:1;stroke:none"
       d="m 49.600758,990.93505 c -3.588854,2.07203 -15.884488,9.20495 -18.2348,10.56195 l 5.275556,9.1375 18.249536,-10.5364 c -1.76343,-3.05434 -3.526861,-6.10869 -5.290292,-9.16305 z"
       id="path5440"
       inkscape:connector-curvature="0"
       sodipodi:nodetypes="ccccc" />
    <path
       style="fill:url(#linearGradient4302);fill-opacity:1;stroke:none"
       d="m 37.15199,1010.3397 -7.397566,-12.8129 -22.5375393,13.012 7.1028423,12.3025 c 0.179143,0.3565 0.377116,0.7121 0.578701,1.0612 0.806164,1.3964 1.758646,2.6671 2.831956,3.8441 -0.0028,0.014 0.0093,0.016 0.01474,0.025 -0.0025,0.014 0.0091,0.016 0.01474,0.026 0.02985,0.1969 0.08169,0.3742 0.243676,0.5399 2.170153,2.2394 10.054421,-5.4925 15.784513,-9.1472 l 3.363986,-8.8507 z"
       id="path5471"
       inkscape:connector-curvature="0"
       sodipodi:nodetypes="ccccsccccccc" />
    <path
       style="fill:#4f278d;fill-opacity:1;stroke:none"
       d="m 31.474422,1015.1832 3.580894,6.2022 3.470489,-2.0036 -3.584161,-6.2005 z"
       id="path5464"
       inkscape:connector-curvature="0"
       sodipodi:nodetypes="ccccc" />
    <path
       style="fill:#666666;fill-opacity:1;stroke:none"
       d="m 76.208903,961.92609 1.301714,-0.75154 -0.972589,-1.68457 -1.301714,0.75155 0.972589,1.68456 z"
       id="path5427"
       inkscape:connector-curvature="0" />
    <path
       style="fill:#000080;fill-opacity:1;stroke:none"
       d="m 88.747565,984.05631 -1.105214,-1.91429 -0.05105,0.0294 1.105215,1.91429 0.05105,-0.0294 z"
       id="path5498"
       inkscape:connector-curvature="0" />
    <path
       style="fill:url(#linearGradient4250);fill-opacity:1;stroke:none"
       d="m 114.57195,960.4685 -8.49943,4.90715 -21.1411,12.18879 -0.470573,0.8548 11.466967,18.95232 0.482534,-0.0428 c 1.034585,-1.53982 1.938864,-3.10023 2.69181,-4.65101 3.716932,-4.20345 19.667662,-1.30254 21.299642,-6.1376 0.0119,-0.26897 0.0453,-0.55025 0.0694,-0.82283 1.15949,-3.68127 1.78434,-7.27842 1.70698,-10.71861 0.009,-0.0185 0.0132,-0.062 0.0216,-0.0805 0.005,-0.0106 -0.0194,-0.0148 -0.0147,-0.0256 0.096,-0.22495 0.15484,-0.45514 0.14313,-0.69521 -0.007,-0.14329 -0.0452,-0.28012 -0.0895,-0.39075 -0.0222,-0.0555 -0.0586,-0.10145 -0.0884,-0.15314 l 0.0256,-0.0147 z"
       id="path5480"
       inkscape:connector-curvature="0"
       sodipodi:nodetypes="ccccccccccccccccc" />
    <path
       style="fill:url(#linearGradient4208);fill-opacity:1;stroke:none"
       d="m 72.841083,998.65098 -9.596958,5.54082 7.530192,13.0427 c 1.986983,-0.8158 3.97242,-1.7577 5.957064,-2.8268 5.522388,-1.5026 6.569609,12.0423 12.26916,8.4009 0.289977,-0.1853 0.496633,-0.3747 0.692034,-0.5698 4.606106,-2.9998 8.814185,-6.2804 12.553975,-9.7323 0.24048,-0.1475 0.47549,-0.3266 0.70678,-0.5442 0.83687,-0.7872 1.00703,-1.4612 0.70726,-2.0759 l -0.11789,-0.2042 -7.132317,-12.3535 -0.338932,-0.58704 c -10.600503,1.09173 -16.707718,1.53641 -23.230368,1.90932 z"
       id="path5500"
       inkscape:connector-curvature="0"
       sodipodi:nodetypes="ccccccccccccc" />
    <path
       style="fill:url(#linearGradient4226);fill-opacity:1;stroke:none"
       d="m 90.14403,1000.0958 5.846902,-3.37572 -8.399628,-14.54858 -5.833491,3.40199 z"
       id="path5485"
       inkscape:connector-curvature="0"
       sodipodi:nodetypes="ccccc" />
    <path
       style="fill:#008000;fill-opacity:1;stroke:none"
       d="m 92.385172,961.94546 -1.301716,0.75155 2.343054,4.05828 1.301716,-0.75154 -2.343054,-4.05829 z"
       id="path5508"
       inkscape:connector-curvature="0" />
    <path
       style="fill:url(#linearGradient4318);fill-opacity:1;stroke:none"
       d="m 111.97081,935.39146 c -5.94706,3.43353 -11.89411,6.86706 -17.841159,10.30059 3.207333,5.57856 6.443469,11.14041 9.677719,16.70338 l 1.25413,0.87542 c 1.30197,-3.91012 15.93517,-12.1213 14.43949,-14.83672 l -0.0737,-0.12762 z"
       id="path5378"
       inkscape:connector-curvature="0"
       sodipodi:nodetypes="ccccccc" />
    <path
       style="fill:#278d27;fill-opacity:1;stroke:none"
       d="m 99.800687,954.15884 -2.138508,0.01 -18.379128,10.57716 6.970217,12.07277 19.987132,-11.50554 z"
       id="path5383"
       inkscape:connector-curvature="0"
       sodipodi:nodetypes="cccccc" />
    <path
       style="fill:url(#linearGradient4378);fill-opacity:1;stroke:none"
       d="m 76.563553,959.47525 -4.798479,2.7704 c 1.899199,3.2895 3.807727,6.59517 5.585015,9.67352 5.86716,-3.47106 1.112264,-0.64216 4.772955,-2.75566 -2.934431,-5.08258 -4.67606,-8.13353 -5.559491,-9.68826 z"
       id="path5411"
       inkscape:connector-curvature="0"
       sodipodi:nodetypes="ccccc" />
    <path
       style="fill:#00a0c8;fill-opacity:1;stroke:none"
       d="m 92.385172,961.94546 2.343054,4.05829 -1.301716,0.75154 -2.343054,-4.05828 1.301716,-0.75155 z"
       id="path5506"
       inkscape:connector-curvature="0" />
    <path
       style="fill:#00ff00;fill-opacity:1;stroke:none"
       d="m 111.89427,935.26776 c -0.0737,-0.0936 -0.17566,-0.20051 -0.29662,-0.27797 -0.20203,-0.13019 -0.43081,-0.1943 -0.67363,-0.22366 -0.0135,-0.005 -0.004,-0.0261 -0.0176,-0.0306 -0.0207,-0.002 -0.0479,7e-5 -0.0683,-9.4e-4 -2.9404,-1.78673 -6.38051,-3.06504 -10.14788,-3.90143 -0.15487,-0.16263 -0.41697,-0.28048 -0.74436,-0.34617 -5.003262,-1.00422 -10.463438,14.2651 -15.962196,15.38234 -1.716464,-0.1231 -3.520529,-0.10951 -5.367863,0.0158 l -6.859034,16.35444 c 3.742431,-0.24743 6.850423,0.86082 8.265473,3.29345 l 19.79081,-11.34454 c -0.0085,-0.0153 -0.01773,-0.0307 -0.0265,-0.0459 -0.681138,-1.17976 -1.529235,-2.23488 -2.508705,-3.16631 -0.589087,-3.57447 16.778196,-12.9642 14.616936,-15.70827 z"
       id="path4709-7-8"
       inkscape:connector-curvature="0" />
    <path
       sodipodi:nodetypes="ccccscccccccscc"
       inkscape:connector-curvature="0"
       style="fill:#0000ff;fill-opacity:1;stroke:none"
       d="m 88.844994,984.3273 0.08236,-0.246 -17.510348,-2.25727 -0.284753,0.33109 c -1.611474,2.36449 -4.031133,4.66366 -7.120865,6.44752 -0.975541,0.56323 -1.954619,1.04563 -2.939286,1.45197 l 2.174459,14.14059 c 1.986926,-0.8158 3.972468,-1.7577 5.957105,-2.8269 5.522387,-1.5025 6.566662,12.0372 12.266212,8.3959 0.289987,-0.1854 0.499585,-0.3697 0.694982,-0.5647 4.606109,-2.9999 8.811208,-6.2855 12.551034,-9.73742 0.24044,-0.14754 0.481316,-0.31638 0.712665,-0.53398 0.929858,-0.87474 1.026695,-1.62674 0.580529,-2.2954 -1.807395,-2.70873 -12.314101,-4.1347 -10.844207,-7.58322 1.389041,-1.54557 2.604447,-3.12632 3.68011,-4.72218 z"
       id="path5283-8" />
    <path
       inkscape:connector-curvature="0"
       style="fill:#00ccff;fill-opacity:1;stroke:none"
       d="m 114.54891,960.48658 c -2.16868,-2.34178 -18.035175,7.30034 -20.753084,5.08016 -0.304594,-1.26302 -0.767696,-2.47784 -1.408175,-3.61793 l -19.74564,11.48183 c 1.283868,2.45309 0.572974,5.66613 -1.521998,8.74006 l 17.720452,2.16346 c 1.048772,-1.55605 1.969941,-3.13337 2.73103,-4.70087 3.716934,-4.20345 19.670635,-1.29745 21.302595,-6.1325 0.0119,-0.26895 0.0482,-0.54513 0.0724,-0.81772 1.15951,-3.6813 1.77255,-7.29885 1.69519,-10.73904 0.009,-0.0184 0.025,-0.0416 0.0329,-0.0599 0.005,-0.0106 -0.0224,-0.0199 -0.0176,-0.0307 0.096,-0.22496 0.15486,-0.45514 0.14313,-0.69521 -0.007,-0.14347 -0.0482,-0.28522 -0.0924,-0.39585 -0.0403,-0.10187 -0.0892,-0.19973 -0.15915,-0.27566 z"
       id="path4707-0-2" />
    <path
       sodipodi:nodetypes="ccccccccscccccccsc"
       inkscape:connector-curvature="0"
       style="fill:#ff0000;fill-opacity:1;stroke:none"
       d="m 45.863705,984.25512 -0.162265,-0.57568 -20.316144,5.07058 -0.374927,0.64739 c -0.214128,1.41444 -0.308739,2.82199 -0.203367,4.15699 -1.366917,4.36816 -20.8848456,8.3556 -19.7394212,12.3767 0.06324,0.2227 0.196446,0.3666 0.3512576,0.4914 0.018551,0.013 0.017042,0.048 0.035367,0.061 0.4823805,1.5185 1.1038114,2.9728 1.9101502,4.3695 0.8061633,1.3963 1.7556978,2.662 2.8290074,3.8389 -0.0028,0.014 0.01225,0.021 0.01768,0.03 -0.0026,0.014 0.012,0.021 0.01768,0.031 0.02984,0.1969 0.08758,0.3844 0.249979,0.55 2.909629,3.0025 16.121823,-11.9069 20.588226,-10.9066 1.131755,0.7781 2.414267,1.4304 3.785726,1.9594 l 14.75052,-15.41786 c -1.38741,-0.55323 -2.495156,-1.43354 -3.186963,-2.63178 -0.682419,-1.18199 -0.753373,-2.59488 -0.552513,-4.05154 z"
       id="path5286-3" />
    <path
       sodipodi:nodetypes="cccccccccccccccc"
       inkscape:connector-curvature="0"
       style="fill:#ff6600;fill-opacity:1;stroke:none"
       d="m 45.860173,984.27844 c 0.443814,-3.21936 2.780455,-6.85748 6.600406,-9.72888 l 0.06976,-0.30658 -10.573498,-8.89744 -0.536719,0.2197 c -1.875276,1.42978 -3.674694,2.93233 -5.2683,4.4914 -5.195069,2.90099 -14.457859,-6.0274 -18.489,-1.37261 -0.255493,0.29499 -0.395196,0.55909 -0.484783,0.81079 -3.085178,3.66401 -5.66519,7.44265 -7.6824629,11.21459 -0.018407,0.0172 -0.015564,0.0428 -0.032956,0.0599 -0.0051,0.01 -0.046353,0.0197 -0.05064,0.0292 -0.2263858,0.22468 -0.4221327,0.48772 -0.5711971,0.77899 -2.5210885,4.92418 17.244347,-0.82053 17.350611,3.17334 -0.571986,1.57626 -0.954123,3.1373 -1.185581,4.66621 l 20.855177,-5.1391 z"
       id="path5289-2" />
    <path
       inkscape:connector-curvature="0"
       style="fill:#ffd42a;fill-opacity:1;stroke:none"
       d="m 63.983365,941.10367 c -0.05193,-0.09 -0.113444,-0.17008 -0.175628,-0.24573 -0.393597,-0.47801 -1.064894,-0.61463 -2.083622,-0.30803 -0.304047,0.0915 -0.570665,0.21574 -0.818765,0.3502 -4.859297,1.51276 -9.807409,3.5117 -14.708413,6.00078 -0.266564,0.0718 -0.531011,0.16107 -0.836447,0.31957 -6.003353,3.11524 5.200307,10.7895 1.137824,14.82072 -1.807952,1.11615 -3.489044,2.30772 -5.103594,3.53872 l 11.047907,8.99704 c 0.783965,-0.58929 1.621557,-1.1404 2.515013,-1.65623 3.013283,-1.73972 6.13981,-2.71026 8.943905,-2.95851 l 7.064185,-16.41162 c -1.886337,0.13628 -3.823245,0.4051 -5.818321,0.82725 -3.753519,-0.45516 0.386893,-10.45168 -1.163799,-13.2743 z"
       id="path4705-6-2" />
    <path
       style="fill:#7137c8;fill-opacity:1;stroke:none"
       d="m 57.18538,998.95272 c -4.034742,1.58698 -7.994057,1.87728 -10.842447,0.84883 L 31.46275,1015.1718 c 1.375009,0.52 2.837186,0.9191 4.40009,1.1962 3.405656,2.089 -11.45212,16.3341 -5.927118,16.6128 0.326778,0.017 0.652454,-0.022 0.960233,-0.1052 0.01615,0 0.03477,-0.024 0.05063,-0.029 4.294449,0.1451 8.881571,-0.2006 13.622092,-1.0447 0.262766,0.048 0.561335,0.059 0.944553,-0.014 6.046728,-1.1637 2.945919,-13.6497 8.055778,-16.6983 1.96998,-0.551 3.965793,-1.2422 5.961241,-2.0532 l -2.345285,-14.08276 z"
       id="path2995-3-3-8-0"
       inkscape:connector-curvature="0" />
    <path
       style="fill:url(#linearGradient4192);fill-opacity:1;stroke:none"
       d="m 111.89443,935.2582 c -0.0737,-0.0937 -0.17566,-0.20052 -0.29661,-0.27798 -0.20204,-0.13019 -0.43082,-0.19429 -0.67364,-0.22365 -0.0135,-0.005 -0.004,-0.0261 -0.0177,-0.0307 -0.0207,-0.002 -0.0483,3.2e-4 -0.0688,-9.4e-4 -2.94041,-1.78675 -6.3805,-3.06505 -10.14787,-3.90144 -0.15487,-0.16262 -0.41697,-0.28047 -0.744366,-0.34616 -5.003261,-1.00422 -10.463438,14.26509 -15.962195,15.38234 -1.716465,-0.1231 -3.520531,-0.10953 -5.367863,0.0158 l -6.858994,16.35442 c 0.677678,-0.0448 1.303518,0.004 1.933312,0.0477 l 6.057421,-14.44187 c 1.847332,-0.12538 3.651398,-0.13895 5.367863,-0.0159 0.687344,-0.13965 1.376268,-0.50443 2.061592,-1.02691 0.685319,-0.52248 1.372748,-1.196 2.054413,-1.98246 1.363333,-1.57292 2.719375,-3.55143 4.058269,-5.46716 0.669449,-0.95787 1.320613,-1.89184 1.981507,-2.75713 0.660888,-0.86529 1.312297,-1.66377 1.962991,-2.31763 0.650696,-0.65387 1.320456,-1.17517 1.959332,-1.49876 0.319443,-0.16179 0.614544,-0.27619 0.930698,-0.33316 0.31618,-0.057 0.64068,-0.0619 0.95339,8.8e-4 0.3274,0.0657 0.5895,0.18354 0.74437,0.34616 1.88368,0.4182 3.68756,0.95969 5.38606,1.60716 1.65003,0.62899 3.18818,1.37045 4.62334,2.23128 0.28586,-0.54398 0.34047,-1.01204 0.0634,-1.36383 z"
       id="path4400" />
    <path
       style="fill:url(#linearGradient4192);fill-opacity:1;stroke:none"
       d="m 114.54374,960.47759 c -2.1022,-2.26999 -16.973561,6.63125 -20.365221,5.16251 0.247126,0.62761 0.585317,1.2204 0.743876,1.87787 0.339739,0.27752 0.887622,0.37659 1.585822,0.32999 0.698193,-0.0466 1.547877,-0.22634 2.499677,-0.50391 1.903566,-0.55515 4.216346,-1.48792 6.505076,-2.40805 2.28872,-0.92015 4.55038,-1.83979 6.3853,-2.37973 0.91746,-0.26998 1.73319,-0.4404 2.3799,-0.4756 0.16089,-0.008 0.21342,0.0724 0.3535,0.0818 -9.5e-4,-0.0754 0.007,-0.15227 0.005,-0.2274 0.008,-0.0185 0.0255,-0.0418 0.0334,-0.0601 0.005,-0.0105 -0.0225,-0.02 -0.0176,-0.0307 0.096,-0.22497 0.15486,-0.45516 0.14313,-0.69521 -0.007,-0.14349 -0.0482,-0.28524 -0.0924,-0.39586 -0.0403,-0.10188 -0.0892,-0.19974 -0.15915,-0.27566 z"
       id="path4398" />
    <path
       style="fill:url(#linearGradient4192);fill-opacity:1;stroke:none"
       d="m 99.7862,954.13278 c -0.337579,-0.58471 -0.830244,-1.04426 -1.245507,-1.56784 -0.01151,0.11097 -0.148248,0.25989 -0.131452,0.36176 0.437738,0.41627 0.740629,0.94834 1.122723,1.41412 l 0.280766,-0.1621 c -0.0085,-0.0153 -0.01773,-0.0308 -0.0265,-0.0459 z"
       id="path4396" />
    <path
       style="fill:url(#linearGradient4192);fill-opacity:1;stroke:none"
       d="m 92.38248,961.93982 -19.745598,11.4818 c 2.271359,4.34002 -1.524093,11.06904 -8.630661,15.17202 -0.975541,0.56323 -1.954559,1.0456 -2.939246,1.45195 l 2.174483,14.14051 c 0.258475,-0.1061 0.517131,-0.2556 0.775517,-0.366 l -1.81826,-11.81428 c 0.984675,-0.40633 1.963704,-0.88872 2.939245,-1.45195 0.888319,-0.51286 1.735559,-1.07107 2.515013,-1.65623 0.779463,-0.58515 1.482979,-1.1915 2.14283,-1.82932 0.659851,-0.63782 1.25887,-1.30086 1.78833,-1.97176 0.529462,-0.67091 0.995465,-1.33967 1.383784,-2.02408 0.388315,-0.68441 0.717302,-1.38332 0.953715,-2.06163 0.2364,-0.67832 0.374346,-1.34169 0.448075,-1.99432 0.07372,-0.65264 0.05982,-1.289 -0.03989,-1.89636 -0.09972,-0.60737 -0.277283,-1.19582 -0.561203,-1.73832 l 19.439315,-11.30497 c -0.258262,-0.71916 -0.44761,-1.46447 -0.825454,-2.13706 z"
       id="path4394" />
    <path
       style="fill:url(#linearGradient4192);fill-opacity:1;stroke:none"
       d="m 63.978235,941.09465 c -0.05193,-0.09 -0.113774,-0.1699 -0.175792,-0.24563 -0.393596,-0.47802 -1.064894,-0.61463 -2.083621,-0.30803 -0.304057,0.0915 -0.570666,0.21574 -0.818765,0.35019 -4.859302,1.51276 -9.807413,3.5117 -14.708412,6.00079 -0.266584,0.0717 -0.531015,0.16106 -0.836449,0.31957 -6.003353,3.11523 5.200307,10.78949 1.137824,14.82072 -3.907875,2.41255 -7.380689,5.11395 -10.346386,8.0154 -5.195093,2.90094 -14.457861,-6.0274 -18.489,-1.37262 -0.255496,0.29499 -0.3952,0.55909 -0.484783,0.81079 -3.085182,3.66401 -5.665193,7.44266 -7.6824633,11.21459 -0.018407,0.0172 -0.014738,0.0423 -0.032956,0.0599 -0.00534,0.01 -0.046117,0.0201 -0.05064,0.0292 -0.2263859,0.22469 -0.4221346,0.48772 -0.5711972,0.779 -0.5468829,1.0682 0.084833,1.58292 1.2073095,1.85534 0.139618,-0.24539 0.299709,-0.47965 0.495627,-0.67411 0.0053,-0.01 0.04612,-0.0201 0.05064,-0.0292 0.01841,-0.0172 0.01455,-0.0427 0.03296,-0.0599 1.008673,-1.886 2.162713,-3.77014 3.445568,-5.64431 1.282769,-1.87413 2.694345,-3.73832 4.236895,-5.57029 0.08959,-0.2517 0.229287,-0.5158 0.484783,-0.81079 0.251952,-0.29093 0.522261,-0.5233 0.812756,-0.71428 0.290559,-0.19105 0.612933,-0.33568 0.937561,-0.43925 0.649219,-0.20701 1.351708,-0.24536 2.109935,-0.1768 0.758223,0.0686 1.565066,0.25037 2.395915,0.49527 0.830925,0.24484 1.680978,0.55507 2.548227,0.87697 1.734498,0.64381 3.50226,1.33807 5.164223,1.69441 0.830898,0.1782 1.650238,0.2651 2.408552,0.22252 0.758307,-0.0426 1.462462,-0.22366 2.111808,-0.58626 1.482892,-1.45074 3.099156,-2.85593 4.826554,-4.19553 1.727398,-1.3396 3.565888,-2.6136 5.519832,-3.81987 0.507807,-0.5039 0.780143,-1.06693 0.874309,-1.66866 0.09417,-0.60174 0.01528,-1.23117 -0.177345,-1.89868 -0.385257,-1.33503 -1.230062,-2.76793 -2.001401,-4.17387 -0.385705,-0.70296 -0.738734,-1.40722 -1.030645,-2.07985 -0.291958,-0.67262 -0.501725,-1.32541 -0.573049,-1.93567 -0.07133,-0.61026 -0.0204,-1.16322 0.255729,-1.67908 0.138063,-0.25792 0.340175,-0.52005 0.588881,-0.74837 0.248706,-0.22831 0.550486,-0.44185 0.92572,-0.6365 0.305443,-0.15849 0.569866,-0.24788 0.836449,-0.31957 2.450502,-1.24454 4.925498,-2.36393 7.382563,-3.36389 2.457062,-0.99997 4.896197,-1.88052 7.325849,-2.6369 0.248066,-0.1345 0.514708,-0.25872 0.818766,-0.3502 0.509361,-0.1533 0.941837,-0.1856 1.286203,-0.13001 0.07915,0.0128 0.119511,0.0712 0.190514,0.0942 -0.04253,-0.54436 -0.155166,-1.01794 -0.349003,-1.37077 z"
       id="path4392"
       inkscape:connector-curvature="0" />
    <path
       style="fill:url(#linearGradient4192);fill-opacity:1;stroke:none"
       d="m 96.003962,996.62368 c -1.316185,-1.97256 -7.164002,-3.27969 -9.722142,-5.16818 -0.02948,0.25316 -0.106679,0.51062 -0.01351,0.74288 0.150124,0.37434 0.447328,0.73029 0.850637,1.06074 0.806537,0.66095 2.02806,1.25269 3.362496,1.81577 1.334431,0.56307 2.779552,1.10627 3.995754,1.67477 0.608097,0.28423 1.171802,0.57171 1.629199,0.87668 0.04763,0.0318 0.05036,0.0759 0.09622,0.1078 0.0954,-0.39156 0.02986,-0.76792 -0.198693,-1.11043 z"
       id="path4390" />
    <path
       style="fill:url(#linearGradient4192);fill-opacity:1;stroke:none"
       d="m 70.960396,953.54168 c -1.886338,0.13628 -3.823209,0.40507 -5.818281,0.82722 -0.185209,-0.0225 -0.259151,-0.16744 -0.40755,-0.23434 0.01012,0.0947 -0.02577,0.24357 -0.01168,0.33345 0.08195,0.52264 0.253108,0.95994 0.502146,1.28235 0.248992,0.32244 0.579625,0.52188 1.048819,0.57877 1.272073,-0.26916 2.483571,-0.37917 3.710307,-0.52904 l 0.976235,-2.25841 z"
       id="path4388" />
    <path
       style="fill:url(#linearGradient4192);fill-opacity:1;stroke:none"
       d="m 57.185527,998.94316 c -4.034746,1.58704 -7.99406,1.87734 -10.842447,0.84884 l -14.880183,15.3702 c 0.749466,0.2835 1.586556,0.4506 2.390037,0.662 l 13.621885,-14.072 c 0.712032,0.2572 1.510041,0.4322 2.344867,0.5247 0.834744,0.093 1.712182,0.1005 2.637264,0.029 0.925158,-0.072 1.886813,-0.2179 2.869853,-0.4521 0.727438,-0.1735 1.469151,-0.4436 2.212944,-0.706 l -0.35422,-2.20494 z"
       id="path4386" />
    <path
       style="fill:url(#linearGradient4192);fill-opacity:1;stroke:none"
       d="m 49.598075,990.92941 c -1.028211,-0.41 -1.821117,-1.06583 -2.486674,-1.83137 0.122661,0.39542 0.221918,0.79709 0.43137,1.15986 0.330585,0.5726 0.764344,1.06604 1.270033,1.49243 l 0.785271,-0.82092 z"
       id="path4384" />
    <path
       style="fill:url(#linearGradient4140);fill-opacity:1;stroke:none"
       d="m 63.161655,942.44472 c -0.10593,0.0249 -0.20217,0.0293 -0.3125,0.0625 -0.30406,0.0915 -0.56443,0.20924 -0.8125,0.34375 -2.42965,0.75638 -4.85544,1.62503 -7.3125,2.625 -2.45706,0.99995 -4.95575,2.13047 -7.40625,3.375 -0.26658,0.0717 -0.50706,0.15401 -0.8125,0.3125 -0.37523,0.19465 -0.68879,0.39669 -0.9375,0.625 -0.24871,0.22832 -0.45569,0.49208 -0.59375,0.75 -0.27613,0.51586 -0.3213,1.07724 -0.25,1.6875 0.0713,0.61026 0.27054,1.26488 0.5625,1.9375 0.29191,0.67263 0.64555,1.39079 1.03125,2.09375 0.77134,1.40594 1.61474,2.82122 2,4.15625 0.19264,0.6675 0.2817,1.30451 0.1875,1.90625 -0.0942,0.60172 -0.36719,1.15232 -0.875,1.65622 -1.95394,1.2063 -3.80385,2.5042 -5.53125,3.8438 -1.7274,1.3396 -3.3296,2.7367 -4.8125,4.1875 -0.64934,0.3626 -1.3667,0.5511 -2.125,0.5937 -0.75832,0.043 -1.575346,-0.072 -2.406246,-0.25 -1.66196,-0.3563 -3.42175,-1.0437 -5.15625,-1.6875 -0.86725,-0.3219 -1.73157,-0.6301 -2.5625,-0.875 -0.83084,-0.2449 -1.61678,-0.4314 -2.375,-0.5 -0.75823,-0.069 -1.47578,-0.019 -2.125,0.1875 -0.32462,0.1036 -0.64694,0.2465 -0.9375,0.4375 -0.29049,0.191 -0.56055,0.4279 -0.8125,0.7188 -0.2555,0.295 -0.37915,0.5608 -0.46875,0.8125 -1.54256,1.832 -2.96723,3.6883 -4.25,5.5625 -1.07183,1.5659 -2.02577,3.1409 -2.90625,4.7187 4.74856,0.033 12.56879,-1.3715 13.75,0.5313 0.0934,0.1505 0.15125,0.3371 0.15625,0.5312 -0.0852,0.2349 -0.172,0.4533 -0.25,0.6875 -0.03,0.0356 -0.0146,0.008 -0.0343,0.0666 0.50119,0.12184 0.41988,0.0732 0.61859,0.17379 0.48558,0.24584 0.77818,0.56899 0.79074,1.04089 -0.13652,0.55906 -0.0417,0.23714 -0.25781,0.76557 0.0657,0.0136 -0.0233,0.01 0.0391,0.0156 0.13826,0.041 0.38153,0.043 0.5,0.094 0.27283,0.1174 0.48014,0.2289 0.625,0.4063 0.14499,0.1772 0.21175,0.4066 0.21875,0.6562 -0.55053,1.5173 -0.95189,3.0259 -1.1875,4.5 -0.23567,1.4743 -0.29708,2.9235 -0.1875,4.3125 -0.17089,0.5461 -0.619,1.0589 -1.28125,1.5938 -0.66225,0.5351 -1.52924,1.0995 -2.53125,1.625 -2.00416,1.0509 -4.54646,2.07101 -7,3.09371 -1.22686,0.5115 -2.41954,1.0246 -3.53125,1.5313 -1.11177,0.507 -2.1236704,0.9962 -2.9687504,1.5 -0.8450097,0.5037 -1.5420097,1.0288 -1.9687497,1.5312 -0.21336,0.2512 -0.3572,0.499 -0.4375,0.75 -0.0805,0.2513 -0.10245,0.4984 -0.0312,0.75 0.0628,0.2229 0.18893,0.3439 0.34375,0.4688 0.0186,0.013 0.0442,0.05 0.0625,0.062 0.29438,0.9266 0.69783,1.8112 1.125,2.6875 0.4243897,0.5556 0.8708897,1.1065 1.3437497,1.625 -0.003,0.013 0.0263,0.021 0.0312,0.031 -0.002,0.015 -0.006,0.021 0,0.031 0.0307,0.1965 0.0879,0.3657 0.25,0.5313 2.9096304,3.0025 16.1273504,-11.9067 20.5937504,-10.9063 1.13176,0.7782 2.40979,1.4397 3.78125,1.9687 l 13.718746,-14.34371 c -0.10157,-0.2414 -0.17391,-0.4958 -0.25,-0.75 -0.28871,-0.309 -0.56776,-0.6302 -0.78125,-1 -0.4238,-0.73664 -0.25233,-0.63485 -0.43755,-1 -0.26212,-0.2899 -0.49007,-0.5956 -0.6875,-0.9375 -2.50016,-4.3304 1.31386,-11.2393 8.53125,-15.4063 3.01328,-1.7397 6.16466,-2.6892 8.96875,-2.9375 l 5.15625,-11.96872 c -0.54003,0.0744 -1.09413,0.16231 -1.65625,0.28125 -0.4692,-0.0569 -0.81351,-0.24007 -1.0625,-0.5625 -0.24904,-0.32241 -0.418,-0.78987 -0.5,-1.3125 -0.009,-0.0543 0.0244,-0.11511 0.0312,-0.1875 -0.71564,-0.26252 -1.06633,-0.99129 -1.1875,-1.96875 -2.16387,-0.88395 -0.73508,-6.0641 -0.40625,-9.84375 z"
       id="path4406"
       inkscape:connector-curvature="0" />
    <path
       style="fill:url(#linearGradient4192);fill-opacity:1;stroke:none"
       d="m 27.08324,986.06168 c -0.144863,-0.17735 -0.352712,-0.3178 -0.625548,-0.43518 -0.118469,-0.0505 -0.352737,-0.0434 -0.491001,-0.084 -0.905531,2.75689 -1.364571,5.47133 -1.164876,8.00299 -1.366921,4.36815 -20.8848476,8.35551 -19.7394213,12.37661 0.06324,0.2227 0.1964422,0.3667 0.3512575,0.4914 0.018542,0.013 0.017061,0.048 0.035367,0.061 0.4823776,1.5185 1.1038095,2.9728 1.9101502,4.3695 0.1924569,0.3333 0.4594727,0.6021 0.6679649,0.9211 -0.5487541,-1.0844 -1.0791091,-2.1744 -1.4463759,-3.3304 -0.018306,-0.013 -0.016825,-0.048 -0.035367,-0.061 -0.1548153,-0.1249 -0.2884267,-0.2686 -0.3512576,-0.4914 -0.071182,-0.2517 -0.066863,-0.4918 0.013549,-0.743 0.080326,-0.2511 0.2380489,-0.4995 0.4514185,-0.7507 0.4267344,-0.5024 1.1054363,-1.0103 1.9504442,-1.514 0.8450802,-0.5038 1.8608805,-1.0052 2.9726505,-1.5121 1.111712,-0.5068 2.312284,-1.0214 3.53914,-1.5329 2.453544,-1.0227 4.987706,-2.04642 6.991866,-3.09735 1.002019,-0.52548 1.879286,-1.07521 2.541539,-1.61029 0.662242,-0.53492 1.107927,-1.07032 1.278814,-1.61635 -0.109577,-1.38905 -0.03182,-2.82939 0.203872,-4.30361 0.235611,-1.47418 0.629172,-2.98224 1.179703,-4.49947 -0.0066,-0.24965 -0.08887,-0.46364 -0.233889,-0.64088 z"
       id="path4382"
       inkscape:connector-curvature="0" />
    <path
       style="fill:url(#linearGradient4192);fill-opacity:1;stroke:none"
       d="m 37.264814,1018.5508 c -0.07104,-0.089 -0.163761,-0.1668 -0.270088,-0.2321 -0.283079,-0.05 -0.525603,-0.1524 -0.802252,-0.2106 -1.036974,4.3819 -10.949085,14.6264 -6.256606,14.8631 0.05062,0 0.103252,-0.027 0.154162,-0.028 0.04809,-0.1598 -0.0083,-0.2485 0.06168,-0.4235 0.281353,-0.7037 0.72491,-1.5202 1.265837,-2.4053 0.540923,-0.8849 1.168002,-1.841 1.81756,-2.8053 1.299021,-1.9286 2.670845,-3.9188 3.498537,-5.5524 0.413886,-0.8168 0.677007,-1.5358 0.74652,-2.1257 0.05217,-0.4426 -0.0026,-0.8129 -0.215375,-1.0805 z"
       id="path5591" />
    <path
       style="fill:url(#linearGradient4200);fill-opacity:1;stroke:none"
       d="m 111.89889,935.2669 c -0.0737,-0.0936 -0.17566,-0.20051 -0.29661,-0.27797 -0.20203,-0.13018 -0.43082,-0.19428 -0.67364,-0.22365 -0.0135,-0.005 -0.004,-0.0261 -0.0176,-0.0306 -0.0207,-0.002 -0.0483,3.2e-4 -0.0688,-9.5e-4 -0.0401,-0.0243 -0.0728,-0.0536 -0.11295,-0.0777 -1.92305,3.69518 -15.093158,11.23977 -14.579071,14.35918 0.428283,0.40728 0.82322,0.85457 1.198298,1.30922 1.242292,-3.95432 16.589783,-12.4679 14.550373,-15.05727 z m -14.550372,15.05727 c -0.07422,0.23627 -0.09977,0.44948 -0.06656,0.65101 0.441721,0.42005 0.86533,0.86998 1.250347,1.34043 l 0.153143,-0.0884 c -0.0085,-0.0153 -0.01773,-0.0308 -0.0265,-0.0459 -0.383301,-0.6639 -0.827691,-1.27195 -1.310406,-1.85707 z m 1.183743,1.99147 -19.637662,11.25614 c -1.160134,-1.99433 -3.462894,-3.07902 -6.315438,-3.27585 l -0.818255,1.94259 c 3.74243,-0.24743 6.850381,0.86084 8.265432,3.29348 l 19.790806,-11.34455 c -0.0085,-0.0153 -0.01773,-0.0308 -0.0265,-0.0459 -0.373955,-0.64771 -0.789605,-1.25315 -1.258352,-1.82587 z m 16.015889,8.17067 c -0.21894,-0.23642 -0.58307,-0.3347 -1.05364,-0.35136 0.0571,3.39681 -0.53728,6.95797 -1.68051,10.58762 -0.0241,0.27259 -0.0605,0.54878 -0.0724,0.81773 -1.63195,4.83506 -17.585651,1.92904 -21.302584,6.13249 -1.541551,3.17501 -3.663061,6.36351 -6.406613,9.4162 -0.392913,0.92183 0.0864,1.70208 1.010129,2.39798 0.02063,-0.14062 0.05861,-0.28995 0.121611,-0.43775 2.743552,-3.05269 4.865061,-6.24119 6.406612,-9.4162 3.716933,-4.20345 19.670635,-1.29743 21.302585,-6.1325 0.0119,-0.26894 0.0483,-0.54513 0.0724,-0.81772 1.15951,-3.6813 1.77255,-7.29885 1.69519,-10.73903 0.008,-0.0185 0.0254,-0.0418 0.0334,-0.0601 0.005,-0.0105 -0.0225,-0.02 -0.0176,-0.0307 0.096,-0.22496 0.15485,-0.45515 0.14313,-0.69521 -0.007,-0.14348 -0.0482,-0.28523 -0.0924,-0.39585 -0.0403,-0.10188 -0.0891,-0.19973 -0.15915,-0.27567 z m -22.161251,1.46224 -0.204191,0.11789 c 0.183316,0.5076 0.353716,1.01355 0.480627,1.53981 0.159282,0.13007 0.361772,0.22974 0.605903,0.28317 -0.24708,-0.66304 -0.532483,-1.31812 -0.882339,-1.94087 z M 63.982654,941.10337 c -0.05193,-0.09 -0.113851,-0.16984 -0.175793,-0.24562 -0.157715,-0.1915 -0.356575,-0.32917 -0.607905,-0.40453 0.316641,3.59913 -2.204015,10.7967 0.375925,11.85062 -0.378403,-3.19165 1.54608,-9.12857 0.407814,-11.20048 z m 32.025726,55.52905 c -0.206003,-0.30871 -0.514987,-0.59957 -0.916363,-0.87986 -0.08467,0.38093 -0.330975,0.77765 -0.795906,1.21502 -0.23133,0.21763 -0.472243,0.38641 -0.712664,0.53397 -3.739824,3.45195 -7.944924,6.73765 -12.551035,9.73755 -0.195378,0.1949 -0.404995,0.3793 -0.694981,0.5645 -5.699551,3.6415 -6.743824,-9.89833 -12.266213,-8.39573 -1.722718,0.92793 -3.439479,1.75433 -5.163823,2.49123 l 0.338498,2.2958 c 1.986928,-0.8158 3.972397,-1.7577 5.957065,-2.8268 5.522388,-1.5026 6.566661,12.0371 12.266212,8.3958 0.289977,-0.1853 0.499604,-0.3696 0.694981,-0.5647 4.606111,-2.9998 8.811211,-6.2855 12.551035,-9.73742 0.24044,-0.14753 0.481334,-0.31634 0.712665,-0.53397 0.92986,-0.87473 1.026694,-1.62673 0.580529,-2.29539 z M 70.964814,953.5504 c -0.680075,0.0491 -1.364352,0.12349 -2.057927,0.20804 L 62.76889,968.0018 c -2.804095,0.24826 -5.930581,1.21876 -8.943863,2.95848 -7.217395,4.16697 -11.041427,11.05544 -8.541259,15.38586 0.197432,0.34197 0.423529,0.6619 0.685649,0.95179 -1.454323,-4.33332 2.30905,-10.5217 8.987349,-14.37741 3.013282,-1.73972 6.139769,-2.71024 8.943863,-2.95849 l 7.064185,-16.41163 z m -13.774811,45.40146 c -0.256463,0.10091 -0.504181,0.18491 -0.759836,0.27533 l 1.973381,11.84721 c -1.995449,0.811 -3.991258,1.5021 -5.96124,2.0532 -5.109835,3.0486 -2.009132,15.5346 -8.055779,16.6982 -0.383217,0.074 -0.681784,0.062 -0.944552,0.014 -4.740522,0.8443 -9.327644,1.1898 -13.622091,1.0448 -0.01496,0 -0.0344,0.025 -0.05064,0.029 -0.29684,0.081 -0.610786,0.118 -0.925826,0.1057 -0.35745,1.1498 -0.127588,1.8981 1.097577,1.9595 0.326779,0.017 0.652457,-0.022 0.960233,-0.1051 0.01624,0 0.03569,-0.024 0.05064,-0.029 4.294448,0.1452 8.881569,-0.2005 13.622091,-1.0446 0.262768,0.048 0.561335,0.059 0.944552,-0.014 6.046647,-1.1636 2.945921,-13.6496 8.05578,-16.6982 1.969981,-0.5511 3.965791,-1.2422 5.961239,-2.0532 l -2.345284,-14.08279 z m -7.587452,-8.01375 c -0.724852,-0.28898 -1.364262,-0.6731 -1.917011,-1.13931 l -13.965329,14.597 c -1.371459,-0.529 -2.65397,-1.1812 -3.785726,-1.9594 -4.466402,-1.0003 -17.678598,13.909 -20.5882262,10.9065 -0.1620675,-0.1656 -0.2193164,-0.3535 -0.249979,-0.5499 -0.00571,-0.01 -0.020239,-0.016 -0.017683,-0.031 -0.00542,-0.01 -0.020475,-0.017 -0.017683,-0.03 -0.8049836,-0.8828 -1.5447831,-1.8122 -2.2022068,-2.8124 0.1604434,0.3137 0.3273114,0.6254 0.5051831,0.9334 0.8061662,1.3964 1.7556997,2.662 2.8290079,3.839 -0.0028,0.014 0.01226,0.021 0.01768,0.03 -0.0026,0.014 0.01198,0.021 0.01768,0.031 0.02985,0.1969 0.08677,0.3849 0.249979,0.5499 2.909629,3.0025 16.121825,-11.9068 20.588225,-10.9065 1.131757,0.7782 2.414269,1.4303 3.785726,1.9593 L 49.60279,990.93787 z m -24.70758,-8.66568 c -1.401412,-2.25756 -12.174146,0.14952 -16.0389934,-0.72481 -0.00569,0.0109 -0.011447,0.0198 -0.016502,0.0299 -2.1200043,4.14082 11.5250194,0.73461 15.9815294,1.92187 0.07798,-0.23427 0.152104,-0.47387 0.237343,-0.70877 -0.0054,-0.19417 -0.06972,-0.36786 -0.163156,-0.51836 z m 10.155049,32.44317 c -0.0801,-0.1199 -0.179156,-0.2255 -0.314297,-0.3087 -0.711918,-0.1262 -1.397517,-0.2826 -2.0689,-0.4594 l -1.19945,1.2234 c 1.156564,0.4375 2.379571,0.7818 3.66761,1.0475 0.169901,-0.6314 0.156632,-1.144 -0.08496,-1.5028 z"
       id="path5649"
       inkscape:connector-curvature="0" />
    <path
       style="fill:url(#linearGradient4140);fill-opacity:1;stroke:none"
       d="m 100.59916,932.38222 c -0.15974,5e-4 -0.31066,0.003 -0.46875,0.0312 -0.316154,0.057 -0.618064,0.18197 -0.937504,0.34375 -0.63888,0.3236 -1.318051,0.84612 -1.968751,1.5 -0.65069,0.65386 -1.27661,1.44721 -1.9375,2.3125 -0.66089,0.86529 -1.33055,1.79213 -2,2.75 -1.3389,1.91573 -2.69917,3.89583 -4.0625,5.46875 -0.68167,0.78646 -1.34593,1.47751 -2.03125,2 -0.68532,0.52248 -1.37515,0.89159 -2.0625,1.03125 -1.71646,-0.12305 -3.52767,-0.12538 -5.375,0 l -5.375,12.75 c 2.00648,0.46069 3.62872,1.4485 4.53125,2.99997 l 19.625001,-11.24997 c -0.0187,-0.0228 -0.0436,-0.0398 -0.0625,-0.0625 -0.17505,-0.21484 -0.34331,-0.4207 -0.531251,-0.625 -0.01,-0.0107 -0.0213,-0.0206 -0.0312,-0.0312 -0.19878,-0.21469 -0.41123,-0.42171 -0.625,-0.625 -0.0317,-0.19266 -0.004,-0.40105 0.0625,-0.625 0.003,-0.009 -0.003,-0.0227 0,-0.0312 -0.37508,-0.45465 -0.75921,-0.90522 -1.1875,-1.3125 -0.47211,-2.86474 10.575075,-9.45493 13.875005,-13.375 -0.90025,-0.44875 -1.83623,-0.87785 -2.8125,-1.25 -1.69849,-0.64748 -3.52256,-1.17556 -5.40625,-1.59375 -0.15487,-0.16262 -0.42261,-0.27805 -0.75,-0.34375 -0.15635,-0.0314 -0.30901,-0.063 -0.46875,-0.0625 z"
       id="path4408" />
    <path
       style="fill:url(#linearGradient4140);fill-opacity:1;stroke:none"
       d="m 113.44291,962.19472 c -0.46962,0.0805 -0.96794,0.17799 -1.53125,0.34372 -1.83493,0.54 -4.11754,1.4549 -6.40625,2.375 -2.28873,0.9202 -4.59643,1.8824 -6.500004,2.4375 -0.951801,0.2776 -1.801811,0.4534 -2.500001,0.5 -0.6982,0.047 -1.22276,-0.066 -1.5625,-0.3437 -0.14551,-0.6034 -0.44864,-1.1475 -0.6875,-1.7188 -0.17081,-0.054 -0.34772,-0.1198 -0.46875,-0.2187 -0.14182,-0.5881 -0.2932,-0.9687 -0.50781,-1.5313 -6.42472,3.7383 -13.01069,7.57181 -19.49219,11.344 0.28392,0.5425 0.4628,1.1114 0.5625,1.7188 0.0997,0.6074 0.10495,1.2536 0.0312,1.9062 -0.0737,0.6527 -0.23235,1.3217 -0.46875,2 -0.23642,0.6783 -0.54918,1.3781 -0.9375,2.0625 -0.38832,0.6844 -0.84554,1.3604 -1.375,2.0313 -0.52946,0.6709 -1.15265,1.3309 -1.8125,1.9687 -0.65985,0.6379 -1.34554,1.2274 -2.125,1.8125 -0.77946,0.5852 -1.64294,1.1434 -2.53125,1.6563 -0.97555,0.5632 -1.95283,1.0624 -2.9375,1.4687 l 1.5,9.53126 c 1.46353,-0.6493 2.91117,-1.3365 4.375,-2.12496 5.52239,-1.5026 6.58169,12.01636 12.28125,8.37496 0.28998,-0.1853 0.49212,-0.3675 0.6875,-0.5625 4.60611,-2.9998 8.82268,-6.2668 12.5625,-9.71876 0.24042,-0.1475 0.45617,-0.3448 0.6875,-0.5625 0.0755,-0.071 0.12325,-0.1497 0.1875,-0.2187 -1.21621,-0.5685 -2.66557,-1.0932 -4,-1.6563 -1.33443,-0.563 -2.53722,-1.1515 -3.34375,-1.8125 -0.40331,-0.3304 -0.69363,-0.6881 -0.84375,-1.0625 -0.0856,-0.2134 -0.0329,-0.4544 0,-0.6875 -0.86733,-0.6257 -1.40567,-1.23256 -1.25,-2.03516 -0.006,0.031 0.004,-0.0268 5e-5,0.004 -0.92373,-0.6959 -1.39292,-1.4844 -1,-2.4062 2.74355,-3.0527 4.8647,-6.2313 6.40625,-9.4063 3.71693,-4.2034 19.680555,-1.2899 21.312505,-6.125 0.0118,-0.2689 0.0384,-0.5399 0.0625,-0.8125 0.91315,-2.8991 1.4645,-5.7683 1.625,-8.53122 z"
       id="path4404" />
    <path
       style="fill:url(#linearGradient4140);fill-opacity:1;stroke:none"
       d="m 56.817905,1001.3821 c -0.50717,0.1789 -1.00395,0.3505 -1.5,0.4688 -0.98304,0.2343 -1.91859,0.3658 -2.84375,0.4375 -0.92508,0.071 -1.82151,0.061 -2.65625,-0.031 -0.83483,-0.092 -1.63171,-0.2428 -2.34375,-0.5 l -12.46875,12.875 c 0.0177,0.023 0.0465,0.038 0.0625,0.062 0.24163,0.3587 0.2324,0.8687 0.0625,1.5 0.24933,0.051 0.49567,0.1111 0.75,0.1562 0.53213,0.3264 0.61846,0.961 0.40625,1.7813 0.23806,0.059 0.46886,0.1433 0.71875,0.1875 0.10633,0.065 0.179,0.1297 0.25,0.2187 0.21238,0.2675 0.27095,0.6513 0.21875,1.0938 -0.0695,0.5899 -0.33611,1.3082 -0.75,2.125 -0.82769,1.6336 -2.16973,3.6026 -3.468746,5.5312 -0.64956,0.9644 -1.30283,1.9276 -1.84375,2.8125 -0.16485,0.2697 -0.29462,0.5254 -0.4375,0.7813 3.962166,0.053 8.145846,-0.2926 12.468746,-1.0625 0.26277,0.048 0.55429,0.074 0.9375,0 6.04665,-1.1636 2.95267,-13.6388 8.0625,-16.6875 1.96998,-0.551 3.9733,-1.2515 5.96875,-2.0625 l -1.59375,-9.6875 z"
       id="path2995-3-3-8-0-3" />
  </g>
</svg>
