<?xml version="1.0" encoding="UTF-8" standalone="no"?>
<!-- Created with Inkscape (http://www.inkscape.org/) -->

<svg
   xmlns:dc="http://purl.org/dc/elements/1.1/"
   xmlns:cc="http://creativecommons.org/ns#"
   xmlns:rdf="http://www.w3.org/1999/02/22-rdf-syntax-ns#"
   xmlns:svg="http://www.w3.org/2000/svg"
   xmlns="http://www.w3.org/2000/svg"
   xmlns:xlink="http://www.w3.org/1999/xlink"
   version="1.1"
   width="32"
   height="32"
   id="svg2">
  <defs
     id="defs4">
    <linearGradient
       id="linearGradient4030">
      <stop
         id="stop4032"
         style="stop-color:#ffffff;stop-opacity:0.627451"
         offset="0" />
      <stop
         id="stop4034"
         style="stop-color:#ffffff;stop-opacity:0.1254902"
         offset="0.49448988" />
      <stop
         id="stop4036"
         style="stop-color:#000000;stop-opacity:0.1254902"
         offset="0.75" />
      <stop
         id="stop4038"
         style="stop-color:#000000;stop-opacity:0.627451"
         offset="1" />
    </linearGradient>
    <linearGradient
       id="linearGradient3799">
      <stop
         id="stop3801"
         style="stop-color:#ffffff;stop-opacity:1"
         offset="0" />
      <stop
         id="stop3817"
         style="stop-color:#ffffff;stop-opacity:0.627451"
         offset="0.30000001" />
      <stop
         id="stop3819"
         style="stop-color:#ffffff;stop-opacity:0.1254902"
         offset="0.49000001" />
      <stop
         id="stop3811"
         style="stop-color:#000000;stop-opacity:0.1254902"
         offset="0.50999999" />
      <stop
         id="stop3815"
         style="stop-color:#000000;stop-opacity:0.627451"
         offset="0.69999999" />
      <stop
         id="stop3803"
         style="stop-color:#000000;stop-opacity:1"
         offset="1" />
    </linearGradient>
    <linearGradient
       id="linearGradient3793">
      <stop
         id="stop3795"
         style="stop-color:#000000;stop-opacity:1"
         offset="0" />
    </linearGradient>
    <linearGradient
       id="linearGradient3783">
      <stop
         id="stop3785"
         style="stop-color:#c2c2c2;stop-opacity:1"
         offset="0" />
      <stop
         id="stop3787"
         style="stop-color:#c2c2c2;stop-opacity:0"
         offset="1" />
    </linearGradient>
    <linearGradient
       x1="0.0077231522"
       y1="1038.2231"
       x2="14.142136"
       y2="1052.3615"
       id="linearGradient3809-0"
       xlink:href="#linearGradient3799-9"
       gradientUnits="userSpaceOnUse" />
    <linearGradient
       id="linearGradient3799-9">
      <stop
         id="stop3801-3"
         style="stop-color:#ffffff;stop-opacity:1"
         offset="0" />
      <stop
         id="stop3817-9"
         style="stop-color:#ffffff;stop-opacity:0.75294119"
         offset="0.30000001" />
      <stop
         id="stop3819-4"
         style="stop-color:#ffffff;stop-opacity:0.1254902"
         offset="0.49000001" />
      <stop
         id="stop3811-4"
         style="stop-color:#000000;stop-opacity:0.1254902"
         offset="0.50999999" />
      <stop
         id="stop3815-3"
         style="stop-color:#000000;stop-opacity:0.75294119"
         offset="0.69999999" />
      <stop
         id="stop3803-8"
         style="stop-color:#000000;stop-opacity:1"
         offset="1" />
    </linearGradient>
    <linearGradient
       x1="0.0077231522"
       y1="1038.2231"
       x2="14.142136"
       y2="1052.3615"
       id="linearGradient3842"
       xlink:href="#linearGradient3799-9"
       gradientUnits="userSpaceOnUse"
       gradientTransform="translate(16,0.88391566)" />
    <linearGradient
       x1="0.0077231522"
       y1="1038.2231"
       x2="14.142136"
       y2="1052.3615"
       id="linearGradient3809-04"
       xlink:href="#linearGradient3799-3"
       gradientUnits="userSpaceOnUse" />
    <linearGradient
       id="linearGradient3799-3">
      <stop
         id="stop3973"
         style="stop-color:#ffffff;stop-opacity:1"
         offset="0" />
      <stop
         id="stop4026"
         style="stop-color:#ffffff;stop-opacity:0"
         offset="0.5" />
      <stop
         id="stop4028"
         style="stop-color:#000000;stop-opacity:0"
         offset="0.75" />
      <stop
         id="stop3803-5"
         style="stop-color:#000000;stop-opacity:1"
         offset="1" />
    </linearGradient>
    <radialGradient
       cx="16.089243"
       cy="1022.8405"
       r="7.0711002"
       fx="16.089243"
       fy="1022.8405"
       id="radialGradient4024"
       xlink:href="#linearGradient4030"
       gradientUnits="userSpaceOnUse"
       gradientTransform="matrix(2.6709308,2.6752017,-0.94355956,0.9420532,938.14108,10.89398)"
       spreadMethod="pad" />
    <radialGradient
       cx="0.13356832"
       cy="1038.2911"
       r="7.0710678"
       fx="0.13356832"
       fy="1038.2911"
       id="radialGradient4040"
       xlink:href="#linearGradient3799"
       gradientUnits="userSpaceOnUse"
       gradientTransform="matrix(2.6394799,2.6525639,-8.5728954,8.5306092,8900.987,-7824.0096)" />
    <radialGradient
       cx="0.13356832"
       cy="1038.2911"
       r="7.0710678"
       fx="0.13356832"
       fy="1038.2911"
       id="radialGradient4040-7"
       xlink:href="#linearGradient3799-0"
       gradientUnits="userSpaceOnUse"
       gradientTransform="matrix(1.9796149,1.9894279,-6.4296876,6.3979729,6675.7569,-5604.9333)" />
    <linearGradient
       id="linearGradient3799-0">
      <stop
         id="stop3801-4"
         style="stop-color:#ffffff;stop-opacity:1"
         offset="0" />
      <stop
         id="stop3817-4"
         style="stop-color:#ffffff;stop-opacity:0.75294119"
         offset="0.30000001" />
      <stop
         id="stop3819-3"
         style="stop-color:#ffffff;stop-opacity:0.1254902"
         offset="0.49000001" />
      <stop
         id="stop3811-5"
         style="stop-color:#000000;stop-opacity:0.1254902"
         offset="0.50999999" />
      <stop
         id="stop3815-0"
         style="stop-color:#000000;stop-opacity:0.75294119"
         offset="0.69999999" />
      <stop
         id="stop3803-4"
         style="stop-color:#000000;stop-opacity:1"
         offset="1" />
    </linearGradient>
    <radialGradient
       cx="0.13356832"
       cy="1038.2911"
       r="7.0710678"
       fx="0.13356832"
       fy="1038.2911"
       id="radialGradient4061"
       xlink:href="#linearGradient3799"
       gradientUnits="userSpaceOnUse"
       gradientTransform="matrix(2.6394799,2.6525639,-8.5728954,8.5306092,8900.987,-7856.0095)" />
    <radialGradient
       cx="0.13356832"
       cy="1038.2911"
       r="7.0710678"
       fx="0.13356832"
       fy="1038.2911"
       id="radialGradient4040-6"
       xlink:href="#linearGradient3799-6"
       gradientUnits="userSpaceOnUse"
       gradientTransform="matrix(1.9796149,1.9894279,-6.4296876,6.3979729,6675.7569,-5604.9333)" />
    <linearGradient
       id="linearGradient3799-6">
      <stop
         id="stop3801-6"
         style="stop-color:#ffffff;stop-opacity:1"
         offset="0" />
      <stop
         id="stop3817-6"
         style="stop-color:#ffffff;stop-opacity:0.75294119"
         offset="0.30000001" />
      <stop
         id="stop3819-2"
         style="stop-color:#ffffff;stop-opacity:0.1254902"
         offset="0.49000001" />
      <stop
         id="stop3811-2"
         style="stop-color:#000000;stop-opacity:0.1254902"
         offset="0.50999999" />
      <stop
         id="stop3815-9"
         style="stop-color:#000000;stop-opacity:0.75294119"
         offset="0.69999999" />
      <stop
         id="stop3803-82"
         style="stop-color:#000000;stop-opacity:1"
         offset="1" />
    </linearGradient>
    <radialGradient
       cx="0.13356832"
       cy="1038.2911"
       r="7.0710678"
       fx="0.13356832"
       fy="1038.2911"
       id="radialGradient4061-3"
       xlink:href="#linearGradient3799"
       gradientUnits="userSpaceOnUse"
       gradientTransform="matrix(2.6394799,2.6525639,-8.5728954,8.5306092,8932.9869,-7856.0095)" />
    <radialGradient
       cx="0.13356832"
       cy="1038.2911"
       r="7.0710678"
       fx="0.13356832"
       fy="1038.2911"
       id="radialGradient4040-0"
       xlink:href="#linearGradient3799-06"
       gradientUnits="userSpaceOnUse"
       gradientTransform="matrix(1.9796149,1.9894279,-6.4296876,6.3979729,6675.7569,-5604.9333)" />
    <linearGradient
       id="linearGradient3799-06">
      <stop
         id="stop3801-64"
         style="stop-color:#ffffff;stop-opacity:1"
         offset="0" />
      <stop
         id="stop3817-7"
         style="stop-color:#ffffff;stop-opacity:0.75294119"
         offset="0.30000001" />
      <stop
         id="stop3819-36"
         style="stop-color:#ffffff;stop-opacity:0.1254902"
         offset="0.49000001" />
      <stop
         id="stop3811-6"
         style="stop-color:#000000;stop-opacity:0.1254902"
         offset="0.50999999" />
      <stop
         id="stop3815-4"
         style="stop-color:#000000;stop-opacity:0.75294119"
         offset="0.69999999" />
      <stop
         id="stop3803-6"
         style="stop-color:#000000;stop-opacity:1"
         offset="1" />
    </linearGradient>
    <radialGradient
       cx="0.13356832"
       cy="1038.2911"
       r="7.0710678"
       fx="0.13356832"
       fy="1038.2911"
       id="radialGradient4061-9"
       xlink:href="#linearGradient3799"
       gradientUnits="userSpaceOnUse"
       gradientTransform="matrix(2.6394799,2.6525639,-8.5728954,8.5306092,8932.9869,-7824.0096)" />
    <radialGradient
       cx="16.089243"
       cy="1022.8405"
       r="7.0711002"
       fx="16.089243"
       fy="1022.8405"
       id="radialGradient4024-9"
       xlink:href="#linearGradient4030-4"
       gradientUnits="userSpaceOnUse"
       gradientTransform="matrix(2.0032031,2.0064063,-0.70767144,0.70654167,703.60755,271.25909)"
       spreadMethod="pad" />
    <linearGradient
       id="linearGradient4030-4">
      <stop
         id="stop4032-0"
         style="stop-color:#ffffff;stop-opacity:0.75294119"
         offset="0" />
      <stop
         id="stop4034-6"
         style="stop-color:#ffffff;stop-opacity:0.1254902"
         offset="0.49448988" />
      <stop
         id="stop4036-6"
         style="stop-color:#000000;stop-opacity:0.1254902"
         offset="0.75" />
      <stop
         id="stop4038-0"
         style="stop-color:#000000;stop-opacity:0.75294119"
         offset="1" />
    </linearGradient>
    <radialGradient
       cx="16.089243"
       cy="1022.8405"
       r="7.0711002"
       fx="16.089243"
       fy="1022.8405"
       id="radialGradient4155"
       xlink:href="#linearGradient4030"
       gradientUnits="userSpaceOnUse"
       gradientTransform="matrix(2.6709308,2.6752017,-0.94355956,0.9420532,906.14116,10.893927)"
       spreadMethod="pad" />
    <radialGradient
       cx="16.089243"
       cy="1022.8405"
       r="7.0711002"
       fx="16.089243"
       fy="1022.8405"
       id="radialGradient4024-91"
       xlink:href="#linearGradient4030-9"
       gradientUnits="userSpaceOnUse"
       gradientTransform="matrix(2.0032031,2.0064063,-0.70767144,0.70654167,703.60755,271.25909)"
       spreadMethod="pad" />
    <linearGradient
       id="linearGradient4030-9">
      <stop
         id="stop4032-1"
         style="stop-color:#ffffff;stop-opacity:0.75294119"
         offset="0" />
      <stop
         id="stop4034-7"
         style="stop-color:#ffffff;stop-opacity:0.1254902"
         offset="0.49448988" />
      <stop
         id="stop4036-5"
         style="stop-color:#000000;stop-opacity:0.1254902"
         offset="0.75" />
      <stop
         id="stop4038-1"
         style="stop-color:#000000;stop-opacity:0.75294119"
         offset="1" />
    </linearGradient>
    <radialGradient
       cx="16.089243"
       cy="1022.8405"
       r="7.0711002"
       fx="16.089243"
       fy="1022.8405"
       id="radialGradient4155-6"
       xlink:href="#linearGradient4030"
       gradientUnits="userSpaceOnUse"
       gradientTransform="matrix(2.6709308,2.6752017,-0.94355956,0.9420532,938.14108,42.893927)"
       spreadMethod="pad" />
    <radialGradient
       cx="16.089243"
       cy="1022.8405"
       r="7.0711002"
       fx="16.089243"
       fy="1022.8405"
       id="radialGradient4024-5"
       xlink:href="#linearGradient4030-92"
       gradientUnits="userSpaceOnUse"
       gradientTransform="matrix(2.0032031,2.0064063,-0.70767144,0.70654167,703.60755,271.25909)"
       spreadMethod="pad" />
    <linearGradient
       id="linearGradient4030-92">
      <stop
         id="stop4032-09"
         style="stop-color:#ffffff;stop-opacity:0.75294119"
         offset="0" />
      <stop
         id="stop4034-1"
         style="stop-color:#ffffff;stop-opacity:0.1254902"
         offset="0.49448988" />
      <stop
         id="stop4036-57"
         style="stop-color:#000000;stop-opacity:0.1254902"
         offset="0.75" />
      <stop
         id="stop4038-4"
         style="stop-color:#000000;stop-opacity:0.75294119"
         offset="1" />
    </linearGradient>
    <radialGradient
       cx="16.089243"
       cy="1022.8405"
       r="7.0711002"
       fx="16.089243"
       fy="1022.8405"
       id="radialGradient4155-1"
       xlink:href="#linearGradient4030"
       gradientUnits="userSpaceOnUse"
       gradientTransform="matrix(2.6709308,2.6752017,-0.94355956,0.9420532,906.14116,42.893967)"
       spreadMethod="pad" />
  </defs>
  <metadata
     id="metadata7">
    <rdf:RDF>
      <cc:Work
         rdf:about="">
        <dc:format>image/svg+xml</dc:format>
        <dc:type
           rdf:resource="http://purl.org/dc/dcmitype/StillImage" />
        <dc:title></dc:title>
      </cc:Work>
    </rdf:RDF>
  </metadata>
  <g
     transform="translate(0,-1020.3622)"
     id="layer1">
    <path
       d="m 5.656861,1039.1629 c -5.2069776,5.2069 -5.6568401,13.1993 -5.6568401,13.1993 0,0 7.9923159,-0.4499 13.1992931,-5.6569 5.206978,-5.2069 5.656841,-13.1993 5.656841,-13.1993 0,0 -7.992316,0.4498 -13.199294,5.6569 z m 1.8856133,1.8856 c 2.6034887,-2.6035 6.5996467,-2.8284 6.5996467,-2.8284 0,0 -0.224931,3.9961 -2.828419,6.5996 -2.6034897,2.6034 -6.5996477,2.8284 -6.5996477,2.8284 0,0 0.2249312,-3.9962 2.82842,-6.5996 z"
       id="path2985"
       style="fill:url(#radialGradient4040);fill-opacity:1;stroke:none" />
    <path
       d="m -42.51829,1008.4125 c 0,0 -4.477152,4 -10,4 -5.522847,0 -10,-4 -10,-4 0,0 4.477153,-4 10,-4 5.522848,0 10,4 10,4 z"
       id="path2985-8"
       style="fill:#c2c2c2;fill-opacity:1;stroke:none" />
    <path
       d="m 21.6569,1030.7053 c 5.20692,5.2071 13.1993,5.6569 13.1993,5.6569 0,0 -0.449865,-7.9924 -5.656919,-13.1993 -5.20692,-5.207 -13.1993,-5.6569 -13.1993,-5.6569 0,0 0.449865,7.9924 5.656919,13.1993 z m 1.885595,-1.8856 c -2.60346,-2.6034 -2.828393,-6.5996 -2.828393,-6.5996 0,0 3.996124,0.225 6.599584,2.8284 2.60346,2.6035 2.828393,6.5996 2.828393,6.5996 0,0 -3.996123,-0.2249 -6.599584,-2.8284 z"
       id="path2985-86"
       style="fill:url(#radialGradient4024);fill-opacity:1;stroke:none" />
    <path
       d="m 5.656861,1007.163 c -5.2069776,5.2069 -5.6568401,13.1993 -5.6568401,13.1993 0,0 7.9923159,-0.4499 13.1992931,-5.6569 5.206978,-5.207 5.656841,-13.1993 5.656841,-13.1993 0,0 -7.992316,0.4498 -13.199294,5.6569 z m 1.8856133,1.8856 c 2.6034887,-2.6035 6.5996467,-2.8284 6.5996467,-2.8284 0,0 -0.224931,3.9961 -2.828419,6.5996 -2.6034897,2.6034 -6.5996477,2.8283 -6.5996477,2.8283 0,0 0.2249312,-3.9961 2.82842,-6.5995 z"
       id="path2985-83"
       style="fill:url(#radialGradient4061);fill-opacity:1;stroke:none" />
    <path
       d="m 37.656781,1007.163 c -5.206977,5.2069 -5.65684,13.1993 -5.65684,13.1993 0,0 7.992316,-0.4499 13.199294,-5.6569 5.206977,-5.207 5.65684,-13.1993 5.65684,-13.1993 0,0 -7.992316,0.4498 -13.199294,5.6569 z m 1.885613,1.8856 c 2.60349,-2.6035 6.599648,-2.8284 6.599648,-2.8284 0,0 -0.224932,3.9961 -2.82842,6.5996 -2.60349,2.6034 -6.599648,2.8283 -6.599648,2.8283 0,0 0.224932,-3.9961 2.82842,-6.5995 z"
       id="path2985-87"
       style="fill:url(#radialGradient4061-3);fill-opacity:1;stroke:none" />
    <path
       d="m 37.656781,1039.1629 c -5.206977,5.2069 -5.65684,13.1993 -5.65684,13.1993 0,0 7.992316,-0.4499 13.199294,-5.6569 5.206977,-5.2069 5.65684,-13.1993 5.65684,-13.1993 0,0 -7.992316,0.4498 -13.199294,5.6569 z m 1.885613,1.8856 c 2.60349,-2.6035 6.599648,-2.8284 6.599648,-2.8284 0,0 -0.224932,3.9961 -2.82842,6.5996 -2.60349,2.6034 -6.599648,2.8284 -6.599648,2.8284 0,0 0.224932,-3.9962 2.82842,-6.5996 z"
       id="path2985-2"
       style="fill:url(#radialGradient4061-9);fill-opacity:1;stroke:none" />
    <path
       d="m -10.34302,1030.7053 c 5.2069204,5.2071 13.1993004,5.6569 13.1993004,5.6569 0,0 -0.4498655,-7.9924 -5.6569192,-13.1993 -5.2069202,-5.207 -13.1993002,-5.6569 -13.1993002,-5.6569 0,0 0.449865,7.9924 5.656919,13.1993 z m 1.885595,-1.8856 c -2.60346,-2.6034 -2.828393,-6.5996 -2.828393,-6.5996 0,0 3.996124,0.225 6.599584,2.8284 2.6034601,2.6035 2.8283929,6.5996 2.8283929,6.5996 0,0 -3.9961229,-0.2249 -6.5995839,-2.8284 z"
       id="path2985-86-8"
       style="fill:url(#radialGradient4155);fill-opacity:1;stroke:none" />
    <path
       d="m 21.6569,1062.7052 c 5.20692,5.2071 13.1993,5.6569 13.1993,5.6569 0,0 -0.449865,-7.9923 -5.656919,-13.1993 -5.20692,-5.207 -13.1993,-5.6569 -13.1993,-5.6569 0,0 0.449865,7.9924 5.656919,13.1993 z m 1.885595,-1.8856 c -2.60346,-2.6034 -2.828393,-6.5995 -2.828393,-6.5995 0,0 3.996124,0.2249 6.599584,2.8283 2.60346,2.6035 2.828393,6.5996 2.828393,6.5996 0,0 -3.996123,-0.2249 -6.599584,-2.8284 z"
       id="path2985-86-1"
       style="fill:url(#radialGradient4155-6);fill-opacity:1;stroke:none" />
    <path
       d="m -10.34302,1062.7052 c 5.2069205,5.2071 13.1993006,5.6569 13.1993006,5.6569 0,0 -0.4498656,-7.9923 -5.6569192,-13.1993 -5.2069204,-5.207 -13.1993004,-5.6569 -13.1993004,-5.6569 0,0 0.449865,7.9924 5.656919,13.1993 z m 1.885596,-1.8856 c -2.603461,-2.6034 -2.828393,-6.5995 -2.828393,-6.5995 0,0 3.996123,0.2249 6.5995831,2.8283 2.6034601,2.6035 2.8283929,6.5996 2.8283929,6.5996 0,0 -3.996123,-0.2249 -6.599583,-2.8284 z"
       id="path2985-86-4"
       style="fill:url(#radialGradient4155-1);fill-opacity:1;stroke:none" />
  </g>
</svg>
